Besley-Italic.ufo
<glyph name="parenright" format="2">
	<advance width="890" height="0"/>
	<unicode hex="0029"/>
	<outline>
		<contour>
			<point x="247" y="1539" type="curve" smooth="yes"/>
			<point x="255" y="1577" type="line" smooth="yes"/>
			<point x="262" y="1612"/>
			<point x="271" y="1601"/>
			<point x="299" y="1590" type="curve" smooth="yes"/>
			<point x="638" y="1457"/>
			<point x="800" y="1147"/>
			<point x="800" y="794" type="curve" smooth="yes"/>
			<point x="800" y="263"/>
			<point x="434" y="-172"/>
			<point x="-67" y="-324" type="curve" smooth="yes"/>
			<point x="-97" y="-333"/>
			<point x="-108" y="-344"/>
			<point x="-115" y="-309" type="curve" smooth="yes"/>
			<point x="-123" y="-271" type="line" smooth="yes"/>
			<point x="-128" y="-244"/>
			<point x="-134" y="-238"/>
			<point x="-109" y="-229" type="curve" smooth="yes"/>
			<point x="306" y="-83"/>
			<point x="570" y="318"/>
			<point x="570" y="794" type="curve" smooth="yes"/>
			<point x="570" y="1087"/>
			<point x="512" y="1327"/>
			<point x="267" y="1487" type="curve" smooth="yes"/>
			<point x="242" y="1503"/>
			<point x="240" y="1504"/>
		</contour>
	</outline>
</glyph>
<glyph name="comma" format="2">
	<advance width="658" height="0"/>
	<unicode hex="002C"/>
	<outline>
		<contour>
			<point x="77" y="98" type="curve" smooth="yes"/>
			<point x="77" y="164"/>
			<point x="135" y="216"/>
			<point x="211" y="216" type="curve" smooth="yes"/>
			<point x="289" y="216"/>
			<point x="351" y="154"/>
			<point x="351" y="28" type="curve" smooth="yes"/>
			<point x="351" y="-146"/>
			<point x="181" y="-296"/>
			<point x="16" y="-311" type="curve" smooth="yes"/>
			<point x="1" y="-312"/>
			<point x="-7" y="-313"/>
			<point x="-7" y="-296" type="curve" smooth="yes"/>
			<point x="-7" y="-253" type="line" smooth="yes"/>
			<point x="-7" y="-235"/>
			<point x="3" y="-232"/>
			<point x="18" y="-230" type="curve" smooth="yes"/>
			<point x="109" y="-216"/>
			<point x="257" y="-124"/>
			<point x="246" y="-9" type="curve" smooth="yes"/>
			<point x="244" y="7"/>
			<point x="235" y="-1"/>
			<point x="224" y="-8" type="curve" smooth="yes"/>
			<point x="211" y="-16"/>
			<point x="194" y="-20"/>
			<point x="173" y="-20" type="curve" smooth="yes"/>
			<point x="107" y="-20"/>
			<point x="77" y="32"/>
		</contour>
	</outline>
</glyph>
<glyph name="hyphen" format="2">
	<advance width="640" height="0"/>
	<unicode hex="002D"/>
	<outline>
		<contour>
			<point x="48" y="710" type="curve" smooth="yes"/>
			<point x="474" y="710" type="line" smooth="yes"/>
			<point x="497" y="710"/>
			<point x="500" y="706"/>
			<point x="500" y="682" type="curve" smooth="yes"/>
			<point x="500" y="603" type="line" smooth="yes"/>
			<point x="500" y="579"/>
			<point x="498" y="570"/>
			<point x="472" y="570" type="curve" smooth="yes"/>
			<point x="46" y="570" type="line" smooth="yes"/>
			<point x="21" y="570"/>
			<point x="20" y="574"/>
			<point x="20" y="600" type="curve" smooth="yes"/>
			<point x="20" y="682" type="line" smooth="yes"/>
			<point x="20" y="705"/>
			<point x="27" y="710"/>
		</contour>
	</outline>
</glyph>
<glyph name="period" format="2">
	<advance width="564" height="2190"/>
	<unicode hex="002E"/>
	<outline>
		<contour>
			<point x="-7" y="100" type="curve" smooth="yes"/>
			<point x="-7" y="173"/>
			<point x="52" y="232"/>
			<point x="125" y="232" type="curve" smooth="yes"/>
			<point x="198" y="232"/>
			<point x="257" y="173"/>
			<point x="257" y="100" type="curve" smooth="yes"/>
			<point x="257" y="27"/>
			<point x="198" y="-32"/>
			<point x="125" y="-32" type="curve" smooth="yes"/>
			<point x="52" y="-32"/>
			<point x="-7" y="27"/>
		</contour>
	</outline>
</glyph>
<glyph name="slash" format="2">
	<advance width="1040" height="0"/>
	<unicode hex="002F"/>
	<outline>
		<contour>
			<point x="1034" y="1560" type="curve" smooth="yes"/>
			<point x="1079" y="1560" type="line" smooth="yes"/>
			<point x="1117" y="1560"/>
			<point x="1122" y="1553"/>
			<point x="1108" y="1530" type="curve" smooth="yes"/>
			<point x="21" y="-268" type="line" smooth="yes"/>
			<point x="5" y="-294"/>
			<point x="0" y="-300"/>
			<point x="-41" y="-300" type="curve" smooth="yes"/>
			<point x="-73" y="-300" type="line" smooth="yes"/>
			<point x="-122" y="-300"/>
			<point x="-130" y="-286"/>
			<point x="-113" y="-258" type="curve" smooth="yes"/>
			<point x="978" y="1526" type="line" smooth="yes"/>
			<point x="993" y="1551"/>
			<point x="994" y="1560"/>
		</contour>
	</outline>
</glyph>
<glyph name="zero" format="2">
	<advance width="1180" height="0"/>
	<unicode hex="0030"/>
	<outline>
		<contour>
			<point x="79" y="750" type="curve" smooth="yes"/>
			<point x="199" y="1316"/>
			<point x="502" y="1520"/>
			<point x="748" y="1520" type="curve" smooth="yes"/>
			<point x="1034" y="1520"/>
			<point x="1219" y="1316"/>
			<point x="1099" y="750" type="curve" smooth="yes"/>
			<point x="979" y="184"/>
			<point x="697" y="-20"/>
			<point x="441" y="-20" type="curve" smooth="yes"/>
			<point x="195" y="-20"/>
			<point x="-41" y="184"/>
		</contour>
		<contour>
			<point x="299" y="750" type="curve" smooth="yes"/>
			<point x="196" y="266"/>
			<point x="269" y="80"/>
			<point x="437" y="80" type="curve" smooth="yes"/>
			<point x="615" y="80"/>
			<point x="776" y="266"/>
			<point x="879" y="750" type="curve" smooth="yes"/>
			<point x="982" y="1234"/>
			<point x="920" y="1420"/>
			<point x="742" y="1420" type="curve" smooth="yes"/>
			<point x="574" y="1420"/>
			<point x="402" y="1234"/>
		</contour>
	</outline>
</glyph>
<glyph name="one" format="2">
	<advance width="1050" height="2310"/>
	<unicode hex="0031"/>
	<outline>
		<contour>
			<point x="-40" y="38" type="curve" smooth="yes"/>
			<point x="-40" y="80" type="line" smooth="yes"/>
			<point x="-40" y="109"/>
			<point x="-29" y="110"/>
			<point x="0" y="110" type="curve" smooth="yes"/>
			<point x="258" y="110" type="line" smooth="yes"/>
			<point x="294" y="110"/>
			<point x="303" y="120"/>
			<point x="310" y="152" type="curve" smooth="yes"/>
			<point x="530" y="1173" type="line" smooth="yes"/>
			<point x="530" y="1209"/>
			<point x="527" y="1220"/>
			<point x="492" y="1220" type="curve" smooth="yes"/>
			<point x="288" y="1220" type="line" smooth="yes"/>
			<point x="259" y="1220"/>
			<point x="244" y="1222"/>
			<point x="244" y="1254" type="curve" smooth="yes"/>
			<point x="244" y="1284" type="line" smooth="yes"/>
			<point x="244" y="1320"/>
			<point x="248" y="1330"/>
			<point x="286" y="1330" type="curve" smooth="yes"/>
			<point x="480" y="1331"/>
			<point x="580" y="1345"/>
			<point x="687" y="1538" type="curve" smooth="yes"/>
			<point x="698" y="1558"/>
			<point x="705" y="1580"/>
			<point x="738" y="1580" type="curve" smooth="yes"/>
			<point x="766" y="1580" type="line" smooth="yes"/>
			<point x="791" y="1580"/>
			<point x="805" y="1578"/>
			<point x="800" y="1554" type="curve" smooth="yes"/>
			<point x="500" y="162" type="line" smooth="yes"/>
			<point x="490" y="117"/>
			<point x="506" y="110"/>
			<point x="554" y="110" type="curve" smooth="yes"/>
			<point x="766" y="110" type="line" smooth="yes"/>
			<point x="792" y="110"/>
			<point x="810" y="109"/>
			<point x="810" y="80" type="curve" smooth="yes"/>
			<point x="810" y="40" type="line" smooth="yes"/>
			<point x="810" y="8"/>
			<point x="807" y="0"/>
			<point x="776" y="0" type="curve" smooth="yes"/>
			<point x="-6" y="0" type="line" smooth="yes"/>
			<point x="-36" y="0"/>
			<point x="-40" y="7"/>
		</contour>
	</outline>
</glyph>
<glyph name="two" format="2">
	<advance width="1140" height="2310"/>
	<unicode hex="0032"/>
	<outline>
		<contour>
			<point x="970" y="325" type="curve" smooth="yes"/>
			<point x="985" y="63"/>
			<point x="813" y="-20"/>
			<point x="640" y="-20" type="curve" smooth="yes"/>
			<point x="426" y="-20"/>
			<point x="306" y="100"/>
			<point x="160" y="100" type="curve" smooth="yes"/>
			<point x="101" y="100"/>
			<point x="70" y="73"/>
			<point x="50" y="30" type="curve" smooth="yes"/>
			<point x="43" y="13"/>
			<point x="38" y="0"/>
			<point x="11" y="0" type="curve" smooth="yes"/>
			<point x="-37" y="0" type="line" smooth="yes"/>
			<point x="-58" y="0"/>
			<point x="-60" y="10"/>
			<point x="-60" y="29" type="curve" smooth="yes"/>
			<point x="-51" y="307"/>
			<point x="226" y="517"/>
			<point x="514" y="698" type="curve" smooth="yes"/>
			<point x="662" y="791"/>
			<point x="934" y="992"/>
			<point x="934" y="1220" type="curve" smooth="yes"/>
			<point x="934" y="1378"/>
			<point x="832" y="1436"/>
			<point x="674" y="1436" type="curve" smooth="yes"/>
			<point x="516" y="1436"/>
			<point x="370" y="1348"/>
			<point x="370" y="1294" type="curve" smooth="yes"/>
			<point x="370" y="1248"/>
			<point x="464" y="1238"/>
			<point x="464" y="1146" type="curve" smooth="yes"/>
			<point x="464" y="1072"/>
			<point x="399" y="1030"/>
			<point x="345" y="1030" type="curve" smooth="yes"/>
			<point x="277" y="1030"/>
			<point x="212" y="1076"/>
			<point x="212" y="1162" type="curve" smooth="yes"/>
			<point x="212" y="1346"/>
			<point x="410" y="1520"/>
			<point x="704" y="1520" type="curve" smooth="yes"/>
			<point x="966" y="1520"/>
			<point x="1156" y="1430"/>
			<point x="1156" y="1200" type="curve" smooth="yes"/>
			<point x="1156" y="960"/>
			<point x="847" y="740"/>
			<point x="564" y="600" type="curve" smooth="yes"/>
			<point x="367" y="502"/>
			<point x="150" y="319"/>
			<point x="67" y="204" type="curve" smooth="yes"/>
			<point x="43" y="170"/>
			<point x="30" y="134"/>
			<point x="46" y="134" type="curve" smooth="yes"/>
			<point x="65" y="134"/>
			<point x="63" y="163"/>
			<point x="90" y="191" type="curve" smooth="yes"/>
			<point x="136" y="238"/>
			<point x="240" y="269"/>
			<point x="320" y="269" type="curve" smooth="yes"/>
			<point x="470" y="269"/>
			<point x="550" y="181"/>
			<point x="702" y="181" type="curve" smooth="yes"/>
			<point x="819" y="181"/>
			<point x="868" y="235"/>
			<point x="875" y="327" type="curve" smooth="yes"/>
			<point x="878" y="350"/>
			<point x="877" y="354"/>
			<point x="903" y="354" type="curve" smooth="yes"/>
			<point x="944" y="354" type="line" smooth="yes"/>
			<point x="967" y="354"/>
			<point x="969" y="349"/>
		</contour>
	</outline>
</glyph>
<glyph name="four" format="2">
	<advance width="1080" height="2310"/>
	<unicode hex="0034"/>
	<outline>
		<contour>
			<point x="880" y="84" type="curve" smooth="yes"/>
			<point x="880" y="26" type="line" smooth="yes"/>
			<point x="880" y="3"/>
			<point x="873" y="0"/>
			<point x="849" y="0" type="curve" smooth="yes"/>
			<point x="382" y="0" type="line" smooth="yes"/>
			<point x="357" y="0"/>
			<point x="350" y="5"/>
			<point x="350" y="32" type="curve" smooth="yes"/>
			<point x="350" y="77" type="line" smooth="yes"/>
			<point x="350" y="103"/>
			<point x="355" y="110"/>
			<point x="380" y="110" type="curve" smooth="yes"/>
			<point x="522" y="110" type="line" smooth="yes"/>
			<point x="543" y="110"/>
			<point x="556" y="116"/>
			<point x="560" y="135" type="curve" smooth="yes"/>
			<point x="620" y="422" type="line" smooth="yes"/>
			<point x="626" y="452"/>
			<point x="617" y="460"/>
			<point x="587" y="460" type="curve" smooth="yes"/>
			<point x="114" y="460" type="line" smooth="yes"/>
			<point x="84" y="460"/>
			<point x="77" y="463"/>
			<point x="63" y="477" type="curve" smooth="yes"/>
			<point x="37" y="503" type="line" smooth="yes"/>
			<point x="18" y="522"/>
			<point x="23" y="528"/>
			<point x="34" y="555" type="curve" smooth="yes"/>
			<point x="174" y="886"/>
			<point x="756" y="1050"/>
			<point x="858" y="1447" type="curve" smooth="yes"/>
			<point x="866" y="1477"/>
			<point x="858" y="1500"/>
			<point x="899" y="1500" type="curve" smooth="yes"/>
			<point x="1008" y="1500" type="line" smooth="yes"/>
			<point x="1049" y="1500"/>
			<point x="1057" y="1496"/>
			<point x="1052" y="1459" type="curve" smooth="yes"/>
			<point x="997" y="1047"/>
			<point x="332" y="844"/>
			<point x="194" y="618" type="curve" smooth="yes"/>
			<point x="175" y="587"/>
			<point x="183" y="570"/>
			<point x="240" y="570" type="curve" smooth="yes"/>
			<point x="631" y="570" type="line" smooth="yes"/>
			<point x="652" y="570"/>
			<point x="655" y="576"/>
			<point x="659" y="595" type="curve" smooth="yes"/>
			<point x="684" y="720" type="line" smooth="yes"/>
			<point x="690" y="752"/>
			<point x="697" y="752"/>
			<point x="714" y="765" type="curve" smooth="yes"/>
			<point x="761" y="801"/>
			<point x="830" y="848"/>
			<point x="860" y="938" type="curve" smooth="yes"/>
			<point x="866" y="955"/>
			<point x="868" y="970"/>
			<point x="893" y="970" type="curve" smooth="yes"/>
			<point x="899" y="970" type="line" smooth="yes"/>
			<point x="925" y="970"/>
			<point x="925" y="962"/>
			<point x="920" y="939" type="curve" smooth="yes"/>
			<point x="849" y="614" type="line" smooth="yes"/>
			<point x="841" y="578"/>
			<point x="854" y="570"/>
			<point x="891" y="570" type="curve" smooth="yes"/>
			<point x="979" y="570" type="line" smooth="yes"/>
			<point x="1006" y="570"/>
			<point x="1010" y="563"/>
			<point x="1010" y="535" type="curve" smooth="yes"/>
			<point x="1010" y="490" type="line" smooth="yes"/>
			<point x="1010" y="463"/>
			<point x="1002" y="460"/>
			<point x="974" y="460" type="curve" smooth="yes"/>
			<point x="855" y="460" type="line" smooth="yes"/>
			<point x="824" y="460"/>
			<point x="816" y="449"/>
			<point x="810" y="421" type="curve" smooth="yes"/>
			<point x="750" y="146" type="line" smooth="yes"/>
			<point x="744" y="116"/>
			<point x="746" y="110"/>
			<point x="778" y="110" type="curve" smooth="yes"/>
			<point x="845" y="110" type="line" smooth="yes"/>
			<point x="870" y="110"/>
			<point x="880" y="109"/>
		</contour>
	</outline>
</glyph>
<glyph name="seven" format="2">
	<advance width="1048" height="2310"/>
	<unicode hex="0037"/>
	<outline>
		<contour>
			<point x="170" y="1162" type="curve" smooth="yes"/>
			<point x="214" y="1439"/>
			<point x="345" y="1520"/>
			<point x="520" y="1520" type="curve" smooth="yes"/>
			<point x="714" y="1520"/>
			<point x="774" y="1400"/>
			<point x="940" y="1400" type="curve" smooth="yes"/>
			<point x="1014" y="1400"/>
			<point x="1046" y="1433"/>
			<point x="1066" y="1483" type="curve" smooth="yes"/>
			<point x="1071" y="1496"/>
			<point x="1072" y="1500"/>
			<point x="1091" y="1500" type="curve" smooth="yes"/>
			<point x="1160" y="1500" type="line" smooth="yes"/>
			<point x="1183" y="1500"/>
			<point x="1179" y="1492"/>
			<point x="1176" y="1471" type="curve" smooth="yes"/>
			<point x="1152" y="1321"/>
			<point x="841" y="956"/>
			<point x="666" y="744" type="curve" smooth="yes"/>
			<point x="516" y="562"/>
			<point x="448" y="472"/>
			<point x="448" y="384" type="curve" smooth="yes"/>
			<point x="448" y="268"/>
			<point x="534" y="258"/>
			<point x="534" y="116" type="curve" smooth="yes"/>
			<point x="534" y="42"/>
			<point x="484" y="-20"/>
			<point x="396" y="-20" type="curve" smooth="yes"/>
			<point x="318" y="-20"/>
			<point x="244" y="54"/>
			<point x="244" y="192" type="curve" smooth="yes"/>
			<point x="244" y="370"/>
			<point x="396" y="564"/>
			<point x="558" y="772" type="curve" smooth="yes"/>
			<point x="663" y="906"/>
			<point x="870" y="1127"/>
			<point x="943" y="1254" type="curve" smooth="yes"/>
			<point x="955" y="1274"/>
			<point x="965" y="1291"/>
			<point x="960" y="1296" type="curve" smooth="yes"/>
			<point x="955" y="1301"/>
			<point x="943" y="1283"/>
			<point x="922" y="1277" type="curve" smooth="yes"/>
			<point x="896" y="1269"/>
			<point x="866" y="1266"/>
			<point x="830" y="1266" type="curve" smooth="yes"/>
			<point x="630" y="1266"/>
			<point x="610" y="1334"/>
			<point x="458" y="1334" type="curve" smooth="yes"/>
			<point x="337" y="1334"/>
			<point x="298" y="1281"/>
			<point x="264" y="1166" type="curve" smooth="yes"/>
			<point x="260" y="1152"/>
			<point x="263" y="1146"/>
			<point x="248" y="1146" type="curve" smooth="yes"/>
			<point x="192" y="1146" type="line" smooth="yes"/>
			<point x="177" y="1146"/>
			<point x="168" y="1147"/>
		</contour>
	</outline>
</glyph>
<glyph name="nine" format="2">
	<advance width="1100" height="2310"/>
	<unicode hex="0039"/>
	<outline>
		<contour>
			<point x="220" y="118" type="curve" smooth="yes"/>
			<point x="220" y="92"/>
			<point x="239" y="64"/>
			<point x="317" y="64" type="curve" smooth="yes"/>
			<point x="549" y="64"/>
			<point x="685" y="297"/>
			<point x="774" y="640" type="curve" smooth="yes"/>
			<point x="783" y="673"/>
			<point x="790" y="686"/>
			<point x="784" y="690" type="curve" smooth="yes"/>
			<point x="777" y="694"/>
			<point x="770" y="680"/>
			<point x="749" y="661" type="curve" smooth="yes"/>
			<point x="666" y="587"/>
			<point x="556" y="540"/>
			<point x="424" y="540" type="curve" smooth="yes"/>
			<point x="202" y="540"/>
			<point x="50" y="700"/>
			<point x="120" y="1030" type="curve" smooth="yes"/>
			<point x="188" y="1350"/>
			<point x="404" y="1520"/>
			<point x="646" y="1520" type="curve" smooth="yes"/>
			<point x="968" y="1520"/>
			<point x="1124" y="1330"/>
			<point x="1003" y="760" type="curve" smooth="yes"/>
			<point x="901" y="280"/>
			<point x="631" y="-20"/>
			<point x="309" y="-20" type="curve" smooth="yes"/>
			<point x="145" y="-20"/>
			<point x="48" y="84"/>
			<point x="48" y="198" type="curve" smooth="yes"/>
			<point x="48" y="306"/>
			<point x="116" y="350"/>
			<point x="174" y="350" type="curve" smooth="yes"/>
			<point x="238" y="350"/>
			<point x="293" y="310"/>
			<point x="293" y="234" type="curve" smooth="yes"/>
			<point x="293" y="162"/>
			<point x="220" y="145"/>
		</contour>
		<contour>
			<point x="320" y="1030" type="curve" smooth="yes"/>
			<point x="272" y="802"/>
			<point x="331" y="638"/>
			<point x="489" y="638" type="curve" smooth="yes"/>
			<point x="655" y="638"/>
			<point x="807" y="780"/>
			<point x="841" y="940" type="curve" smooth="yes"/>
			<point x="904" y="1238"/>
			<point x="855" y="1430"/>
			<point x="657" y="1430" type="curve" smooth="yes"/>
			<point x="479" y="1430"/>
			<point x="366" y="1248"/>
		</contour>
	</outline>
</glyph>
<glyph name="greater" format="2">
	<advance width="1120" height="0"/>
	<unicode hex="003E"/>
	<outline>
		<contour>
			<point x="824" y="798" type="curve" smooth="yes"/>
			<point x="228" y="1045" type="line" smooth="yes"/>
			<point x="201" y="1056"/>
			<point x="190" y="1063"/>
			<point x="190" y="1103" type="curve" smooth="yes"/>
			<point x="190" y="1145" type="line" smooth="yes"/>
			<point x="190" y="1190"/>
			<point x="208" y="1184"/>
			<point x="234" y="1173" type="curve" smooth="yes"/>
			<point x="968" y="872" type="line" smooth="yes"/>
			<point x="997" y="860"/>
			<point x="1000" y="851"/>
			<point x="1000" y="810" type="curve" smooth="yes"/>
			<point x="1000" y="730" type="line" smooth="yes"/>
			<point x="1000" y="688"/>
			<point x="995" y="687"/>
			<point x="966" y="677" type="curve" smooth="yes"/>
			<point x="74" y="363" type="line" smooth="yes"/>
			<point x="48" y="354"/>
			<point x="40" y="357"/>
			<point x="40" y="391" type="curve" smooth="yes"/>
			<point x="40" y="437" type="line" smooth="yes"/>
			<point x="40" y="474"/>
			<point x="50" y="485"/>
			<point x="76" y="494" type="curve" smooth="yes"/>
			<point x="822" y="751" type="line" smooth="yes"/>
			<point x="853" y="762"/>
			<point x="870" y="763"/>
			<point x="870" y="774" type="curve" smooth="yes"/>
			<point x="870" y="785"/>
			<point x="857" y="784"/>
		</contour>
	</outline>
</glyph>
<glyph name="question" format="2">
	<advance width="1100" height="0"/>
	<unicode hex="003F"/>
	<outline>
		<contour>
			<point x="553" y="438" type="curve" smooth="yes"/>
			<point x="498" y="397"/>
			<point x="438" y="392"/>
			<point x="402" y="392" type="curve" smooth="yes"/>
			<point x="281" y="392"/>
			<point x="210" y="466"/>
			<point x="210" y="570" type="curve" smooth="yes"/>
			<point x="210" y="826"/>
			<point x="858" y="865"/>
			<point x="858" y="1200" type="curve" smooth="yes"/>
			<point x="858" y="1348"/>
			<point x="760" y="1426"/>
			<point x="602" y="1426" type="curve" smooth="yes"/>
			<point x="474" y="1426"/>
			<point x="358" y="1368"/>
			<point x="358" y="1324" type="curve" smooth="yes"/>
			<point x="358" y="1264"/>
			<point x="420" y="1262"/>
			<point x="420" y="1160" type="curve" smooth="yes"/>
			<point x="420" y="1076"/>
			<point x="354" y="1040"/>
			<point x="284" y="1040" type="curve" smooth="yes"/>
			<point x="214" y="1040"/>
			<point x="150" y="1086"/>
			<point x="150" y="1182" type="curve" smooth="yes"/>
			<point x="150" y="1366"/>
			<point x="338" y="1520"/>
			<point x="642" y="1520" type="curve" smooth="yes"/>
			<point x="904" y="1520"/>
			<point x="1040" y="1400"/>
			<point x="1040" y="1180" type="curve" smooth="yes"/>
			<point x="1040" y="726"/>
			<point x="351" y="729"/>
			<point x="351" y="567" type="curve" smooth="yes"/>
			<point x="351" y="534"/>
			<point x="373" y="506"/>
			<point x="420" y="506" type="curve" smooth="yes"/>
			<point x="444" y="506"/>
			<point x="489" y="511"/>
			<point x="530" y="546" type="curve" smooth="yes"/>
			<point x="546" y="560"/>
			<point x="548" y="559"/>
			<point x="554" y="527" type="curve" smooth="yes"/>
			<point x="566" y="476" type="line" smooth="yes"/>
			<point x="570" y="453"/>
			<point x="568" y="449"/>
		</contour>
		<component base="period" xOffset="298"/>
	</outline>
</glyph>
<glyph name="A" format="2">
	<advance width="1800" height="0"/>
	<unicode hex="0041"/>
	<anchor x="1073" y="1500" name="Anchor-0"/>
	<anchor x="686" y="0" name="Anchor-1"/>
	<anchor x="686" y="0" name="Anchor-2"/>
	<anchor x="1286" y="0" name="Anchor-3"/>
	<outline>
		<contour>
			<point x="947" y="1208" type="curve" smooth="yes"/>
			<point x="563" y="598" type="line" smooth="yes"/>
			<point x="543" y="566"/>
			<point x="515" y="550"/>
			<point x="578" y="550" type="curve" smooth="yes"/>
			<point x="1076" y="550" type="line" smooth="yes"/>
			<point x="1127" y="550"/>
			<point x="1123" y="553"/>
			<point x="1116" y="596" type="curve" smooth="yes"/>
			<point x="1021" y="1212" type="line" smooth="yes"/>
			<point x="1013" y="1264"/>
			<point x="1013" y="1284"/>
			<point x="998" y="1284" type="curve" smooth="yes"/>
			<point x="987" y="1284"/>
			<point x="972" y="1248"/>
		</contour>
		<contour>
			<point x="-100" y="34" type="curve" smooth="yes"/>
			<point x="-100" y="72" type="line" smooth="yes"/>
			<point x="-100" y="101"/>
			<point x="-99" y="110"/>
			<point x="-70" y="110" type="curve" smooth="yes"/>
			<point x="78" y="110" type="line" smooth="yes"/>
			<point x="115" y="110"/>
			<point x="115" y="122"/>
			<point x="129" y="144" type="curve" smooth="yes"/>
			<point x="992" y="1502" type="line" smooth="yes"/>
			<point x="1004" y="1521"/>
			<point x="1009" y="1530"/>
			<point x="1043" y="1530" type="curve" smooth="yes"/>
			<point x="1108" y="1530" type="line" smooth="yes"/>
			<point x="1144" y="1530"/>
			<point x="1151" y="1524"/>
			<point x="1156" y="1494" type="curve" smooth="yes"/>
			<point x="1395" y="160" type="line" smooth="yes"/>
			<point x="1404" y="112"/>
			<point x="1413" y="110"/>
			<point x="1470" y="110" type="curve" smooth="yes"/>
			<point x="1586" y="110" type="line" smooth="yes"/>
			<point x="1615" y="110"/>
			<point x="1620" y="104"/>
			<point x="1620" y="74" type="curve" smooth="yes"/>
			<point x="1620" y="34" type="line" smooth="yes"/>
			<point x="1620" y="4"/>
			<point x="1613" y="0"/>
			<point x="1582" y="0" type="curve" smooth="yes"/>
			<point x="1006" y="0" type="line" smooth="yes"/>
			<point x="980" y="0"/>
			<point x="980" y="7"/>
			<point x="980" y="33" type="curve" smooth="yes"/>
			<point x="980" y="78" type="line" smooth="yes"/>
			<point x="980" y="110"/>
			<point x="987" y="110"/>
			<point x="1019" y="110" type="curve" smooth="yes"/>
			<point x="1140" y="110" type="line" smooth="yes"/>
			<point x="1184" y="110"/>
			<point x="1190" y="113"/>
			<point x="1184" y="150" type="curve" smooth="yes"/>
			<point x="1144" y="412" type="line" smooth="yes"/>
			<point x="1139" y="447"/>
			<point x="1124" y="440"/>
			<point x="1086" y="440" type="curve" smooth="yes"/>
			<point x="512" y="440" type="line" smooth="yes"/>
			<point x="479" y="440"/>
			<point x="463" y="440"/>
			<point x="451" y="420" type="curve" smooth="yes"/>
			<point x="278" y="144" type="line" smooth="yes"/>
			<point x="265" y="123"/>
			<point x="264" y="110"/>
			<point x="306" y="110" type="curve" smooth="yes"/>
			<point x="426" y="110" type="line" smooth="yes"/>
			<point x="448" y="110"/>
			<point x="460" y="106"/>
			<point x="460" y="82" type="curve" smooth="yes"/>
			<point x="460" y="38" type="line" smooth="yes"/>
			<point x="460" y="5"/>
			<point x="454" y="0"/>
			<point x="420" y="0" type="curve" smooth="yes"/>
			<point x="-72" y="0" type="line" smooth="yes"/>
			<point x="-103" y="0"/>
			<point x="-100" y="4"/>
		</contour>
	</outline>
</glyph>
<glyph name="D" format="2">
	<advance width="1636" height="0"/>
	<unicode hex="0044"/>
	<anchor x="843" y="1500" name="Anchor-0"/>
	<anchor x="523" y="0" name="Anchor-1"/>
	<anchor x="523" y="0" name="Anchor-2"/>
	<outline>
		<contour>
			<point x="-80" y="32" type="curve" smooth="yes"/>
			<point x="-80" y="78" type="line" smooth="yes"/>
			<point x="-80" y="110"/>
			<point x="-70" y="110"/>
			<point x="-38" y="110" type="curve" smooth="yes"/>
			<point x="114" y="110" type="line" smooth="yes"/>
			<point x="148" y="110"/>
			<point x="152" y="126"/>
			<point x="158" y="152" type="curve" smooth="yes"/>
			<point x="411" y="1338" type="line" smooth="yes"/>
			<point x="421" y="1386"/>
			<point x="418" y="1390"/>
			<point x="358" y="1390" type="curve" smooth="yes"/>
			<point x="232" y="1390" type="line" smooth="yes"/>
			<point x="195" y="1390"/>
			<point x="194" y="1399"/>
			<point x="194" y="1436" type="curve" smooth="yes"/>
			<point x="194" y="1458" type="line" smooth="yes"/>
			<point x="194" y="1492"/>
			<point x="197" y="1500"/>
			<point x="230" y="1500" type="curve" smooth="yes"/>
			<point x="946" y="1500" type="line" smooth="yes"/>
			<point x="1412" y="1500"/>
			<point x="1546" y="1196"/>
			<point x="1546" y="930" type="curve" smooth="yes"/>
			<point x="1546" y="384"/>
			<point x="1092" y="0"/>
			<point x="646" y="0" type="curve" smooth="yes"/>
			<point x="-48" y="0" type="line" smooth="yes"/>
			<point x="-73" y="0"/>
			<point x="-80" y="5"/>
		</contour>
		<contour>
			<point x="398" y="110" type="curve" smooth="yes"/>
			<point x="646" y="110" type="line" smooth="yes"/>
			<point x="1014" y="110"/>
			<point x="1316" y="486"/>
			<point x="1316" y="970" type="curve" smooth="yes"/>
			<point x="1316" y="1194"/>
			<point x="1274" y="1390"/>
			<point x="946" y="1390" type="curve" smooth="yes"/>
			<point x="686" y="1390" type="line" smooth="yes"/>
			<point x="629" y="1390"/>
			<point x="621" y="1384"/>
			<point x="611" y="1338" type="curve" smooth="yes"/>
			<point x="358" y="152" type="line" smooth="yes"/>
			<point x="350" y="117"/>
			<point x="352" y="110"/>
		</contour>
	</outline>
</glyph>
<glyph name="E" format="2">
	<advance width="1458" height="0"/>
	<unicode hex="0045"/>
	<anchor x="903" y="1500" name="Anchor-0"/>
	<anchor x="606" y="0" name="Anchor-1"/>
	<anchor x="606" y="0" name="Anchor-2"/>
	<anchor x="1046" y="0" name="Anchor-3"/>
	<outline>
		<contour>
			<point x="493" y="692" type="curve" smooth="yes"/>
			<point x="371" y="156" type="line" smooth="yes"/>
			<point x="361" y="114"/>
			<point x="366" y="110"/>
			<point x="420" y="110" type="curve" smooth="yes"/>
			<point x="796" y="110" type="line" smooth="yes"/>
			<point x="1059" y="110"/>
			<point x="1167" y="189"/>
			<point x="1246" y="472" type="curve" smooth="yes"/>
			<point x="1254" y="500"/>
			<point x="1251" y="510"/>
			<point x="1290" y="510" type="curve" smooth="yes"/>
			<point x="1320" y="510" type="line" smooth="yes"/>
			<point x="1350" y="510"/>
			<point x="1355" y="507"/>
			<point x="1350" y="484" type="curve" smooth="yes"/>
			<point x="1247" y="46" type="line" smooth="yes"/>
			<point x="1238" y="7"/>
			<point x="1231" y="0"/>
			<point x="1182" y="0" type="curve" smooth="yes"/>
			<point x="-44" y="0" type="line" smooth="yes"/>
			<point x="-68" y="0"/>
			<point x="-80" y="3"/>
			<point x="-80" y="30" type="curve" smooth="yes"/>
			<point x="-80" y="64" type="line" smooth="yes"/>
			<point x="-80" y="102"/>
			<point x="-77" y="110"/>
			<point x="-40" y="110" type="curve" smooth="yes"/>
			<point x="118" y="110" type="line" smooth="yes"/>
			<point x="164" y="110"/>
			<point x="162" y="115"/>
			<point x="170" y="152" type="curve" smooth="yes"/>
			<point x="442" y="1345" type="line" smooth="yes"/>
			<point x="451" y="1386"/>
			<point x="442" y="1390"/>
			<point x="392" y="1390" type="curve" smooth="yes"/>
			<point x="248" y="1390" type="line" smooth="yes"/>
			<point x="211" y="1390"/>
			<point x="208" y="1398"/>
			<point x="208" y="1436" type="curve" smooth="yes"/>
			<point x="208" y="1468" type="line" smooth="yes"/>
			<point x="208" y="1497"/>
			<point x="230" y="1500"/>
			<point x="256" y="1500" type="curve" smooth="yes"/>
			<point x="1472" y="1500" type="line" smooth="yes"/>
			<point x="1530" y="1500"/>
			<point x="1538" y="1499"/>
			<point x="1527" y="1452" type="curve" smooth="yes"/>
			<point x="1440" y="1072" type="line" smooth="yes"/>
			<point x="1431" y="1035"/>
			<point x="1433" y="1030"/>
			<point x="1386" y="1030" type="curve" smooth="yes"/>
			<point x="1357" y="1030" type="line" smooth="yes"/>
			<point x="1324" y="1030"/>
			<point x="1335" y="1051"/>
			<point x="1339" y="1074" type="curve" smooth="yes"/>
			<point x="1384" y="1313"/>
			<point x="1331" y="1390"/>
			<point x="1110" y="1390" type="curve" smooth="yes"/>
			<point x="710" y="1390" type="line" smooth="yes"/>
			<point x="645" y="1390"/>
			<point x="649" y="1381"/>
			<point x="637" y="1330" type="curve" smooth="yes"/>
			<point x="531" y="862" type="line" smooth="yes"/>
			<point x="522" y="822"/>
			<point x="524" y="816"/>
			<point x="576" y="816" type="curve" smooth="yes"/>
			<point x="666" y="816" type="line" smooth="yes"/>
			<point x="820" y="816"/>
			<point x="913" y="891"/>
			<point x="960" y="1002" type="curve" smooth="yes"/>
			<point x="969" y="1024"/>
			<point x="967" y="1046"/>
			<point x="999" y="1046" type="curve" smooth="yes"/>
			<point x="1030" y="1046" type="line" smooth="yes"/>
			<point x="1066" y="1046"/>
			<point x="1064" y="1037"/>
			<point x="1057" y="1008" type="curve" smooth="yes"/>
			<point x="945" y="532" type="line" smooth="yes"/>
			<point x="939" y="507"/>
			<point x="943" y="496"/>
			<point x="910" y="496" type="curve" smooth="yes"/>
			<point x="878" y="496" type="line" smooth="yes"/>
			<point x="844" y="496"/>
			<point x="852" y="522"/>
			<point x="854" y="546" type="curve" smooth="yes"/>
			<point x="864" y="655"/>
			<point x="818" y="736"/>
			<point x="666" y="736" type="curve" smooth="yes"/>
			<point x="550" y="736" type="line" smooth="yes"/>
			<point x="500" y="736"/>
			<point x="502" y="732"/>
		</contour>
	</outline>
</glyph>
<glyph name="G" format="2">
	<advance width="1734" height="0"/>
	<unicode hex="0047"/>
	<anchor x="1025" y="1500" name="Anchor-0"/>
	<anchor x="677" y="0" name="Anchor-1"/>
	<anchor x="677" y="0" name="Anchor-2"/>
	<outline>
		<contour>
			<point x="1056" y="740" type="curve" smooth="yes"/>
			<point x="1656" y="740" type="line" smooth="yes"/>
			<point x="1679" y="740"/>
			<point x="1694" y="737"/>
			<point x="1694" y="712" type="curve" smooth="yes"/>
			<point x="1694" y="650" type="line" smooth="yes"/>
			<point x="1694" y="614"/>
			<point x="1687" y="610"/>
			<point x="1650" y="610" type="curve" smooth="yes"/>
			<point x="1496" y="610" type="line" smooth="yes"/>
			<point x="1460" y="610"/>
			<point x="1465" y="594"/>
			<point x="1457" y="568" type="curve" smooth="yes"/>
			<point x="1404" y="384" type="line" smooth="yes"/>
			<point x="1396" y="358"/>
			<point x="1389" y="340"/>
			<point x="1376" y="320" type="curve" smooth="yes"/>
			<point x="1282" y="175"/>
			<point x="1050" y="-20"/>
			<point x="708" y="-20" type="curve" smooth="yes"/>
			<point x="352" y="-20"/>
			<point x="90" y="184"/>
			<point x="90" y="610" type="curve" smooth="yes"/>
			<point x="90" y="1032"/>
			<point x="454" y="1520"/>
			<point x="970" y="1520" type="curve" smooth="yes"/>
			<point x="1180" y="1520"/>
			<point x="1317" y="1457"/>
			<point x="1404" y="1366" type="curve" smooth="yes"/>
			<point x="1438" y="1331"/>
			<point x="1435" y="1314"/>
			<point x="1463" y="1362" type="curve" smooth="yes"/>
			<point x="1529" y="1476" type="line" smooth="yes"/>
			<point x="1539" y="1494"/>
			<point x="1549" y="1500"/>
			<point x="1578" y="1500" type="curve" smooth="yes"/>
			<point x="1622" y="1500" type="line" smooth="yes"/>
			<point x="1652" y="1500"/>
			<point x="1653" y="1496"/>
			<point x="1648" y="1471" type="curve" smooth="yes"/>
			<point x="1553" y="1026" type="line" smooth="yes"/>
			<point x="1547" y="1000"/>
			<point x="1542" y="990"/>
			<point x="1508" y="990" type="curve" smooth="yes"/>
			<point x="1466" y="990" type="line" smooth="yes"/>
			<point x="1439" y="990"/>
			<point x="1437" y="998"/>
			<point x="1439" y="1020" type="curve" smooth="yes"/>
			<point x="1458" y="1240"/>
			<point x="1260" y="1398"/>
			<point x="986" y="1398" type="curve" smooth="yes"/>
			<point x="564" y="1398"/>
			<point x="320" y="960"/>
			<point x="320" y="610" type="curve" smooth="yes"/>
			<point x="320" y="306"/>
			<point x="452" y="94"/>
			<point x="710" y="94" type="curve" smooth="yes"/>
			<point x="899" y="94"/>
			<point x="1022" y="153"/>
			<point x="1134" y="257" type="curve" smooth="yes"/>
			<point x="1158" y="279"/>
			<point x="1168" y="293"/>
			<point x="1179" y="330" type="curve" smooth="yes"/>
			<point x="1252" y="580" type="line" smooth="yes"/>
			<point x="1259" y="606"/>
			<point x="1251" y="610"/>
			<point x="1222" y="610" type="curve" smooth="yes"/>
			<point x="1070" y="610" type="line" smooth="yes"/>
			<point x="1040" y="610"/>
			<point x="1034" y="615"/>
			<point x="1034" y="644" type="curve" smooth="yes"/>
			<point x="1034" y="714" type="line" smooth="yes"/>
			<point x="1034" y="733"/>
			<point x="1038" y="740"/>
		</contour>
	</outline>
</glyph>
<glyph name="H" format="2">
	<advance width="1794" height="0"/>
	<unicode hex="0048"/>
	<anchor x="1035" y="1500" name="Anchor-0"/>
	<anchor x="716" y="0" name="Anchor-1"/>
	<anchor x="716" y="0" name="Anchor-2"/>
	<outline>
		<contour>
			<point x="-80" y="44" type="curve" smooth="yes"/>
			<point x="-80" y="80" type="line" smooth="yes"/>
			<point x="-80" y="108"/>
			<point x="-65" y="110"/>
			<point x="-40" y="110" type="curve" smooth="yes"/>
			<point x="90" y="110" type="line" smooth="yes"/>
			<point x="146" y="110"/>
			<point x="166" y="112"/>
			<point x="176" y="160" type="curve" smooth="yes"/>
			<point x="432" y="1352" type="line" smooth="yes"/>
			<point x="439" y="1385"/>
			<point x="433" y="1390"/>
			<point x="396" y="1390" type="curve" smooth="yes"/>
			<point x="234" y="1390" type="line" smooth="yes"/>
			<point x="203" y="1390"/>
			<point x="194" y="1391"/>
			<point x="194" y="1422" type="curve" smooth="yes"/>
			<point x="194" y="1464" type="line" smooth="yes"/>
			<point x="194" y="1491"/>
			<point x="195" y="1500"/>
			<point x="222" y="1500" type="curve" smooth="yes"/>
			<point x="840" y="1500" type="line" smooth="yes"/>
			<point x="873" y="1500"/>
			<point x="874" y="1491"/>
			<point x="874" y="1458" type="curve" smooth="yes"/>
			<point x="874" y="1430" type="line" smooth="yes"/>
			<point x="874" y="1396"/>
			<point x="869" y="1390"/>
			<point x="836" y="1390" type="curve" smooth="yes"/>
			<point x="694" y="1390" type="line" smooth="yes"/>
			<point x="642" y="1390"/>
			<point x="638" y="1386"/>
			<point x="629" y="1343" type="curve" smooth="yes"/>
			<point x="528" y="872" type="line" smooth="yes"/>
			<point x="520" y="835"/>
			<point x="523" y="830"/>
			<point x="570" y="830" type="curve" smooth="yes"/>
			<point x="1270" y="830" type="line" smooth="yes"/>
			<point x="1316" y="830"/>
			<point x="1311" y="840"/>
			<point x="1319" y="876" type="curve" smooth="yes"/>
			<point x="1420" y="1348" type="line" smooth="yes"/>
			<point x="1428" y="1384"/>
			<point x="1425" y="1390"/>
			<point x="1384" y="1390" type="curve" smooth="yes"/>
			<point x="1232" y="1390" type="line" smooth="yes"/>
			<point x="1202" y="1390"/>
			<point x="1194" y="1393"/>
			<point x="1194" y="1422" type="curve" smooth="yes"/>
			<point x="1194" y="1468" type="line" smooth="yes"/>
			<point x="1194" y="1495"/>
			<point x="1202" y="1500"/>
			<point x="1228" y="1500" type="curve" smooth="yes"/>
			<point x="1840" y="1500" type="line" smooth="yes"/>
			<point x="1874" y="1500"/>
			<point x="1874" y="1500"/>
			<point x="1874" y="1466" type="curve" smooth="yes"/>
			<point x="1874" y="1434" type="line" smooth="yes"/>
			<point x="1874" y="1395"/>
			<point x="1868" y="1390"/>
			<point x="1830" y="1390" type="curve" smooth="yes"/>
			<point x="1684" y="1390" type="line" smooth="yes"/>
			<point x="1629" y="1390"/>
			<point x="1629" y="1387"/>
			<point x="1619" y="1342" type="curve" smooth="yes"/>
			<point x="1365" y="156" type="line" smooth="yes"/>
			<point x="1356" y="116"/>
			<point x="1358" y="110"/>
			<point x="1410" y="110" type="curve" smooth="yes"/>
			<point x="1568" y="110" type="line" smooth="yes"/>
			<point x="1597" y="110"/>
			<point x="1600" y="102"/>
			<point x="1600" y="72" type="curve" smooth="yes"/>
			<point x="1600" y="32" type="line" smooth="yes"/>
			<point x="1600" y="7"/>
			<point x="1595" y="0"/>
			<point x="1568" y="0" type="curve" smooth="yes"/>
			<point x="964" y="0" type="line" smooth="yes"/>
			<point x="931" y="0"/>
			<point x="920" y="3"/>
			<point x="920" y="38" type="curve" smooth="yes"/>
			<point x="920" y="74" type="line" smooth="yes"/>
			<point x="920" y="108"/>
			<point x="933" y="110"/>
			<point x="964" y="110" type="curve" smooth="yes"/>
			<point x="1110" y="110" type="line" smooth="yes"/>
			<point x="1156" y="110"/>
			<point x="1156" y="112"/>
			<point x="1164" y="150" type="curve" smooth="yes"/>
			<point x="1276" y="672" type="line" smooth="yes"/>
			<point x="1285" y="712"/>
			<point x="1284" y="720"/>
			<point x="1232" y="720" type="curve" smooth="yes"/>
			<point x="540" y="720" type="line" smooth="yes"/>
			<point x="486" y="720"/>
			<point x="493" y="705"/>
			<point x="484" y="662" type="curve" smooth="yes"/>
			<point x="373" y="148" type="line" smooth="yes"/>
			<point x="366" y="117"/>
			<point x="368" y="110"/>
			<point x="408" y="110" type="curve" smooth="yes"/>
			<point x="562" y="110" type="line" smooth="yes"/>
			<point x="599" y="110"/>
			<point x="600" y="101"/>
			<point x="600" y="64" type="curve" smooth="yes"/>
			<point x="600" y="38" type="line" smooth="yes"/>
			<point x="600" y="7"/>
			<point x="596" y="0"/>
			<point x="566" y="0" type="curve" smooth="yes"/>
			<point x="-38" y="0" type="line" smooth="yes"/>
			<point x="-76" y="0"/>
			<point x="-80" y="8"/>
		</contour>
	</outline>
</glyph>
<glyph name="K" format="2">
	<advance width="1728" height="0"/>
	<unicode hex="004B"/>
	<anchor x="1025" y="1500" name="Anchor-0"/>
	<anchor x="730" y="0" name="Anchor-1"/>
	<anchor x="730" y="0" name="Anchor-2"/>
	<outline>
		<contour>
			<point x="-80" y="38" type="curve" smooth="yes"/>
			<point x="-80" y="86" type="line" smooth="yes"/>
			<point x="-80" y="109"/>
			<point x="-71" y="110"/>
			<point x="-48" y="110" type="curve" smooth="yes"/>
			<point x="98" y="110" type="line" smooth="yes"/>
			<point x="143" y="110"/>
			<point x="147" y="114"/>
			<point x="155" y="151" type="curve" smooth="yes"/>
			<point x="420" y="1356" type="line" smooth="yes"/>
			<point x="426" y="1383"/>
			<point x="424" y="1390"/>
			<point x="388" y="1390" type="curve" smooth="yes"/>
			<point x="256" y="1390" type="line" smooth="yes"/>
			<point x="231" y="1390"/>
			<point x="230" y="1399"/>
			<point x="230" y="1424" type="curve" smooth="yes"/>
			<point x="230" y="1480" type="line" smooth="yes"/>
			<point x="230" y="1499"/>
			<point x="239" y="1500"/>
			<point x="258" y="1500" type="curve" smooth="yes"/>
			<point x="816" y="1500" type="line" smooth="yes"/>
			<point x="845" y="1500"/>
			<point x="850" y="1494"/>
			<point x="850" y="1464" type="curve" smooth="yes"/>
			<point x="850" y="1434" type="line" smooth="yes"/>
			<point x="850" y="1399"/>
			<point x="849" y="1390"/>
			<point x="814" y="1390" type="curve" smooth="yes"/>
			<point x="652" y="1390" type="line" smooth="yes"/>
			<point x="622" y="1390"/>
			<point x="626" y="1381"/>
			<point x="621" y="1358" type="curve" smooth="yes"/>
			<point x="480" y="720" type="line" smooth="yes"/>
			<point x="462" y="637"/>
			<point x="472" y="658"/>
			<point x="520" y="700" type="curve" smooth="yes"/>
			<point x="1262" y="1357" type="line" smooth="yes"/>
			<point x="1288" y="1380"/>
			<point x="1297" y="1390"/>
			<point x="1234" y="1390" type="curve" smooth="yes"/>
			<point x="1142" y="1390" type="line" smooth="yes"/>
			<point x="1108" y="1390"/>
			<point x="1104" y="1398"/>
			<point x="1104" y="1430" type="curve" smooth="yes"/>
			<point x="1104" y="1466" type="line" smooth="yes"/>
			<point x="1104" y="1493"/>
			<point x="1108" y="1500"/>
			<point x="1134" y="1500" type="curve" smooth="yes"/>
			<point x="1682" y="1500" type="line" smooth="yes"/>
			<point x="1707" y="1500"/>
			<point x="1708" y="1491"/>
			<point x="1708" y="1466" type="curve" smooth="yes"/>
			<point x="1708" y="1428" type="line" smooth="yes"/>
			<point x="1708" y="1400"/>
			<point x="1703" y="1390"/>
			<point x="1673" y="1390" type="curve" smooth="yes"/>
			<point x="1540" y="1390" type="line" smooth="yes"/>
			<point x="1485" y="1390"/>
			<point x="1477" y="1381"/>
			<point x="1450" y="1357" type="curve" smooth="yes"/>
			<point x="892" y="870" type="line" smooth="yes"/>
			<point x="848" y="832"/>
			<point x="838" y="834"/>
			<point x="892" y="804" type="curve" smooth="yes"/>
			<point x="1266" y="592"/>
			<point x="1134" y="110"/>
			<point x="1374" y="110" type="curve" smooth="yes"/>
			<point x="1530" y="110" type="line" smooth="yes"/>
			<point x="1567" y="110"/>
			<point x="1572" y="104"/>
			<point x="1572" y="66" type="curve" smooth="yes"/>
			<point x="1572" y="38" type="line" smooth="yes"/>
			<point x="1572" y="4"/>
			<point x="1564" y="0"/>
			<point x="1532" y="0" type="curve" smooth="yes"/>
			<point x="1322" y="0" type="line" smooth="yes"/>
			<point x="851" y="0"/>
			<point x="1086" y="495"/>
			<point x="787" y="724" type="curve" smooth="yes"/>
			<point x="750" y="752"/>
			<point x="745" y="742"/>
			<point x="712" y="713" type="curve" smooth="yes"/>
			<point x="466" y="499" type="line" smooth="yes"/>
			<point x="435" y="472"/>
			<point x="423" y="460"/>
			<point x="412" y="410" type="curve" smooth="yes"/>
			<point x="353" y="142" type="line" smooth="yes"/>
			<point x="347" y="114"/>
			<point x="352" y="110"/>
			<point x="388" y="110" type="curve" smooth="yes"/>
			<point x="506" y="110" type="line" smooth="yes"/>
			<point x="537" y="110"/>
			<point x="540" y="102"/>
			<point x="540" y="70" type="curve" smooth="yes"/>
			<point x="540" y="30" type="line" smooth="yes"/>
			<point x="540" y="0"/>
			<point x="530" y="0"/>
			<point x="500" y="0" type="curve" smooth="yes"/>
			<point x="-48" y="0" type="line" smooth="yes"/>
			<point x="-77" y="0"/>
			<point x="-80" y="8"/>
		</contour>
	</outline>
</glyph>
<glyph name="L" format="2">
	<advance width="1432" height="0"/>
	<unicode hex="004C"/>
	<anchor x="543" y="1500" name="Anchor-0"/>
	<anchor x="889" y="943" name="Anchor-1"/>
	<anchor x="526" y="0" name="Anchor-2"/>
	<outline>
		<contour>
			<point x="-80" y="32" type="curve" smooth="yes"/>
			<point x="-80" y="84" type="line" smooth="yes"/>
			<point x="-80" y="107"/>
			<point x="-63" y="110"/>
			<point x="-42" y="110" type="curve" smooth="yes"/>
			<point x="118" y="110" type="line" smooth="yes"/>
			<point x="169" y="110"/>
			<point x="170" y="112"/>
			<point x="179" y="154" type="curve" smooth="yes"/>
			<point x="437" y="1357" type="line" smooth="yes"/>
			<point x="443" y="1387"/>
			<point x="441" y="1390"/>
			<point x="406" y="1390" type="curve" smooth="yes"/>
			<point x="238" y="1390" type="line" smooth="yes"/>
			<point x="209" y="1390"/>
			<point x="208" y="1399"/>
			<point x="208" y="1428" type="curve" smooth="yes"/>
			<point x="208" y="1464" type="line" smooth="yes"/>
			<point x="208" y="1491"/>
			<point x="209" y="1500"/>
			<point x="236" y="1500" type="curve" smooth="yes"/>
			<point x="846" y="1500" type="line" smooth="yes"/>
			<point x="873" y="1500"/>
			<point x="880" y="1495"/>
			<point x="880" y="1466" type="curve" smooth="yes"/>
			<point x="880" y="1424" type="line" smooth="yes"/>
			<point x="880" y="1397"/>
			<point x="876" y="1390"/>
			<point x="850" y="1390" type="curve" smooth="yes"/>
			<point x="672" y="1390" type="line" smooth="yes"/>
			<point x="638" y="1390"/>
			<point x="641" y="1383"/>
			<point x="635" y="1356" type="curve" smooth="yes"/>
			<point x="381" y="166" type="line" smooth="yes"/>
			<point x="372" y="122"/>
			<point x="378" y="110"/>
			<point x="436" y="110" type="curve" smooth="yes"/>
			<point x="772" y="110" type="line" smooth="yes"/>
			<point x="1034" y="110"/>
			<point x="1142" y="189"/>
			<point x="1221" y="470" type="curve" smooth="yes"/>
			<point x="1230" y="501"/>
			<point x="1234" y="510"/>
			<point x="1276" y="510" type="curve" smooth="yes"/>
			<point x="1304" y="510" type="line" smooth="yes"/>
			<point x="1325" y="510"/>
			<point x="1330" y="503"/>
			<point x="1326" y="487" type="curve" smooth="yes"/>
			<point x="1222" y="42" type="line" smooth="yes"/>
			<point x="1214" y="9"/>
			<point x="1209" y="0"/>
			<point x="1166" y="0" type="curve" smooth="yes"/>
			<point x="-40" y="0" type="line" smooth="yes"/>
			<point x="-71" y="0"/>
			<point x="-80" y="1"/>
		</contour>
	</outline>
</glyph>
<glyph name="P" format="2">
	<advance width="1374" height="0"/>
	<unicode hex="0050"/>
	<anchor x="835" y="1500" name="Anchor-0"/>
	<anchor x="232" y="0" name="Anchor-1"/>
	<anchor x="232" y="0" name="Anchor-2"/>
	<outline>
		<contour>
			<point x="536" y="770" type="curve" smooth="yes"/>
			<point x="754" y="770" type="line" smooth="yes"/>
			<point x="946" y="770"/>
			<point x="1154" y="902"/>
			<point x="1154" y="1160" type="curve" smooth="yes"/>
			<point x="1154" y="1258"/>
			<point x="1126" y="1390"/>
			<point x="934" y="1390" type="curve" smooth="yes"/>
			<point x="656" y="1390" type="line" smooth="yes"/>
			<point x="620" y="1390"/>
			<point x="620" y="1388"/>
			<point x="614" y="1358" type="curve" smooth="yes"/>
			<point x="498" y="813" type="line" smooth="yes"/>
			<point x="490" y="774"/>
			<point x="489" y="770"/>
		</contour>
		<contour>
			<point x="452" y="610" type="curve" smooth="yes"/>
			<point x="358" y="160" type="line" smooth="yes"/>
			<point x="350" y="120"/>
			<point x="347" y="110"/>
			<point x="400" y="110" type="curve" smooth="yes"/>
			<point x="542" y="110" type="line" smooth="yes"/>
			<point x="573" y="110"/>
			<point x="580" y="105"/>
			<point x="580" y="72" type="curve" smooth="yes"/>
			<point x="580" y="28" type="line" smooth="yes"/>
			<point x="580" y="3"/>
			<point x="568" y="0"/>
			<point x="542" y="0" type="curve" smooth="yes"/>
			<point x="-44" y="0" type="line" smooth="yes"/>
			<point x="-71" y="0"/>
			<point x="-80" y="1"/>
			<point x="-80" y="28" type="curve" smooth="yes"/>
			<point x="-80" y="76" type="line" smooth="yes"/>
			<point x="-80" y="110"/>
			<point x="-70" y="110"/>
			<point x="-36" y="110" type="curve" smooth="yes"/>
			<point x="108" y="110" type="line" smooth="yes"/>
			<point x="157" y="110"/>
			<point x="151" y="124"/>
			<point x="159" y="162" type="curve" smooth="yes"/>
			<point x="414" y="1353" type="line" smooth="yes"/>
			<point x="421" y="1386"/>
			<point x="420" y="1390"/>
			<point x="380" y="1390" type="curve" smooth="yes"/>
			<point x="250" y="1390" type="line" smooth="yes"/>
			<point x="225" y="1390"/>
			<point x="220" y="1397"/>
			<point x="220" y="1420" type="curve" smooth="yes"/>
			<point x="220" y="1466" type="line" smooth="yes"/>
			<point x="220" y="1497"/>
			<point x="231" y="1500"/>
			<point x="260" y="1500" type="curve" smooth="yes"/>
			<point x="934" y="1500" type="line" smooth="yes"/>
			<point x="1296" y="1500"/>
			<point x="1374" y="1340"/>
			<point x="1374" y="1160" type="curve" smooth="yes"/>
			<point x="1374" y="820"/>
			<point x="1116" y="660"/>
			<point x="754" y="660" type="curve" smooth="yes"/>
			<point x="516" y="660" type="line" smooth="yes"/>
			<point x="467" y="660"/>
			<point x="461" y="650"/>
		</contour>
	</outline>
</glyph>
<glyph name="Q" format="2">
	<advance width="1660" height="0"/>
	<unicode hex="0051"/>
	<anchor x="985" y="1500" name="Anchor-0"/>
	<outline>
		<contour>
			<point x="320" y="610" type="curve" smooth="yes"/>
			<point x="320" y="306"/>
			<point x="402" y="80"/>
			<point x="690" y="80" type="curve" smooth="yes"/>
			<point x="1078" y="80"/>
			<point x="1340" y="546"/>
			<point x="1340" y="890" type="curve" smooth="yes"/>
			<point x="1340" y="1194"/>
			<point x="1258" y="1420"/>
			<point x="970" y="1420" type="curve" smooth="yes"/>
			<point x="582" y="1420"/>
			<point x="320" y="954"/>
		</contour>
		<contour>
			<point x="160" y="-328" type="curve" smooth="yes"/>
			<point x="160" y="-158"/>
			<point x="320" y="-54"/>
			<point x="478" y="-54" type="curve" smooth="yes"/>
			<point x="757" y="-54"/>
			<point x="867" y="-408"/>
			<point x="1002" y="-408" type="curve" smooth="yes"/>
			<point x="1066" y="-408"/>
			<point x="1086" y="-372"/>
			<point x="1086" y="-338" type="curve" smooth="yes"/>
			<point x="1086" y="-282"/>
			<point x="1026" y="-282"/>
			<point x="1026" y="-210" type="curve" smooth="yes"/>
			<point x="1026" y="-136"/>
			<point x="1092" y="-94"/>
			<point x="1146" y="-94" type="curve" smooth="yes"/>
			<point x="1220" y="-94"/>
			<point x="1268" y="-148"/>
			<point x="1268" y="-216" type="curve" smooth="yes"/>
			<point x="1268" y="-406"/>
			<point x="1118" y="-500"/>
			<point x="960" y="-500" type="curve" smooth="yes"/>
			<point x="661" y="-500"/>
			<point x="601" y="-146"/>
			<point x="426" y="-146" type="curve" smooth="yes"/>
			<point x="364" y="-146"/>
			<point x="342" y="-178"/>
			<point x="342" y="-212" type="curve" smooth="yes"/>
			<point x="342" y="-262"/>
			<point x="402" y="-272"/>
			<point x="402" y="-344" type="curve" smooth="yes"/>
			<point x="402" y="-418"/>
			<point x="342" y="-460"/>
			<point x="288" y="-460" type="curve" smooth="yes"/>
			<point x="214" y="-460"/>
			<point x="160" y="-404"/>
		</contour>
		<contour>
			<point x="90" y="600" type="curve" smooth="yes"/>
			<point x="90" y="1066"/>
			<point x="484" y="1520"/>
			<point x="970" y="1520" type="curve" smooth="yes"/>
			<point x="1356" y="1520"/>
			<point x="1570" y="1286"/>
			<point x="1570" y="900" type="curve" smooth="yes"/>
			<point x="1570" y="434"/>
			<point x="1176" y="-20"/>
			<point x="690" y="-20" type="curve" smooth="yes"/>
			<point x="304" y="-20"/>
			<point x="90" y="214"/>
		</contour>
	</outline>
</glyph>
<glyph name="R" format="2">
	<advance width="1548" height="0"/>
	<unicode hex="0052"/>
	<anchor x="835" y="1500" name="Anchor-0"/>
	<anchor x="716" y="0" name="Anchor-1"/>
	<anchor x="716" y="0" name="Anchor-2"/>
	<outline>
		<contour>
			<point x="1440" y="143" type="curve" smooth="yes"/>
			<point x="1404" y="46"/>
			<point x="1320" y="-20"/>
			<point x="1198" y="-20" type="curve" smooth="yes"/>
			<point x="1030" y="-20"/>
			<point x="988" y="64"/>
			<point x="988" y="174" type="curve" smooth="yes"/>
			<point x="988" y="274"/>
			<point x="1024" y="396"/>
			<point x="1024" y="496" type="curve" smooth="yes"/>
			<point x="1024" y="606"/>
			<point x="984" y="690"/>
			<point x="818" y="690" type="curve" smooth="yes"/>
			<point x="508" y="690" type="line" smooth="yes"/>
			<point x="477" y="690"/>
			<point x="467" y="682"/>
			<point x="461" y="656" type="curve" smooth="yes"/>
			<point x="355" y="144" type="line" smooth="yes"/>
			<point x="349" y="116"/>
			<point x="352" y="110"/>
			<point x="388" y="110" type="curve" smooth="yes"/>
			<point x="548" y="110" type="line" smooth="yes"/>
			<point x="568" y="110"/>
			<point x="580" y="106"/>
			<point x="580" y="84" type="curve" smooth="yes"/>
			<point x="580" y="40" type="line" smooth="yes"/>
			<point x="580" y="9"/>
			<point x="579" y="0"/>
			<point x="548" y="0" type="curve" smooth="yes"/>
			<point x="-54" y="0" type="line" smooth="yes"/>
			<point x="-74" y="0"/>
			<point x="-80" y="6"/>
			<point x="-80" y="28" type="curve" smooth="yes"/>
			<point x="-80" y="76" type="line" smooth="yes"/>
			<point x="-80" y="104"/>
			<point x="-75" y="110"/>
			<point x="-48" y="110" type="curve" smooth="yes"/>
			<point x="114" y="110" type="line" smooth="yes"/>
			<point x="154" y="110"/>
			<point x="149" y="119"/>
			<point x="156" y="150" type="curve" smooth="yes"/>
			<point x="415" y="1357" type="line" smooth="yes"/>
			<point x="421" y="1386"/>
			<point x="421" y="1390"/>
			<point x="386" y="1390" type="curve" smooth="yes"/>
			<point x="256" y="1390" type="line" smooth="yes"/>
			<point x="223" y="1390"/>
			<point x="220" y="1398"/>
			<point x="220" y="1432" type="curve" smooth="yes"/>
			<point x="220" y="1464" type="line" smooth="yes"/>
			<point x="220" y="1499"/>
			<point x="229" y="1500"/>
			<point x="264" y="1500" type="curve" smooth="yes"/>
			<point x="979" y="1500" type="line" smooth="yes"/>
			<point x="1321" y="1500"/>
			<point x="1418" y="1340"/>
			<point x="1418" y="1160" type="curve" smooth="yes"/>
			<point x="1418" y="983"/>
			<point x="1310" y="832"/>
			<point x="1100" y="765" type="curve" smooth="yes"/>
			<point x="1065" y="754"/>
			<point x="1046" y="755"/>
			<point x="1046" y="747" type="curve" smooth="yes"/>
			<point x="1046" y="738"/>
			<point x="1064" y="740"/>
			<point x="1100" y="725" type="curve" smooth="yes"/>
			<point x="1202" y="682"/>
			<point x="1230" y="604"/>
			<point x="1230" y="512" type="curve" smooth="yes"/>
			<point x="1230" y="400"/>
			<point x="1188" y="262"/>
			<point x="1188" y="188" type="curve" smooth="yes"/>
			<point x="1188" y="144"/>
			<point x="1216" y="108"/>
			<point x="1262" y="108" type="curve" smooth="yes"/>
			<point x="1299" y="108"/>
			<point x="1345" y="129"/>
			<point x="1376" y="179" type="curve" smooth="yes"/>
			<point x="1388" y="198"/>
			<point x="1392" y="200"/>
			<point x="1413" y="188" type="curve" smooth="yes"/>
			<point x="1426" y="180" type="line" smooth="yes"/>
			<point x="1446" y="168"/>
			<point x="1449" y="168"/>
		</contour>
		<contour>
			<point x="548" y="810" type="curve" smooth="yes"/>
			<point x="838" y="810" type="line" smooth="yes"/>
			<point x="990" y="810"/>
			<point x="1218" y="942"/>
			<point x="1218" y="1160" type="curve" smooth="yes"/>
			<point x="1218" y="1298"/>
			<point x="1150" y="1390"/>
			<point x="978" y="1390" type="curve" smooth="yes"/>
			<point x="660" y="1390" type="line" smooth="yes"/>
			<point x="626" y="1390"/>
			<point x="620" y="1383"/>
			<point x="614" y="1354" type="curve" smooth="yes"/>
			<point x="505" y="848" type="line" smooth="yes"/>
			<point x="497" y="812"/>
			<point x="503" y="810"/>
		</contour>
	</outline>
</glyph>
<glyph name="T" format="2">
	<advance width="1478" height="0"/>
	<unicode hex="0054"/>
	<anchor x="924" y="1500" name="Anchor-0"/>
	<anchor x="606" y="0" name="Anchor-1"/>
	<anchor x="606" y="0" name="Anchor-2"/>
	<outline>
		<contour>
			<point x="242" y="35" type="curve" smooth="yes"/>
			<point x="242" y="82" type="line" smooth="yes"/>
			<point x="242" y="102"/>
			<point x="244" y="110"/>
			<point x="263" y="110" type="curve" smooth="yes"/>
			<point x="433" y="110" type="line" smooth="yes"/>
			<point x="478" y="110"/>
			<point x="487" y="115"/>
			<point x="495" y="153" type="curve" smooth="yes"/>
			<point x="754" y="1360" type="line" smooth="yes"/>
			<point x="761" y="1392"/>
			<point x="761" y="1400"/>
			<point x="719" y="1400" type="curve" smooth="yes"/>
			<point x="644" y="1400" type="line" smooth="yes"/>
			<point x="381" y="1400"/>
			<point x="288" y="1312"/>
			<point x="210" y="1028" type="curve" smooth="yes"/>
			<point x="204" y="1006"/>
			<point x="201" y="990"/>
			<point x="170" y="990" type="curve" smooth="yes"/>
			<point x="131" y="990" type="line" smooth="yes"/>
			<point x="99" y="990"/>
			<point x="104" y="1010"/>
			<point x="109" y="1032" type="curve" smooth="yes"/>
			<point x="206" y="1462" type="line" smooth="yes"/>
			<point x="213" y="1492"/>
			<point x="218" y="1500"/>
			<point x="257" y="1500" type="curve" smooth="yes"/>
			<point x="1523" y="1500" type="line" smooth="yes"/>
			<point x="1575" y="1500"/>
			<point x="1576" y="1494"/>
			<point x="1567" y="1454" type="curve" smooth="yes"/>
			<point x="1467" y="1022" type="line" smooth="yes"/>
			<point x="1461" y="994"/>
			<point x="1463" y="990"/>
			<point x="1427" y="990" type="curve" smooth="yes"/>
			<point x="1401" y="990" type="line" smooth="yes"/>
			<point x="1360" y="990"/>
			<point x="1360" y="995"/>
			<point x="1367" y="1029" type="curve" smooth="yes"/>
			<point x="1424" y="1316"/>
			<point x="1388" y="1400"/>
			<point x="1124" y="1400" type="curve" smooth="yes"/>
			<point x="1009" y="1400" type="line" smooth="yes"/>
			<point x="972" y="1400"/>
			<point x="962" y="1394"/>
			<point x="955" y="1362" type="curve" smooth="yes"/>
			<point x="696" y="152" type="line" smooth="yes"/>
			<point x="688" y="117"/>
			<point x="690" y="110"/>
			<point x="735" y="110" type="curve" smooth="yes"/>
			<point x="899" y="110" type="line" smooth="yes"/>
			<point x="930" y="110"/>
			<point x="932" y="102"/>
			<point x="932" y="70" type="curve" smooth="yes"/>
			<point x="932" y="40" type="line" smooth="yes"/>
			<point x="932" y="3"/>
			<point x="922" y="0"/>
			<point x="887" y="0" type="curve" smooth="yes"/>
			<point x="269" y="0" type="line" smooth="yes"/>
			<point x="243" y="0"/>
			<point x="242" y="8"/>
		</contour>
	</outline>
</glyph>
<glyph name="V" format="2">
	<advance width="1690" height="0"/>
	<unicode hex="0056"/>
	<anchor x="1015" y="1500" name="Anchor-0"/>
	<anchor x="682" y="0" name="Anchor-1"/>
	<anchor x="682" y="0" name="Anchor-2"/>
	<outline>
		<contour>
			<point x="602" y="13" type="curve" smooth="yes"/>
			<point x="348" y="1351" type="line" smooth="yes"/>
			<point x="342" y="1382"/>
			<point x="337" y="1390"/>
			<point x="297" y="1390" type="curve" smooth="yes"/>
			<point x="175" y="1390" type="line" smooth="yes"/>
			<point x="144" y="1390"/>
			<point x="140" y="1400"/>
			<point x="140" y="1429" type="curve" smooth="yes"/>
			<point x="140" y="1465" type="line" smooth="yes"/>
			<point x="140" y="1499"/>
			<point x="149" y="1500"/>
			<point x="183" y="1500" type="curve" smooth="yes"/>
			<point x="743" y="1500" type="line" smooth="yes"/>
			<point x="779" y="1500"/>
			<point x="780" y="1491"/>
			<point x="780" y="1455" type="curve" smooth="yes"/>
			<point x="780" y="1425" type="line" smooth="yes"/>
			<point x="780" y="1393"/>
			<point x="772" y="1390"/>
			<point x="739" y="1390" type="curve" smooth="yes"/>
			<point x="595" y="1390" type="line" smooth="yes"/>
			<point x="557" y="1390"/>
			<point x="555" y="1383"/>
			<point x="561" y="1349" type="curve" smooth="yes"/>
			<point x="723" y="369" type="line" smooth="yes"/>
			<point x="739" y="270"/>
			<point x="737" y="232"/>
			<point x="752" y="232" type="curve" smooth="yes"/>
			<point x="771" y="232"/>
			<point x="811" y="291"/>
			<point x="857" y="365" type="curve" smooth="yes"/>
			<point x="1478" y="1354" type="line" smooth="yes"/>
			<point x="1498" y="1387"/>
			<point x="1490" y="1390"/>
			<point x="1443" y="1390" type="curve" smooth="yes"/>
			<point x="1319" y="1390" type="line" smooth="yes"/>
			<point x="1289" y="1390"/>
			<point x="1280" y="1391"/>
			<point x="1280" y="1421" type="curve" smooth="yes"/>
			<point x="1280" y="1473" type="line" smooth="yes"/>
			<point x="1280" y="1499"/>
			<point x="1289" y="1500"/>
			<point x="1315" y="1500" type="curve" smooth="yes"/>
			<point x="1799" y="1500" type="line" smooth="yes"/>
			<point x="1827" y="1500"/>
			<point x="1840" y="1498"/>
			<point x="1840" y="1467" type="curve" smooth="yes"/>
			<point x="1840" y="1433" type="line" smooth="yes"/>
			<point x="1840" y="1398"/>
			<point x="1837" y="1390"/>
			<point x="1803" y="1390" type="curve" smooth="yes"/>
			<point x="1689" y="1390" type="line" smooth="yes"/>
			<point x="1643" y="1390"/>
			<point x="1638" y="1386"/>
			<point x="1621" y="1359" type="curve" smooth="yes"/>
			<point x="766" y="5" type="line" smooth="yes"/>
			<point x="750" y="-20"/>
			<point x="740" y="-30"/>
			<point x="697" y="-30" type="curve" smooth="yes"/>
			<point x="659" y="-30" type="line" smooth="yes"/>
			<point x="615" y="-30"/>
			<point x="609" y="-23"/>
		</contour>
	</outline>
</glyph>
<glyph name="W" format="2">
	<advance width="2338" height="0"/>
	<unicode hex="0057"/>
	<anchor x="1385" y="1500" name="Anchor-0"/>
	<anchor x="1026" y="0" name="Anchor-1"/>
	<anchor x="1026" y="0" name="Anchor-2"/>
	<outline>
		<contour>
			<point x="781" y="398" type="curve" smooth="yes"/>
			<point x="1227" y="1142" type="line" smooth="yes"/>
			<point x="1245" y="1172"/>
			<point x="1252" y="1185"/>
			<point x="1247" y="1232" type="curve" smooth="yes"/>
			<point x="1233" y="1366" type="line" smooth="yes"/>
			<point x="1231" y="1387"/>
			<point x="1223" y="1390"/>
			<point x="1200" y="1390" type="curve" smooth="yes"/>
			<point x="1076" y="1390" type="line" smooth="yes"/>
			<point x="1050" y="1390"/>
			<point x="1042" y="1393"/>
			<point x="1042" y="1418" type="curve" smooth="yes"/>
			<point x="1042" y="1456" type="line" smooth="yes"/>
			<point x="1042" y="1495"/>
			<point x="1048" y="1500"/>
			<point x="1086" y="1500" type="curve" smooth="yes"/>
			<point x="1574" y="1500" type="line" smooth="yes"/>
			<point x="1598" y="1500"/>
			<point x="1602" y="1493"/>
			<point x="1602" y="1468" type="curve" smooth="yes"/>
			<point x="1602" y="1424" type="line" smooth="yes"/>
			<point x="1602" y="1393"/>
			<point x="1594" y="1390"/>
			<point x="1562" y="1390" type="curve" smooth="yes"/>
			<point x="1466" y="1390" type="line" smooth="yes"/>
			<point x="1428" y="1390"/>
			<point x="1428" y="1386"/>
			<point x="1431" y="1351" type="curve" smooth="yes"/>
			<point x="1512" y="466" type="line" smooth="yes"/>
			<point x="1524" y="335"/>
			<point x="1504" y="294"/>
			<point x="1532" y="294" type="curve" smooth="yes"/>
			<point x="1555" y="294"/>
			<point x="1594" y="391"/>
			<point x="1632" y="462" type="curve" smooth="yes"/>
			<point x="2112" y="1354" type="line" smooth="yes"/>
			<point x="2130" y="1388"/>
			<point x="2126" y="1390"/>
			<point x="2072" y="1390" type="curve" smooth="yes"/>
			<point x="1974" y="1390" type="line" smooth="yes"/>
			<point x="1944" y="1390"/>
			<point x="1940" y="1398"/>
			<point x="1940" y="1426" type="curve" smooth="yes"/>
			<point x="1940" y="1478" type="line" smooth="yes"/>
			<point x="1940" y="1500"/>
			<point x="1940" y="1500"/>
			<point x="1962" y="1500" type="curve" smooth="yes"/>
			<point x="2448" y="1500" type="line" smooth="yes"/>
			<point x="2473" y="1500"/>
			<point x="2488" y="1498"/>
			<point x="2488" y="1470" type="curve" smooth="yes"/>
			<point x="2488" y="1426" type="line" smooth="yes"/>
			<point x="2488" y="1400"/>
			<point x="2484" y="1390"/>
			<point x="2456" y="1390" type="curve" smooth="yes"/>
			<point x="2286" y="1390" type="line" smooth="yes"/>
			<point x="2254" y="1390"/>
			<point x="2255" y="1384"/>
			<point x="2244" y="1364" type="curve" smooth="yes"/>
			<point x="1522" y="10" type="line" smooth="yes"/>
			<point x="1512" y="-9"/>
			<point x="1503" y="-20"/>
			<point x="1472" y="-20" type="curve" smooth="yes"/>
			<point x="1416" y="-20" type="line" smooth="yes"/>
			<point x="1381" y="-20"/>
			<point x="1372" y="-18"/>
			<point x="1369" y="14" type="curve" smooth="yes"/>
			<point x="1289" y="812" type="line" smooth="yes"/>
			<point x="1279" y="909"/>
			<point x="1295" y="983"/>
			<point x="1263" y="983" type="curve" smooth="yes"/>
			<point x="1237" y="983"/>
			<point x="1210" y="908"/>
			<point x="1158" y="820" type="curve" smooth="yes"/>
			<point x="674" y="10" type="line" smooth="yes"/>
			<point x="660" y="-13"/>
			<point x="650" y="-20"/>
			<point x="612" y="-20" type="curve" smooth="yes"/>
			<point x="558" y="-20" type="line" smooth="yes"/>
			<point x="527" y="-20"/>
			<point x="530" y="-16"/>
			<point x="526" y="10" type="curve" smooth="yes"/>
			<point x="340" y="1356" type="line" smooth="yes"/>
			<point x="335" y="1389"/>
			<point x="325" y="1390"/>
			<point x="288" y="1390" type="curve" smooth="yes"/>
			<point x="180" y="1390" type="line" smooth="yes"/>
			<point x="144" y="1390"/>
			<point x="140" y="1397"/>
			<point x="140" y="1434" type="curve" smooth="yes"/>
			<point x="140" y="1466" type="line" smooth="yes"/>
			<point x="140" y="1492"/>
			<point x="143" y="1500"/>
			<point x="168" y="1500" type="curve" smooth="yes"/>
			<point x="726" y="1500" type="line" smooth="yes"/>
			<point x="752" y="1500"/>
			<point x="760" y="1496"/>
			<point x="760" y="1468" type="curve" smooth="yes"/>
			<point x="760" y="1435" type="line" smooth="yes"/>
			<point x="760" y="1400"/>
			<point x="759" y="1390"/>
			<point x="724" y="1390" type="curve" smooth="yes"/>
			<point x="574" y="1390" type="line" smooth="yes"/>
			<point x="537" y="1390"/>
			<point x="535" y="1382"/>
			<point x="539" y="1352" type="curve" smooth="yes"/>
			<point x="660" y="406" type="line" smooth="yes"/>
			<point x="671" y="323"/>
			<point x="658" y="262"/>
			<point x="690" y="262" type="curve" smooth="yes"/>
			<point x="715" y="262"/>
			<point x="732" y="316"/>
		</contour>
	</outline>
</glyph>
<glyph name="Y" format="2">
	<advance width="1560" height="0"/>
	<unicode hex="0059"/>
	<anchor x="975" y="1500" name="Anchor-0"/>
	<anchor x="636" y="0" name="Anchor-1"/>
	<anchor x="636" y="0" name="Anchor-2"/>
	<outline>
		<contour>
			<point x="308" y="40" type="curve" smooth="yes"/>
			<point x="308" y="76" type="line" smooth="yes"/>
			<point x="308" y="105"/>
			<point x="315" y="110"/>
			<point x="342" y="110" type="curve" smooth="yes"/>
			<point x="516" y="110" type="line" smooth="yes"/>
			<point x="568" y="110"/>
			<point x="560" y="132"/>
			<point x="569" y="172" type="curve" smooth="yes"/>
			<point x="658" y="558" type="line" smooth="yes"/>
			<point x="671" y="614"/>
			<point x="675" y="638"/>
			<point x="653" y="684" type="curve" smooth="yes"/>
			<point x="333" y="1364" type="line" smooth="yes"/>
			<point x="322" y="1386"/>
			<point x="322" y="1390"/>
			<point x="288" y="1390" type="curve" smooth="yes"/>
			<point x="182" y="1390" type="line" smooth="yes"/>
			<point x="150" y="1390"/>
			<point x="140" y="1393"/>
			<point x="140" y="1428" type="curve" smooth="yes"/>
			<point x="140" y="1468" type="line" smooth="yes"/>
			<point x="140" y="1500"/>
			<point x="150" y="1500"/>
			<point x="182" y="1500" type="curve" smooth="yes"/>
			<point x="724" y="1500" type="line" smooth="yes"/>
			<point x="752" y="1500"/>
			<point x="760" y="1497"/>
			<point x="760" y="1470" type="curve" smooth="yes"/>
			<point x="760" y="1436" type="line" smooth="yes"/>
			<point x="760" y="1397"/>
			<point x="756" y="1390"/>
			<point x="718" y="1390" type="curve" smooth="yes"/>
			<point x="592" y="1390" type="line" smooth="yes"/>
			<point x="550" y="1390"/>
			<point x="550" y="1382"/>
			<point x="564" y="1352" type="curve" smooth="yes"/>
			<point x="790" y="860" type="line" smooth="yes"/>
			<point x="807" y="823"/>
			<point x="807" y="768"/>
			<point x="827" y="768" type="curve" smooth="yes"/>
			<point x="841" y="768"/>
			<point x="865" y="812"/>
			<point x="893" y="846" type="curve" smooth="yes"/>
			<point x="1320" y="1348" type="line" smooth="yes"/>
			<point x="1348" y="1381"/>
			<point x="1335" y="1390"/>
			<point x="1276" y="1390" type="curve" smooth="yes"/>
			<point x="1154" y="1390" type="line" smooth="yes"/>
			<point x="1111" y="1390"/>
			<point x="1110" y="1394"/>
			<point x="1110" y="1437" type="curve" smooth="yes"/>
			<point x="1110" y="1462" type="line" smooth="yes"/>
			<point x="1110" y="1492"/>
			<point x="1113" y="1500"/>
			<point x="1142" y="1500" type="curve" smooth="yes"/>
			<point x="1676" y="1500" type="line" smooth="yes"/>
			<point x="1701" y="1500"/>
			<point x="1710" y="1499"/>
			<point x="1710" y="1474" type="curve" smooth="yes"/>
			<point x="1710" y="1430" type="line" smooth="yes"/>
			<point x="1710" y="1397"/>
			<point x="1706" y="1390"/>
			<point x="1674" y="1390" type="curve" smooth="yes"/>
			<point x="1546" y="1390" type="line" smooth="yes"/>
			<point x="1503" y="1390"/>
			<point x="1501" y="1382"/>
			<point x="1482" y="1360" type="curve" smooth="yes"/>
			<point x="930" y="716" type="line" smooth="yes"/>
			<point x="898" y="678"/>
			<point x="880" y="656"/>
			<point x="866" y="596" type="curve" smooth="yes"/>
			<point x="768" y="166" type="line" smooth="yes"/>
			<point x="758" y="124"/>
			<point x="763" y="110"/>
			<point x="820" y="110" type="curve" smooth="yes"/>
			<point x="952" y="110" type="line" smooth="yes"/>
			<point x="991" y="110"/>
			<point x="998" y="106"/>
			<point x="998" y="68" type="curve" smooth="yes"/>
			<point x="998" y="42" type="line" smooth="yes"/>
			<point x="998" y="3"/>
			<point x="987" y="0"/>
			<point x="950" y="0" type="curve" smooth="yes"/>
			<point x="356" y="0" type="line" smooth="yes"/>
			<point x="317" y="0"/>
			<point x="308" y="1"/>
		</contour>
	</outline>
</glyph>
<glyph name="bracketright" format="2">
	<advance width="650" height="0"/>
	<unicode hex="005D"/>
	<outline>
		<contour>
			<point x="285" y="-300" type="curve" smooth="yes"/>
			<point x="-81" y="-300" type="line" smooth="yes"/>
			<point x="-119" y="-300"/>
			<point x="-120" y="-291"/>
			<point x="-120" y="-252" type="curve" smooth="yes"/>
			<point x="-120" y="-224" type="line" smooth="yes"/>
			<point x="-120" y="-193"/>
			<point x="-108" y="-190"/>
			<point x="-79" y="-190" type="curve" smooth="yes"/>
			<point x="153" y="-190" type="line" smooth="yes"/>
			<point x="202" y="-190"/>
			<point x="206" y="-178"/>
			<point x="214" y="-140" type="curve" smooth="yes"/>
			<point x="542" y="1382" type="line" smooth="yes"/>
			<point x="554" y="1437"/>
			<point x="560" y="1450"/>
			<point x="487" y="1450" type="curve" smooth="yes"/>
			<point x="295" y="1450" type="line" smooth="yes"/>
			<point x="262" y="1450"/>
			<point x="260" y="1458"/>
			<point x="260" y="1492" type="curve" smooth="yes"/>
			<point x="260" y="1522" type="line" smooth="yes"/>
			<point x="260" y="1560"/>
			<point x="278" y="1560"/>
			<point x="313" y="1560" type="curve" smooth="yes"/>
			<point x="699" y="1560" type="line" smooth="yes"/>
			<point x="755" y="1560"/>
			<point x="760" y="1557"/>
			<point x="750" y="1512" type="curve" smooth="yes"/>
			<point x="372" y="-246" type="line" smooth="yes"/>
			<point x="361" y="-298"/>
			<point x="349" y="-300"/>
		</contour>
	</outline>
</glyph>
<glyph name="grave" format="2">
	<advance width="790" height="0"/>
	<unicode hex="0060"/>
	<outline>
		<contour>
			<point x="340" y="1440" type="line" smooth="yes"/>
			<point x="302" y="1441"/>
			<point x="270" y="1472"/>
			<point x="270" y="1510" type="curve" smooth="yes"/>
			<point x="270" y="1548"/>
			<point x="304" y="1589"/>
			<point x="360" y="1576" type="curve" smooth="yes"/>
			<point x="797" y="1470" type="line" smooth="yes"/>
			<point x="822" y="1464"/>
			<point x="838" y="1460"/>
			<point x="835" y="1440" type="curve" smooth="yes"/>
			<point x="833" y="1421"/>
			<point x="826" y="1420"/>
			<point x="801" y="1421" type="curve" smooth="yes"/>
		</contour>
	</outline>
</glyph>
<glyph name="a" format="2">
	<advance width="1225" height="2310"/>
	<unicode hex="0061"/>
	<anchor x="543" y="1040" name="Anchor-0"/>
	<anchor x="385" y="0" name="Anchor-1"/>
	<anchor x="385" y="0" name="Anchor-2"/>
	<anchor x="867" y="20" name="Anchor-3"/>
	<outline>
		<contour>
			<point x="738" y="650" type="curve" smooth="yes"/>
			<point x="738" y="818"/>
			<point x="681" y="956"/>
			<point x="527" y="956" type="curve" smooth="yes"/>
			<point x="348" y="956"/>
			<point x="186" y="638"/>
			<point x="186" y="350" type="curve" smooth="yes"/>
			<point x="186" y="182"/>
			<point x="242" y="84"/>
			<point x="364" y="84" type="curve" smooth="yes"/>
			<point x="575" y="84"/>
			<point x="738" y="422"/>
		</contour>
		<contour>
			<point x="1125" y="304" type="curve" smooth="yes"/>
			<point x="1057" y="134"/>
			<point x="944" y="-20"/>
			<point x="787" y="-20" type="curve" smooth="yes"/>
			<point x="698" y="-20"/>
			<point x="644" y="36"/>
			<point x="644" y="106" type="curve" smooth="yes"/>
			<point x="644" y="135"/>
			<point x="646" y="148"/>
			<point x="649" y="159" type="curve" smooth="yes"/>
			<point x="652" y="173"/>
			<point x="645" y="173"/>
			<point x="635" y="159" type="curve" smooth="yes"/>
			<point x="552" y="44"/>
			<point x="456" y="-20"/>
			<point x="339" y="-20" type="curve" smooth="yes"/>
			<point x="141" y="-20"/>
			<point x="-4" y="90"/>
			<point x="-4" y="370" type="curve" smooth="yes"/>
			<point x="-4" y="770"/>
			<point x="282" y="1058"/>
			<point x="522" y="1058" type="curve" smooth="yes"/>
			<point x="678" y="1058"/>
			<point x="740" y="965"/>
			<point x="775" y="891" type="curve" smooth="yes"/>
			<point x="796" y="846"/>
			<point x="803" y="845"/>
			<point x="813" y="888" type="curve" smooth="yes"/>
			<point x="841" y="1014" type="line" smooth="yes"/>
			<point x="845" y="1032"/>
			<point x="850" y="1040"/>
			<point x="873" y="1040" type="curve" smooth="yes"/>
			<point x="978" y="1040" type="line" smooth="yes"/>
			<point x="1018" y="1040"/>
			<point x="1020" y="1034"/>
			<point x="1012" y="1002" type="curve" smooth="yes"/>
			<point x="813" y="168" type="line" smooth="yes"/>
			<point x="810" y="157"/>
			<point x="809" y="142"/>
			<point x="809" y="132" type="curve" smooth="yes"/>
			<point x="809" y="110"/>
			<point x="828" y="94"/>
			<point x="853" y="94" type="curve" smooth="yes"/>
			<point x="917" y="94"/>
			<point x="997" y="211"/>
			<point x="1055" y="334" type="curve" smooth="yes"/>
			<point x="1063" y="351"/>
			<point x="1062" y="358"/>
			<point x="1080" y="349" type="curve" smooth="yes"/>
			<point x="1114" y="332" type="line" smooth="yes"/>
			<point x="1131" y="323"/>
			<point x="1132" y="321"/>
		</contour>
	</outline>
</glyph>
<glyph name="b" format="2">
	<advance width="1215" height="2310"/>
	<unicode hex="0062"/>
	<anchor x="793" y="1040" name="Anchor-0"/>
	<anchor x="435" y="0" name="Anchor-1"/>
	<anchor x="435" y="0" name="Anchor-2"/>
	<outline>
		<contour>
			<point x="240" y="240" type="curve" smooth="yes"/>
			<point x="251" y="151"/>
			<point x="304" y="84"/>
			<point x="406" y="84" type="curve" smooth="yes"/>
			<point x="642" y="84"/>
			<point x="851" y="402"/>
			<point x="851" y="670" type="curve" smooth="yes"/>
			<point x="851" y="838"/>
			<point x="797" y="936"/>
			<point x="666" y="936" type="curve" smooth="yes"/>
			<point x="539" y="936"/>
			<point x="354" y="789"/>
			<point x="300" y="552" type="curve" smooth="yes"/>
			<point x="244" y="304" type="line" smooth="yes"/>
			<point x="239" y="284"/>
			<point x="237" y="263"/>
		</contour>
		<contour>
			<point x="62" y="292" type="curve" smooth="yes"/>
			<point x="319" y="1416" type="line" smooth="yes"/>
			<point x="327" y="1449"/>
			<point x="329" y="1450"/>
			<point x="288" y="1450" type="curve" smooth="yes"/>
			<point x="202" y="1450" type="line" smooth="yes"/>
			<point x="174" y="1450"/>
			<point x="172" y="1467"/>
			<point x="172" y="1492" type="curve" smooth="yes"/>
			<point x="172" y="1528" type="line" smooth="yes"/>
			<point x="172" y="1552"/>
			<point x="175" y="1560"/>
			<point x="198" y="1560" type="curve" smooth="yes"/>
			<point x="494" y="1560" type="line" smooth="yes"/>
			<point x="527" y="1560"/>
			<point x="531" y="1556"/>
			<point x="525" y="1530" type="curve" smooth="yes"/>
			<point x="381" y="902" type="line" smooth="yes"/>
			<point x="369" y="851"/>
			<point x="373" y="844"/>
			<point x="411" y="888" type="curve" smooth="yes"/>
			<point x="502" y="996"/>
			<point x="612" y="1058"/>
			<point x="727" y="1058" type="curve" smooth="yes"/>
			<point x="906" y="1058"/>
			<point x="1051" y="940"/>
			<point x="1051" y="660" type="curve" smooth="yes"/>
			<point x="1051" y="280"/>
			<point x="725" y="-20"/>
			<point x="401" y="-20" type="curve" smooth="yes"/>
			<point x="210" y="-20"/>
			<point x="127" y="74"/>
			<point x="68" y="199" type="curve" smooth="yes"/>
			<point x="52" y="233"/>
			<point x="53" y="250"/>
		</contour>
	</outline>
</glyph>
<glyph name="c" format="2">
	<advance width="977" height="2310"/>
	<unicode hex="0063"/>
	<anchor x="572" y="1040" name="Anchor-0"/>
	<anchor x="409" y="0" name="Anchor-1"/>
	<anchor x="409" y="0" name="Anchor-2"/>
	<outline>
		<contour>
			<point x="854" y="814" type="curve" smooth="yes"/>
			<point x="854" y="698"/>
			<point x="786" y="660"/>
			<point x="718" y="660" type="curve" smooth="yes"/>
			<point x="663" y="660"/>
			<point x="604" y="692"/>
			<point x="604" y="766" type="curve" smooth="yes"/>
			<point x="604" y="868"/>
			<point x="694" y="868"/>
			<point x="695" y="914" type="curve" smooth="yes"/>
			<point x="695" y="938"/>
			<point x="652" y="976"/>
			<point x="578" y="976" type="curve" smooth="yes"/>
			<point x="390" y="976"/>
			<point x="200" y="668"/>
			<point x="200" y="360" type="curve" smooth="yes"/>
			<point x="200" y="192"/>
			<point x="274" y="78"/>
			<point x="396" y="78" type="curve" smooth="yes"/>
			<point x="544" y="78"/>
			<point x="670" y="208"/>
			<point x="744" y="323" type="curve" smooth="yes"/>
			<point x="755" y="340"/>
			<point x="759" y="346"/>
			<point x="789" y="346" type="curve" smooth="yes"/>
			<point x="810" y="346" type="line" smooth="yes"/>
			<point x="850" y="346"/>
			<point x="863" y="340"/>
			<point x="849" y="314" type="curve" smooth="yes"/>
			<point x="761" y="148"/>
			<point x="583" y="-20"/>
			<point x="363" y="-20" type="curve" smooth="yes"/>
			<point x="152" y="-20"/>
			<point x="-4" y="150"/>
			<point x="-4" y="410" type="curve" smooth="yes"/>
			<point x="-4" y="770"/>
			<point x="288" y="1060"/>
			<point x="560" y="1060" type="curve" smooth="yes"/>
			<point x="773" y="1060"/>
			<point x="854" y="928"/>
		</contour>
	</outline>
</glyph>
<glyph name="d" format="2">
	<advance width="1308" height="2310"/>
	<unicode hex="0064"/>
	<anchor x="551" y="1040" name="Anchor-0"/>
	<anchor x="1310" y="1040" name="Anchor-1"/>
	<anchor x="532" y="0" name="Anchor-2"/>
	<outline>
		<contour>
			<point x="766" y="640" type="curve" smooth="yes"/>
			<point x="766" y="808"/>
			<point x="737" y="956"/>
			<point x="564" y="956" type="curve" smooth="yes"/>
			<point x="376" y="956"/>
			<point x="196" y="658"/>
			<point x="196" y="370" type="curve" smooth="yes"/>
			<point x="196" y="202"/>
			<point x="280" y="84"/>
			<point x="402" y="84" type="curve" smooth="yes"/>
			<point x="603" y="84"/>
			<point x="766" y="412"/>
		</contour>
		<contour>
			<point x="1197" y="303" type="curve" smooth="yes"/>
			<point x="1109" y="115"/>
			<point x="979" y="-20"/>
			<point x="825" y="-20" type="curve" smooth="yes"/>
			<point x="736" y="-20"/>
			<point x="688" y="26"/>
			<point x="688" y="116" type="curve" smooth="yes"/>
			<point x="688" y="138"/>
			<point x="692" y="156"/>
			<point x="696" y="170" type="curve" smooth="yes"/>
			<point x="708" y="211"/>
			<point x="701" y="213"/>
			<point x="677" y="179" type="curve" smooth="yes"/>
			<point x="590" y="57"/>
			<point x="501" y="-20"/>
			<point x="348" y="-20" type="curve" smooth="yes"/>
			<point x="179" y="-20"/>
			<point x="-4" y="110"/>
			<point x="-4" y="390" type="curve" smooth="yes"/>
			<point x="-4" y="790"/>
			<point x="311" y="1058"/>
			<point x="550" y="1058" type="curve" smooth="yes"/>
			<point x="688" y="1058"/>
			<point x="768" y="983"/>
			<point x="806" y="893" type="curve" smooth="yes"/>
			<point x="822" y="856"/>
			<point x="824" y="857"/>
			<point x="832" y="891" type="curve" smooth="yes"/>
			<point x="948" y="1407" type="line" smooth="yes"/>
			<point x="953" y="1430"/>
			<point x="958" y="1450"/>
			<point x="926" y="1450" type="curve" smooth="yes"/>
			<point x="817" y="1450" type="line" smooth="yes"/>
			<point x="797" y="1450"/>
			<point x="795" y="1458"/>
			<point x="795" y="1480" type="curve" smooth="yes"/>
			<point x="795" y="1524" type="line" smooth="yes"/>
			<point x="795" y="1550"/>
			<point x="796" y="1560"/>
			<point x="821" y="1560" type="curve" smooth="yes"/>
			<point x="1108" y="1560" type="line" smooth="yes"/>
			<point x="1149" y="1560"/>
			<point x="1157" y="1559"/>
			<point x="1149" y="1524" type="curve" smooth="yes"/>
			<point x="841" y="194" type="line" smooth="yes"/>
			<point x="838" y="183"/>
			<point x="835" y="164"/>
			<point x="835" y="148" type="curve" smooth="yes"/>
			<point x="835" y="116"/>
			<point x="849" y="95"/>
			<point x="882" y="95" type="curve" smooth="yes"/>
			<point x="956" y="95"/>
			<point x="1064" y="211"/>
			<point x="1123" y="338" type="curve" smooth="yes"/>
			<point x="1129" y="351"/>
			<point x="1135" y="360"/>
			<point x="1149" y="353" type="curve" smooth="yes"/>
			<point x="1189" y="332" type="line" smooth="yes"/>
			<point x="1203" y="325"/>
			<point x="1206" y="323"/>
		</contour>
	</outline>
</glyph>
<glyph name="e" format="2">
	<advance width="981" height="2310"/>
	<unicode hex="0065"/>
	<anchor x="556" y="1040" name="Anchor-0"/>
	<anchor x="357" y="0" name="Anchor-1"/>
	<anchor x="357" y="0" name="Anchor-2"/>
	<anchor x="610" y="102" name="Anchor-3"/>
	<outline>
		<contour>
			<point x="-23" y="400" type="curve" smooth="yes"/>
			<point x="-23" y="770"/>
			<point x="279" y="1060"/>
			<point x="570" y="1060" type="curve" smooth="yes"/>
			<point x="726" y="1060"/>
			<point x="835" y="978"/>
			<point x="835" y="814" type="curve" smooth="yes"/>
			<point x="835" y="580"/>
			<point x="465" y="435"/>
			<point x="219" y="397" type="curve" smooth="yes"/>
			<point x="173" y="390"/>
			<point x="161" y="374"/>
			<point x="161" y="310" type="curve" smooth="yes"/>
			<point x="161" y="162"/>
			<point x="247" y="78"/>
			<point x="378" y="78" type="curve" smooth="yes"/>
			<point x="528" y="78"/>
			<point x="646" y="192"/>
			<point x="718" y="288" type="curve" smooth="yes"/>
			<point x="730" y="304"/>
			<point x="736" y="306"/>
			<point x="765" y="306" type="curve" smooth="yes"/>
			<point x="794" y="306" type="line" smooth="yes"/>
			<point x="832" y="306"/>
			<point x="838" y="302"/>
			<point x="820" y="272" type="curve" smooth="yes"/>
			<point x="733" y="128"/>
			<point x="571" y="-20"/>
			<point x="373" y="-20" type="curve" smooth="yes"/>
			<point x="162" y="-20"/>
			<point x="-23" y="80"/>
		</contour>
		<contour>
			<point x="226" y="488" type="curve" smooth="yes"/>
			<point x="418" y="533"/>
			<point x="647" y="636"/>
			<point x="647" y="814" type="curve" smooth="yes"/>
			<point x="647" y="908"/>
			<point x="605" y="966"/>
			<point x="521" y="966" type="curve" smooth="yes"/>
			<point x="378" y="966"/>
			<point x="232" y="773"/>
			<point x="191" y="556" type="curve" smooth="yes"/>
			<point x="181" y="502"/>
			<point x="175" y="477"/>
		</contour>
	</outline>
</glyph>
<glyph name="f" format="2">
	<advance width="734" height="2310"/>
	<unicode hex="0066"/>
	<anchor x="889" y="1692" name="Anchor-0"/>
	<anchor x="151" y="0" name="Anchor-1"/>
	<anchor x="151" y="0" name="Anchor-2"/>
	<outline>
		<contour>
			<point x="-5" y="-266" type="curve" smooth="yes"/>
			<point x="229" y="900" type="line" smooth="yes"/>
			<point x="235" y="929"/>
			<point x="227" y="930"/>
			<point x="192" y="930" type="curve" smooth="yes"/>
			<point x="112" y="930" type="line" smooth="yes"/>
			<point x="86" y="930"/>
			<point x="78" y="933"/>
			<point x="78" y="958" type="curve" smooth="yes"/>
			<point x="78" y="1004" type="line" smooth="yes"/>
			<point x="78" y="1036"/>
			<point x="86" y="1040"/>
			<point x="116" y="1040" type="curve" smooth="yes"/>
			<point x="234" y="1040" type="line" smooth="yes"/>
			<point x="258" y="1040"/>
			<point x="257" y="1042"/>
			<point x="261" y="1062" type="curve" smooth="yes"/>
			<point x="278" y="1144" type="line" smooth="yes"/>
			<point x="331" y="1407"/>
			<point x="472" y="1580"/>
			<point x="696" y="1580" type="curve" smooth="yes"/>
			<point x="873" y="1580"/>
			<point x="988" y="1472"/>
			<point x="988" y="1358" type="curve" smooth="yes"/>
			<point x="988" y="1272"/>
			<point x="940" y="1226"/>
			<point x="870" y="1226" type="curve" smooth="yes"/>
			<point x="800" y="1226"/>
			<point x="754" y="1266"/>
			<point x="754" y="1322" type="curve" smooth="yes"/>
			<point x="754" y="1382"/>
			<point x="796" y="1396"/>
			<point x="796" y="1436" type="curve" smooth="yes"/>
			<point x="796" y="1460"/>
			<point x="770" y="1490"/>
			<point x="699" y="1490" type="curve" smooth="yes"/>
			<point x="575" y="1490"/>
			<point x="509" y="1356"/>
			<point x="458" y="1100" type="curve" smooth="yes"/>
			<point x="450" y="1062" type="line" smooth="yes"/>
			<point x="447" y="1046"/>
			<point x="451" y="1040"/>
			<point x="471" y="1040" type="curve" smooth="yes"/>
			<point x="678" y="1040" type="line" smooth="yes"/>
			<point x="701" y="1040"/>
			<point x="708" y="1035"/>
			<point x="708" y="1010" type="curve" smooth="yes"/>
			<point x="708" y="962" type="line" smooth="yes"/>
			<point x="708" y="936"/>
			<point x="703" y="930"/>
			<point x="678" y="930" type="curve" smooth="yes"/>
			<point x="447" y="930" type="line" smooth="yes"/>
			<point x="424" y="930"/>
			<point x="423" y="930"/>
			<point x="419" y="910" type="curve" smooth="yes"/>
			<point x="174" y="-272" type="line" smooth="yes"/>
			<point x="169" y="-296"/>
			<point x="160" y="-300"/>
			<point x="130" y="-300" type="curve" smooth="yes"/>
			<point x="24" y="-300" type="line" smooth="yes"/>
			<point x="-9" y="-300"/>
			<point x="-10" y="-291"/>
		</contour>
	</outline>
</glyph>
<glyph name="g" format="2">
	<advance width="1109" height="2310"/>
	<unicode hex="0067"/>
	<anchor x="673" y="1040" name="Anchor-0"/>
	<anchor x="316" y="-565" name="Anchor-1"/>
	<anchor x="316" y="-565" name="Anchor-2"/>
	<outline>
		<contour>
			<point x="-155" y="-260" type="curve" smooth="yes"/>
			<point x="-155" y="-139"/>
			<point x="-47" y="-80"/>
			<point x="45" y="-22" type="curve" smooth="yes"/>
			<point x="109" y="19"/>
			<point x="83" y="-4"/>
			<point x="45" y="43" type="curve" smooth="yes"/>
			<point x="28" y="64"/>
			<point x="19" y="91"/>
			<point x="19" y="128" type="curve" smooth="yes"/>
			<point x="19" y="218"/>
			<point x="87" y="298"/>
			<point x="191" y="346" type="curve" smooth="yes"/>
			<point x="238" y="368"/>
			<point x="232" y="360"/>
			<point x="194" y="389" type="curve" smooth="yes"/>
			<point x="136" y="434"/>
			<point x="105" y="541"/>
			<point x="105" y="630" type="curve" smooth="yes"/>
			<point x="105" y="870"/>
			<point x="321" y="1060"/>
			<point x="573" y="1060" type="curve" smooth="yes"/>
			<point x="617" y="1060"/>
			<point x="683" y="1050"/>
			<point x="717" y="1032" type="curve" smooth="yes"/>
			<point x="732" y="1024"/>
			<point x="734" y="1028"/>
			<point x="740" y="1043" type="curve" smooth="yes"/>
			<point x="790" y="1167"/>
			<point x="850" y="1254"/>
			<point x="957" y="1254" type="curve" smooth="yes"/>
			<point x="1038" y="1254"/>
			<point x="1105" y="1196"/>
			<point x="1105" y="1112" type="curve" smooth="yes"/>
			<point x="1105" y="1044"/>
			<point x="1059" y="1002"/>
			<point x="999" y="1002" type="curve" smooth="yes"/>
			<point x="943" y="1002"/>
			<point x="903" y="1040"/>
			<point x="904" y="1090" type="curve" smooth="yes"/>
			<point x="904" y="1126"/>
			<point x="912" y="1146"/>
			<point x="899" y="1146" type="curve" smooth="yes"/>
			<point x="867" y="1146"/>
			<point x="830" y="1099"/>
			<point x="798" y="1015" type="curve" smooth="yes"/>
			<point x="791" y="998"/>
			<point x="796" y="1001"/>
			<point x="808" y="991" type="curve" smooth="yes"/>
			<point x="877" y="937"/>
			<point x="913" y="854"/>
			<point x="913" y="750" type="curve" smooth="yes"/>
			<point x="913" y="510"/>
			<point x="690" y="320"/>
			<point x="441" y="320" type="curve" smooth="yes"/>
			<point x="412" y="320"/>
			<point x="384" y="321"/>
			<point x="358" y="325" type="curve" smooth="yes"/>
			<point x="319" y="330"/>
			<point x="306" y="330"/>
			<point x="275" y="313" type="curve" smooth="yes"/>
			<point x="221" y="283"/>
			<point x="175" y="239"/>
			<point x="175" y="192" type="curve" smooth="yes"/>
			<point x="175" y="138"/>
			<point x="255" y="138"/>
			<point x="359" y="138" type="curve" smooth="yes"/>
			<point x="407" y="138"/>
			<point x="527" y="140"/>
			<point x="580" y="140" type="curve" smooth="yes"/>
			<point x="773" y="140"/>
			<point x="897" y="68"/>
			<point x="897" y="-104" type="curve" smooth="yes"/>
			<point x="897" y="-316"/>
			<point x="596" y="-490"/>
			<point x="272" y="-490" type="curve" smooth="yes"/>
			<point x="76" y="-490"/>
			<point x="-155" y="-430"/>
		</contour>
		<contour>
			<point x="147" y="-42" type="curve" smooth="yes"/>
			<point x="74" y="-121"/>
			<point x="35" y="-177"/>
			<point x="35" y="-234" type="curve" smooth="yes"/>
			<point x="35" y="-326"/>
			<point x="132" y="-380"/>
			<point x="295" y="-380" type="curve" smooth="yes"/>
			<point x="512" y="-380"/>
			<point x="715" y="-294"/>
			<point x="715" y="-134" type="curve" smooth="yes"/>
			<point x="715" y="-46"/>
			<point x="668" y="-18"/>
			<point x="544" y="-18" type="curve" smooth="yes"/>
			<point x="504" y="-18"/>
			<point x="369" y="-18"/>
			<point x="327" y="-18" type="curve" smooth="yes"/>
			<point x="294" y="-18"/>
			<point x="261" y="-18"/>
			<point x="232" y="-17" type="curve" smooth="yes"/>
			<point x="183" y="-15"/>
			<point x="172" y="-14"/>
		</contour>
		<contour>
			<point x="295" y="610" type="curve" smooth="yes"/>
			<point x="295" y="522"/>
			<point x="311" y="400"/>
			<point x="442" y="400" type="curve" smooth="yes"/>
			<point x="611" y="400"/>
			<point x="730" y="562"/>
			<point x="730" y="770" type="curve" smooth="yes"/>
			<point x="730" y="838"/>
			<point x="703" y="980"/>
			<point x="572" y="980" type="curve" smooth="yes"/>
			<point x="403" y="980"/>
			<point x="295" y="818"/>
		</contour>
	</outline>
</glyph>
<glyph name="h" format="2">
	<advance width="1281" height="2310"/>
	<unicode hex="0068"/>
	<anchor x="858" y="1035" name="Anchor-0"/>
	<anchor x="509" y="0" name="Anchor-1"/>
	<anchor x="509" y="0" name="Anchor-2"/>
	<outline>
		<contour>
			<point x="1168" y="278" type="curve" smooth="yes"/>
			<point x="1060" y="94"/>
			<point x="933" y="-20"/>
			<point x="798" y="-20" type="curve" smooth="yes"/>
			<point x="704" y="-20"/>
			<point x="636" y="26"/>
			<point x="636" y="126" type="curve" smooth="yes"/>
			<point x="636" y="136"/>
			<point x="639" y="167"/>
			<point x="644" y="184" type="curve" smooth="yes"/>
			<point x="772" y="660" type="line" smooth="yes"/>
			<point x="818" y="829"/>
			<point x="832" y="952"/>
			<point x="710" y="952" type="curve" smooth="yes"/>
			<point x="581" y="952"/>
			<point x="357" y="729"/>
			<point x="300" y="481" type="curve" smooth="yes"/>
			<point x="196" y="31" type="line" smooth="yes"/>
			<point x="190" y="3"/>
			<point x="191" y="0"/>
			<point x="155" y="0" type="curve" smooth="yes"/>
			<point x="57" y="0" type="line" smooth="yes"/>
			<point x="11" y="0"/>
			<point x="11" y="11"/>
			<point x="19" y="45" type="curve" smooth="yes"/>
			<point x="335" y="1411" type="line" smooth="yes"/>
			<point x="343" y="1446"/>
			<point x="339" y="1450"/>
			<point x="293" y="1450" type="curve" smooth="yes"/>
			<point x="217" y="1450" type="line" smooth="yes"/>
			<point x="184" y="1450"/>
			<point x="179" y="1456"/>
			<point x="179" y="1491" type="curve" smooth="yes"/>
			<point x="179" y="1523" type="line" smooth="yes"/>
			<point x="179" y="1552"/>
			<point x="181" y="1560"/>
			<point x="209" y="1560" type="curve" smooth="yes"/>
			<point x="497" y="1560" type="line" smooth="yes"/>
			<point x="537" y="1560"/>
			<point x="545" y="1552"/>
			<point x="537" y="1519" type="curve" smooth="yes"/>
			<point x="385" y="851" type="line" smooth="yes"/>
			<point x="375" y="808"/>
			<point x="382" y="795"/>
			<point x="412" y="836" type="curve" smooth="yes"/>
			<point x="516" y="978"/>
			<point x="646" y="1058"/>
			<point x="774" y="1058" type="curve" smooth="yes"/>
			<point x="948" y="1058"/>
			<point x="1027" y="961"/>
			<point x="952" y="682" type="curve" smooth="yes"/>
			<point x="820" y="192" type="line" smooth="yes"/>
			<point x="815" y="173"/>
			<point x="812" y="152"/>
			<point x="812" y="142" type="curve" smooth="yes"/>
			<point x="812" y="120"/>
			<point x="832" y="104"/>
			<point x="858" y="104" type="curve" smooth="yes"/>
			<point x="931" y="104"/>
			<point x="1026" y="202"/>
			<point x="1095" y="321" type="curve" smooth="yes"/>
			<point x="1110" y="347"/>
			<point x="1114" y="354"/>
			<point x="1137" y="335" type="curve" smooth="yes"/>
			<point x="1166" y="313" type="line" smooth="yes"/>
			<point x="1184" y="299"/>
			<point x="1178" y="296"/>
		</contour>
	</outline>
</glyph>
<glyph name="i" format="2">
	<advance width="690" height="2310"/>
	<unicode hex="0069"/>
	<anchor x="177" y="0" name="Anchor-1"/>
	<anchor x="177" y="0" name="Anchor-2"/>
	<anchor x="190" y="12" name="Anchor-3"/>
	<outline>
		<contour>
			<point x="436" y="990" type="curve" smooth="yes"/>
			<point x="230" y="178" type="line" smooth="yes"/>
			<point x="227" y="167"/>
			<point x="226" y="152"/>
			<point x="226" y="142" type="curve" smooth="yes"/>
			<point x="226" y="120"/>
			<point x="235" y="94"/>
			<point x="269" y="94" type="curve" smooth="yes"/>
			<point x="328" y="94"/>
			<point x="438" y="207"/>
			<point x="505" y="327" type="curve" smooth="yes"/>
			<point x="516" y="346"/>
			<point x="527" y="359"/>
			<point x="548" y="346" type="curve" smooth="yes"/>
			<point x="571" y="332" type="line" smooth="yes"/>
			<point x="588" y="322"/>
			<point x="594" y="318"/>
			<point x="581" y="294" type="curve" smooth="yes"/>
			<point x="481" y="110"/>
			<point x="349" y="-20"/>
			<point x="202" y="-20" type="curve" smooth="yes"/>
			<point x="109" y="-20"/>
			<point x="40" y="26"/>
			<point x="40" y="126" type="curve" smooth="yes"/>
			<point x="40" y="136"/>
			<point x="41" y="158"/>
			<point x="44" y="170" type="curve" smooth="yes"/>
			<point x="225" y="896" type="line" smooth="yes"/>
			<point x="232" y="925"/>
			<point x="226" y="930"/>
			<point x="193" y="930" type="curve" smooth="yes"/>
			<point x="81" y="930" type="line" smooth="yes"/>
			<point x="47" y="930"/>
			<point x="41" y="935"/>
			<point x="41" y="968" type="curve" smooth="yes"/>
			<point x="41" y="1008" type="line" smooth="yes"/>
			<point x="41" y="1036"/>
			<point x="51" y="1040"/>
			<point x="77" y="1040" type="curve" smooth="yes"/>
			<point x="393" y="1040" type="line" smooth="yes"/>
			<point x="445" y="1040"/>
			<point x="447" y="1035"/>
		</contour>
		<contour>
			<point x="287" y="1400" type="curve" smooth="yes"/>
			<point x="287" y="1466"/>
			<point x="341" y="1520"/>
			<point x="407" y="1520" type="curve" smooth="yes"/>
			<point x="473" y="1520"/>
			<point x="528" y="1466"/>
			<point x="527" y="1400" type="curve" smooth="yes"/>
			<point x="526" y="1334"/>
			<point x="473" y="1280"/>
			<point x="407" y="1280" type="curve" smooth="yes"/>
			<point x="341" y="1280"/>
			<point x="287" y="1334"/>
		</contour>
	</outline>
</glyph>
<glyph name="j" format="2">
	<advance width="690" height="2310"/>
	<unicode hex="006A"/>
	<anchor x="-98" y="-565" name="Anchor-1"/>
	<anchor x="-98" y="-565" name="Anchor-2"/>
	<outline>
		<contour>
			<point x="550" y="991" type="curve" smooth="yes"/>
			<point x="341" y="22" type="line" smooth="yes"/>
			<point x="275" y="-281"/>
			<point x="179" y="-520"/>
			<point x="-103" y="-520" type="curve" smooth="yes"/>
			<point x="-281" y="-520"/>
			<point x="-345" y="-410"/>
			<point x="-345" y="-286" type="curve" smooth="yes"/>
			<point x="-345" y="-210"/>
			<point x="-287" y="-138"/>
			<point x="-207" y="-138" type="curve" smooth="yes"/>
			<point x="-139" y="-138"/>
			<point x="-91" y="-184"/>
			<point x="-91" y="-250" type="curve" smooth="yes"/>
			<point x="-91" y="-320"/>
			<point x="-149" y="-334"/>
			<point x="-149" y="-374" type="curve" smooth="yes"/>
			<point x="-149" y="-400"/>
			<point x="-137" y="-432"/>
			<point x="-83" y="-432" type="curve" smooth="yes"/>
			<point x="99" y="-432"/>
			<point x="151" y="-22"/>
			<point x="201" y="208" type="curve" smooth="yes"/>
			<point x="348" y="887" type="line" smooth="yes"/>
			<point x="357" y="927"/>
			<point x="351" y="930"/>
			<point x="301" y="930" type="curve" smooth="yes"/>
			<point x="179" y="930" type="line" smooth="yes"/>
			<point x="154" y="930"/>
			<point x="151" y="937"/>
			<point x="151" y="963" type="curve" smooth="yes"/>
			<point x="151" y="1001" type="line" smooth="yes"/>
			<point x="151" y="1032"/>
			<point x="154" y="1040"/>
			<point x="184" y="1040" type="curve" smooth="yes"/>
			<point x="505" y="1040" type="line" smooth="yes"/>
			<point x="559" y="1040"/>
			<point x="559" y="1033"/>
		</contour>
		<contour>
			<point x="415" y="1400" type="curve" smooth="yes"/>
			<point x="415" y="1466"/>
			<point x="469" y="1520"/>
			<point x="535" y="1520" type="curve" smooth="yes"/>
			<point x="601" y="1520"/>
			<point x="655" y="1466"/>
			<point x="655" y="1400" type="curve" smooth="yes"/>
			<point x="655" y="1334"/>
			<point x="601" y="1280"/>
			<point x="535" y="1280" type="curve" smooth="yes"/>
			<point x="469" y="1280"/>
			<point x="415" y="1334"/>
		</contour>
	</outline>
</glyph>
<glyph name="k" format="2">
	<advance width="1214" height="2310"/>
	<unicode hex="006B"/>
	<anchor x="961" y="1040" name="Anchor-0"/>
	<anchor x="489" y="0" name="Anchor-1"/>
	<anchor x="489" y="0" name="Anchor-2"/>
	<outline>
		<contour>
			<point x="1065" y="281" type="curve" smooth="yes"/>
			<point x="954" y="63"/>
			<point x="843" y="-20"/>
			<point x="730" y="-20" type="curve" smooth="yes"/>
			<point x="635" y="-20"/>
			<point x="575" y="39"/>
			<point x="586" y="170" type="curve" smooth="yes"/>
			<point x="595" y="280" type="line" smooth="yes"/>
			<point x="604" y="393"/>
			<point x="618" y="467"/>
			<point x="581" y="524" type="curve" smooth="yes"/>
			<point x="558" y="560"/>
			<point x="547" y="546"/>
			<point x="508" y="535" type="curve" smooth="yes"/>
			<point x="477" y="526"/>
			<point x="450" y="524"/>
			<point x="427" y="524" type="curve" smooth="yes"/>
			<point x="394" y="524"/>
			<point x="365" y="528"/>
			<point x="342" y="535" type="curve" smooth="yes"/>
			<point x="315" y="543"/>
			<point x="316" y="550"/>
			<point x="309" y="518" type="curve" smooth="yes"/>
			<point x="194" y="21" type="line" smooth="yes"/>
			<point x="190" y="3"/>
			<point x="191" y="0"/>
			<point x="168" y="0" type="curve" smooth="yes"/>
			<point x="39" y="0" type="line" smooth="yes"/>
			<point x="1" y="0"/>
			<point x="11" y="9"/>
			<point x="18" y="37" type="curve" smooth="yes"/>
			<point x="336" y="1419" type="line" smooth="yes"/>
			<point x="342" y="1445"/>
			<point x="343" y="1450"/>
			<point x="311" y="1450" type="curve" smooth="yes"/>
			<point x="211" y="1450" type="line" smooth="yes"/>
			<point x="190" y="1450"/>
			<point x="189" y="1459"/>
			<point x="189" y="1481" type="curve" smooth="yes"/>
			<point x="189" y="1532" type="line" smooth="yes"/>
			<point x="189" y="1551"/>
			<point x="190" y="1560"/>
			<point x="209" y="1560" type="curve" smooth="yes"/>
			<point x="522" y="1560" type="line" smooth="yes"/>
			<point x="547" y="1560"/>
			<point x="546" y="1547"/>
			<point x="542" y="1530" type="curve" smooth="yes"/>
			<point x="343" y="665" type="line" smooth="yes"/>
			<point x="333" y="620"/>
			<point x="338" y="633"/>
			<point x="367" y="649" type="curve" smooth="yes"/>
			<point x="410" y="672"/>
			<point x="451" y="678"/>
			<point x="474" y="678" type="curve" smooth="yes"/>
			<point x="493" y="678"/>
			<point x="513" y="676"/>
			<point x="533" y="671" type="curve" smooth="yes"/>
			<point x="570" y="662"/>
			<point x="574" y="656"/>
			<point x="594" y="691" type="curve" smooth="yes"/>
			<point x="609" y="715"/>
			<point x="620" y="746"/>
			<point x="631" y="784" type="curve" smooth="yes"/>
			<point x="681" y="960"/>
			<point x="786" y="1060"/>
			<point x="900" y="1060" type="curve" smooth="yes"/>
			<point x="1016" y="1060"/>
			<point x="1078" y="982"/>
			<point x="1077" y="878" type="curve" smooth="yes"/>
			<point x="1076" y="810"/>
			<point x="1032" y="768"/>
			<point x="975" y="768" type="curve" smooth="yes"/>
			<point x="922" y="768"/>
			<point x="885" y="806"/>
			<point x="885" y="856" type="curve" smooth="yes"/>
			<point x="885" y="920"/>
			<point x="922" y="924"/>
			<point x="922" y="956" type="curve" smooth="yes"/>
			<point x="922" y="976"/>
			<point x="909" y="980"/>
			<point x="886" y="980" type="curve" smooth="yes"/>
			<point x="820" y="980"/>
			<point x="747" y="910"/>
			<point x="701" y="740" type="curve" smooth="yes"/>
			<point x="690" y="700"/>
			<point x="674" y="667"/>
			<point x="656" y="640" type="curve" smooth="yes"/>
			<point x="639" y="614"/>
			<point x="646" y="616"/>
			<point x="668" y="598" type="curve" smooth="yes"/>
			<point x="751" y="531"/>
			<point x="759" y="447"/>
			<point x="752" y="282" type="curve" smooth="yes"/>
			<point x="746" y="154" type="line" smooth="yes"/>
			<point x="748" y="100"/>
			<point x="767" y="94"/>
			<point x="790" y="94" type="curve" smooth="yes"/>
			<point x="838" y="94"/>
			<point x="910" y="169"/>
			<point x="988" y="314" type="curve" smooth="yes"/>
			<point x="1004" y="342"/>
			<point x="1005" y="354"/>
			<point x="1026" y="340" type="curve" smooth="yes"/>
			<point x="1052" y="323" type="line" smooth="yes"/>
			<point x="1078" y="306"/>
			<point x="1079" y="309"/>
		</contour>
	</outline>
</glyph>
<glyph name="l" format="2">
	<advance width="677" height="2310"/>
	<unicode hex="006C"/>
	<anchor x="493" y="1696" name="Anchor-0"/>
	<anchor x="597" y="1040" name="Anchor-1"/>
	<anchor x="140" y="0" name="Anchor-2"/>
	<outline>
		<contour>
			<point x="502" y="1494" type="curve" smooth="yes"/>
			<point x="207" y="168" type="line" smooth="yes"/>
			<point x="204" y="157"/>
			<point x="203" y="142"/>
			<point x="203" y="132" type="curve" smooth="yes"/>
			<point x="203" y="110"/>
			<point x="218" y="94"/>
			<point x="246" y="94" type="curve" smooth="yes"/>
			<point x="317" y="94"/>
			<point x="412" y="207"/>
			<point x="491" y="326" type="curve" smooth="yes"/>
			<point x="507" y="350"/>
			<point x="506" y="359"/>
			<point x="533" y="345" type="curve" smooth="yes"/>
			<point x="554" y="334" type="line" smooth="yes"/>
			<point x="578" y="322"/>
			<point x="581" y="320"/>
			<point x="568" y="298" type="curve" smooth="yes"/>
			<point x="460" y="113"/>
			<point x="323" y="-20"/>
			<point x="182" y="-20" type="curve" smooth="yes"/>
			<point x="79" y="-20"/>
			<point x="29" y="23"/>
			<point x="29" y="123" type="curve" smooth="yes"/>
			<point x="29" y="133"/>
			<point x="32" y="158"/>
			<point x="35" y="170" type="curve" smooth="yes"/>
			<point x="301" y="1414" type="line" smooth="yes"/>
			<point x="309" y="1450"/>
			<point x="300" y="1450"/>
			<point x="257" y="1450" type="curve" smooth="yes"/>
			<point x="165" y="1450" type="line" smooth="yes"/>
			<point x="142" y="1450"/>
			<point x="137" y="1457"/>
			<point x="137" y="1478" type="curve" smooth="yes"/>
			<point x="137" y="1522" type="line" smooth="yes"/>
			<point x="137" y="1554"/>
			<point x="142" y="1560"/>
			<point x="173" y="1560" type="curve" smooth="yes"/>
			<point x="441" y="1560" type="line" smooth="yes"/>
			<point x="516" y="1560"/>
			<point x="515" y="1553"/>
		</contour>
	</outline>
</glyph>
<glyph name="m" format="2">
	<advance width="1805" height="2310"/>
	<unicode hex="006D"/>
	<anchor x="1060" y="1040" name="Anchor-0"/>
	<anchor x="780" y="0" name="Anchor-1"/>
	<anchor x="780" y="0" name="Anchor-2"/>
	<outline>
		<contour>
			<point x="144" y="1040" type="curve" smooth="yes"/>
			<point x="430" y="1040" type="line" smooth="yes"/>
			<point x="473" y="1040"/>
			<point x="476" y="1043"/>
			<point x="468" y="1007" type="curve" smooth="yes"/>
			<point x="428" y="831" type="line" smooth="yes"/>
			<point x="413" y="767"/>
			<point x="408" y="741"/>
			<point x="460" y="821" type="curve" smooth="yes"/>
			<point x="551" y="961"/>
			<point x="661" y="1058"/>
			<point x="773" y="1058" type="curve" smooth="yes"/>
			<point x="921" y="1058"/>
			<point x="969" y="989"/>
			<point x="973" y="827" type="curve" smooth="yes"/>
			<point x="974" y="777"/>
			<point x="980" y="776"/>
			<point x="1011" y="826" type="curve" smooth="yes"/>
			<point x="1097" y="965"/>
			<point x="1195" y="1058"/>
			<point x="1310" y="1058" type="curve" smooth="yes"/>
			<point x="1524" y="1058"/>
			<point x="1561" y="961"/>
			<point x="1486" y="682" type="curve" smooth="yes"/>
			<point x="1354" y="192" type="line" smooth="yes"/>
			<point x="1349" y="173"/>
			<point x="1346" y="152"/>
			<point x="1346" y="142" type="curve" smooth="yes"/>
			<point x="1346" y="120"/>
			<point x="1364" y="102"/>
			<point x="1389" y="102" type="curve" smooth="yes"/>
			<point x="1448" y="102"/>
			<point x="1545" y="194"/>
			<point x="1609" y="312" type="curve" smooth="yes"/>
			<point x="1622" y="336"/>
			<point x="1629" y="348"/>
			<point x="1655" y="333" type="curve" smooth="yes"/>
			<point x="1677" y="320" type="line" smooth="yes"/>
			<point x="1701" y="306"/>
			<point x="1705" y="301"/>
			<point x="1687" y="270" type="curve" smooth="yes"/>
			<point x="1579" y="90"/>
			<point x="1457" y="-20"/>
			<point x="1331" y="-20" type="curve" smooth="yes"/>
			<point x="1228" y="-20"/>
			<point x="1170" y="26"/>
			<point x="1170" y="126" type="curve" smooth="yes"/>
			<point x="1170" y="136"/>
			<point x="1173" y="167"/>
			<point x="1178" y="184" type="curve" smooth="yes"/>
			<point x="1306" y="660" type="line" smooth="yes"/>
			<point x="1351" y="827"/>
			<point x="1416" y="956"/>
			<point x="1292" y="956" type="curve" smooth="yes"/>
			<point x="1119" y="956"/>
			<point x="945" y="587"/>
			<point x="874" y="306" type="curve" smooth="yes"/>
			<point x="807" y="41" type="line" smooth="yes"/>
			<point x="798" y="6"/>
			<point x="794" y="0"/>
			<point x="750" y="0" type="curve" smooth="yes"/>
			<point x="674" y="0" type="line" smooth="yes"/>
			<point x="613" y="0"/>
			<point x="621" y="5"/>
			<point x="633" y="52" type="curve" smooth="yes"/>
			<point x="784" y="660" type="line" smooth="yes"/>
			<point x="825" y="826"/>
			<point x="854" y="956"/>
			<point x="747" y="956" type="curve" smooth="yes"/>
			<point x="579" y="956"/>
			<point x="378" y="615"/>
			<point x="313" y="332" type="curve" smooth="yes"/>
			<point x="246" y="42" type="line" smooth="yes"/>
			<point x="237" y="5"/>
			<point x="239" y="0"/>
			<point x="192" y="0" type="curve" smooth="yes"/>
			<point x="108" y="0" type="line" smooth="yes"/>
			<point x="48" y="0"/>
			<point x="57" y="7"/>
			<point x="68" y="54" type="curve" smooth="yes"/>
			<point x="261" y="885" type="line" smooth="yes"/>
			<point x="270" y="925"/>
			<point x="267" y="930"/>
			<point x="216" y="930" type="curve" smooth="yes"/>
			<point x="150" y="930" type="line" smooth="yes"/>
			<point x="115" y="930"/>
			<point x="106" y="932"/>
			<point x="106" y="967" type="curve" smooth="yes"/>
			<point x="106" y="995" type="line" smooth="yes"/>
			<point x="106" y="1031"/>
			<point x="108" y="1040"/>
		</contour>
	</outline>
</glyph>
<glyph name="n" format="2">
	<advance width="1354" height="2310"/>
	<unicode hex="006E"/>
	<anchor x="746" y="1040" name="Anchor-0"/>
	<anchor x="514" y="0" name="Anchor-1"/>
	<anchor x="514" y="0" name="Anchor-2"/>
	<outline>
		<contour>
			<point x="143" y="1040" type="curve" smooth="yes"/>
			<point x="423" y="1040" type="line" smooth="yes"/>
			<point x="473" y="1040"/>
			<point x="476" y="1036"/>
			<point x="467" y="997" type="curve" smooth="yes"/>
			<point x="424" y="809" type="line" smooth="yes"/>
			<point x="409" y="744"/>
			<point x="412" y="736"/>
			<point x="459" y="809" type="curve" smooth="yes"/>
			<point x="560" y="963"/>
			<point x="697" y="1058"/>
			<point x="821" y="1058" type="curve" smooth="yes"/>
			<point x="954" y="1058"/>
			<point x="1099" y="957"/>
			<point x="1019" y="682" type="curve" smooth="yes"/>
			<point x="877" y="192" type="line" smooth="yes"/>
			<point x="872" y="173"/>
			<point x="869" y="152"/>
			<point x="869" y="142" type="curve" smooth="yes"/>
			<point x="869" y="120"/>
			<point x="877" y="94"/>
			<point x="916" y="94" type="curve" smooth="yes"/>
			<point x="987" y="94"/>
			<point x="1092" y="199"/>
			<point x="1160" y="314" type="curve" smooth="yes"/>
			<point x="1176" y="341"/>
			<point x="1184" y="359"/>
			<point x="1202" y="345" type="curve" smooth="yes"/>
			<point x="1228" y="325" type="line" smooth="yes"/>
			<point x="1244" y="312"/>
			<point x="1257" y="311"/>
			<point x="1242" y="286" type="curve" smooth="yes"/>
			<point x="1134" y="102"/>
			<point x="997" y="-20"/>
			<point x="862" y="-20" type="curve" smooth="yes"/>
			<point x="768" y="-20"/>
			<point x="693" y="26"/>
			<point x="693" y="126" type="curve" smooth="yes"/>
			<point x="693" y="136"/>
			<point x="696" y="167"/>
			<point x="701" y="184" type="curve" smooth="yes"/>
			<point x="824" y="660" type="line" smooth="yes"/>
			<point x="868" y="830"/>
			<point x="888" y="952"/>
			<point x="757" y="952" type="curve" smooth="yes"/>
			<point x="591" y="952"/>
			<point x="376" y="603"/>
			<point x="314" y="335" type="curve" smooth="yes"/>
			<point x="248" y="49" type="line" smooth="yes"/>
			<point x="241" y="18"/>
			<point x="238" y="0"/>
			<point x="197" y="0" type="curve" smooth="yes"/>
			<point x="119" y="0" type="line" smooth="yes"/>
			<point x="62" y="0"/>
			<point x="58" y="4"/>
			<point x="68" y="49" type="curve" smooth="yes"/>
			<point x="264" y="895" type="line" smooth="yes"/>
			<point x="272" y="929"/>
			<point x="265" y="930"/>
			<point x="223" y="930" type="curve" smooth="yes"/>
			<point x="141" y="930" type="line" smooth="yes"/>
			<point x="108" y="930"/>
			<point x="107" y="939"/>
			<point x="107" y="973" type="curve" smooth="yes"/>
			<point x="107" y="1001" type="line" smooth="yes"/>
			<point x="107" y="1034"/>
			<point x="111" y="1040"/>
		</contour>
	</outline>
</glyph>
<glyph name="o" format="2">
	<advance width="1096" height="2310"/>
	<unicode hex="006F"/>
	<anchor x="569" y="1050" name="Anchor-0"/>
	<anchor x="415" y="0" name="Anchor-1"/>
	<anchor x="415" y="0" name="Anchor-2"/>
	<outline>
		<contour>
			<point x="-4" y="430" type="curve" smooth="yes"/>
			<point x="-4" y="810"/>
			<point x="283" y="1060"/>
			<point x="564" y="1060" type="curve" smooth="yes"/>
			<point x="813" y="1060"/>
			<point x="967" y="830"/>
			<point x="967" y="610" type="curve" smooth="yes"/>
			<point x="967" y="230"/>
			<point x="721" y="-20"/>
			<point x="409" y="-20" type="curve" smooth="yes"/>
			<point x="132" y="-20"/>
			<point x="-4" y="210"/>
		</contour>
		<contour>
			<point x="186" y="320" type="curve" smooth="yes"/>
			<point x="186" y="172"/>
			<point x="279" y="70"/>
			<point x="410" y="70" type="curve" smooth="yes"/>
			<point x="617" y="70"/>
			<point x="767" y="372"/>
			<point x="767" y="680" type="curve" smooth="yes"/>
			<point x="767" y="828"/>
			<point x="694" y="970"/>
			<point x="563" y="970" type="curve" smooth="yes"/>
			<point x="327" y="970"/>
			<point x="186" y="628"/>
		</contour>
	</outline>
</glyph>
<glyph name="p" format="2">
	<advance width="1229" height="2310"/>
	<unicode hex="0070"/>
	<anchor x="859" y="1040" name="Anchor-0"/>
	<anchor x="717" y="0" name="Anchor-1"/>
	<anchor x="717" y="0" name="Anchor-2"/>
	<outline>
		<contour>
			<point x="149" y="1040" type="curve" smooth="yes"/>
			<point x="405" y="1040" type="line" smooth="yes"/>
			<point x="454" y="1040"/>
			<point x="455" y="1037"/>
			<point x="445" y="994" type="curve" smooth="yes"/>
			<point x="425" y="911" type="line" smooth="yes"/>
			<point x="412" y="855"/>
			<point x="414" y="830"/>
			<point x="465" y="889" type="curve" smooth="yes"/>
			<point x="549" y="987"/>
			<point x="654" y="1060"/>
			<point x="765" y="1060" type="curve" smooth="yes"/>
			<point x="936" y="1060"/>
			<point x="1081" y="950"/>
			<point x="1081" y="670" type="curve" smooth="yes"/>
			<point x="1081" y="270"/>
			<point x="814" y="-18"/>
			<point x="546" y="-18" type="curve" smooth="yes"/>
			<point x="427" y="-18"/>
			<point x="352" y="39"/>
			<point x="302" y="129" type="curve" smooth="yes"/>
			<point x="269" y="188"/>
			<point x="268" y="194"/>
			<point x="252" y="124" type="curve" smooth="yes"/>
			<point x="121" y="-454" type="line" smooth="yes"/>
			<point x="114" y="-485"/>
			<point x="110" y="-500"/>
			<point x="70" y="-500" type="curve" smooth="yes"/>
			<point x="-35" y="-500" type="line" smooth="yes"/>
			<point x="-71" y="-500"/>
			<point x="-71" y="-491"/>
			<point x="-65" y="-464" type="curve" smooth="yes"/>
			<point x="246" y="878" type="line" smooth="yes"/>
			<point x="254" y="914"/>
			<point x="261" y="930"/>
			<point x="211" y="930" type="curve" smooth="yes"/>
			<point x="135" y="930" type="line" smooth="yes"/>
			<point x="104" y="930"/>
			<point x="103" y="939"/>
			<point x="103" y="970" type="curve" smooth="yes"/>
			<point x="103" y="999" type="line" smooth="yes"/>
			<point x="103" y="1037"/>
			<point x="113" y="1040"/>
		</contour>
		<contour>
			<point x="339" y="370" type="curve" smooth="yes"/>
			<point x="339" y="202"/>
			<point x="387" y="84"/>
			<point x="541" y="84" type="curve" smooth="yes"/>
			<point x="720" y="84"/>
			<point x="891" y="392"/>
			<point x="891" y="680" type="curve" smooth="yes"/>
			<point x="891" y="848"/>
			<point x="834" y="956"/>
			<point x="711" y="956" type="curve" smooth="yes"/>
			<point x="527" y="956"/>
			<point x="339" y="598"/>
		</contour>
	</outline>
</glyph>
<glyph name="q" format="2">
	<advance width="1114" height="2310"/>
	<unicode hex="0071"/>
	<anchor x="617" y="1040" name="Anchor-0"/>
	<anchor x="305" y="0" name="Anchor-1"/>
	<anchor x="305" y="0" name="Anchor-2"/>
	<outline>
		<contour>
			<point x="-4" y="360" type="curve" smooth="yes"/>
			<point x="-4" y="760"/>
			<point x="312" y="1058"/>
			<point x="551" y="1058" type="curve" smooth="yes"/>
			<point x="675" y="1058"/>
			<point x="739" y="995"/>
			<point x="780" y="898" type="curve" smooth="yes"/>
			<point x="794" y="865"/>
			<point x="800" y="870"/>
			<point x="810" y="900" type="curve" smooth="yes"/>
			<point x="846" y="1014" type="line" smooth="yes"/>
			<point x="853" y="1035"/>
			<point x="860" y="1040"/>
			<point x="887" y="1040" type="curve" smooth="yes"/>
			<point x="973" y="1040" type="line" smooth="yes"/>
			<point x="1004" y="1040"/>
			<point x="1011" y="1031"/>
			<point x="1006" y="1007" type="curve" smooth="yes"/>
			<point x="703" y="-359" type="line" smooth="yes"/>
			<point x="698" y="-382"/>
			<point x="707" y="-390"/>
			<point x="747" y="-390" type="curve" smooth="yes"/>
			<point x="819" y="-390" type="line" smooth="yes"/>
			<point x="844" y="-390"/>
			<point x="851" y="-394"/>
			<point x="851" y="-418" type="curve" smooth="yes"/>
			<point x="851" y="-458" type="line" smooth="yes"/>
			<point x="851" y="-491"/>
			<point x="850" y="-500"/>
			<point x="817" y="-500" type="curve" smooth="yes"/>
			<point x="545" y="-500" type="line" smooth="yes"/>
			<point x="500" y="-500"/>
			<point x="487" y="-498"/>
			<point x="494" y="-468" type="curve" smooth="yes"/>
			<point x="628" y="108" type="line" smooth="yes"/>
			<point x="636" y="142"/>
			<point x="636" y="157"/>
			<point x="601" y="119" type="curve" smooth="yes"/>
			<point x="524" y="36"/>
			<point x="431" y="-20"/>
			<point x="329" y="-20" type="curve" smooth="yes"/>
			<point x="160" y="-20"/>
			<point x="-4" y="80"/>
		</contour>
		<contour>
			<point x="747" y="640" type="curve" smooth="yes"/>
			<point x="747" y="808"/>
			<point x="719" y="956"/>
			<point x="565" y="956" type="curve" smooth="yes"/>
			<point x="377" y="956"/>
			<point x="196" y="648"/>
			<point x="196" y="360" type="curve" smooth="yes"/>
			<point x="196" y="192"/>
			<point x="261" y="84"/>
			<point x="383" y="84" type="curve" smooth="yes"/>
			<point x="556" y="84"/>
			<point x="747" y="412"/>
		</contour>
	</outline>
</glyph>
<glyph name="r" format="2">
	<advance width="978" height="2310"/>
	<unicode hex="0072"/>
	<anchor x="556" y="1040" name="Anchor-0"/>
	<anchor x="177" y="0" name="Anchor-1"/>
	<anchor x="177" y="0" name="Anchor-2"/>
	<outline>
		<contour>
			<point x="134" y="1040" type="curve" smooth="yes"/>
			<point x="396" y="1040" type="line" smooth="yes"/>
			<point x="443" y="1040"/>
			<point x="456" y="1035"/>
			<point x="447" y="998" type="curve" smooth="yes"/>
			<point x="415" y="858" type="line" smooth="yes"/>
			<point x="402" y="802"/>
			<point x="402" y="795"/>
			<point x="441" y="856" type="curve" smooth="yes"/>
			<point x="515" y="973"/>
			<point x="629" y="1060"/>
			<point x="741" y="1060" type="curve" smooth="yes"/>
			<point x="849" y="1060"/>
			<point x="929" y="988"/>
			<point x="929" y="902" type="curve" smooth="yes"/>
			<point x="929" y="818"/>
			<point x="875" y="757"/>
			<point x="805" y="757" type="curve" smooth="yes"/>
			<point x="729" y="757"/>
			<point x="685" y="799"/>
			<point x="685" y="861" type="curve" smooth="yes"/>
			<point x="685" y="895"/>
			<point x="714" y="920"/>
			<point x="714" y="937" type="curve" smooth="yes"/>
			<point x="714" y="951"/>
			<point x="705" y="957"/>
			<point x="691" y="957" type="curve" smooth="yes"/>
			<point x="573" y="957"/>
			<point x="372" y="672"/>
			<point x="313" y="417" type="curve" smooth="yes"/>
			<point x="225" y="34" type="line" smooth="yes"/>
			<point x="218" y="3"/>
			<point x="219" y="0"/>
			<point x="180" y="0" type="curve" smooth="yes"/>
			<point x="78" y="0" type="line" smooth="yes"/>
			<point x="37" y="0"/>
			<point x="40" y="12"/>
			<point x="47" y="42" type="curve" smooth="yes"/>
			<point x="243" y="885" type="line" smooth="yes"/>
			<point x="252" y="926"/>
			<point x="252" y="930"/>
			<point x="202" y="930" type="curve" smooth="yes"/>
			<point x="130" y="930" type="line" smooth="yes"/>
			<point x="98" y="930"/>
			<point x="97" y="939"/>
			<point x="97" y="972" type="curve" smooth="yes"/>
			<point x="97" y="1008" type="line" smooth="yes"/>
			<point x="97" y="1037"/>
			<point x="108" y="1040"/>
		</contour>
	</outline>
</glyph>
<glyph name="s" format="2">
	<advance width="934" height="2310"/>
	<unicode hex="0073"/>
	<anchor x="521" y="1040" name="Anchor-0"/>
	<anchor x="370" y="30" name="Anchor-1"/>
	<anchor x="370" y="30" name="Anchor-2"/>
	<outline>
		<contour>
			<point x="619" y="251" type="curve" smooth="yes"/>
			<point x="619" y="487"/>
			<point x="110" y="428"/>
			<point x="110" y="730" type="curve" smooth="yes"/>
			<point x="110" y="948"/>
			<point x="309" y="1064"/>
			<point x="501" y="1064" type="curve" smooth="yes"/>
			<point x="687" y="1064"/>
			<point x="839" y="974"/>
			<point x="839" y="822" type="curve" smooth="yes"/>
			<point x="839" y="742"/>
			<point x="784" y="704"/>
			<point x="720" y="704" type="curve" smooth="yes"/>
			<point x="656" y="704"/>
			<point x="608" y="750"/>
			<point x="608" y="800" type="curve" smooth="yes"/>
			<point x="608" y="868"/>
			<point x="657" y="879"/>
			<point x="657" y="919" type="curve" smooth="yes"/>
			<point x="657" y="951"/>
			<point x="580" y="974"/>
			<point x="500" y="974" type="curve" smooth="yes"/>
			<point x="349" y="974"/>
			<point x="272" y="904"/>
			<point x="272" y="792" type="curve" smooth="yes"/>
			<point x="272" y="562"/>
			<point x="785" y="650"/>
			<point x="785" y="314" type="curve" smooth="yes"/>
			<point x="785" y="106"/>
			<point x="615" y="-24"/>
			<point x="367" y="-24" type="curve" smooth="yes"/>
			<point x="179" y="-24"/>
			<point x="-6" y="82"/>
			<point x="-6" y="242" type="curve" smooth="yes"/>
			<point x="-6" y="328"/>
			<point x="52" y="386"/>
			<point x="122" y="386" type="curve" smooth="yes"/>
			<point x="192" y="386"/>
			<point x="236" y="338"/>
			<point x="236" y="274" type="curve" smooth="yes"/>
			<point x="235" y="198"/>
			<point x="178" y="191"/>
			<point x="178" y="151" type="curve" smooth="yes"/>
			<point x="178" y="105"/>
			<point x="270" y="68"/>
			<point x="378" y="68" type="curve" smooth="yes"/>
			<point x="522" y="68"/>
			<point x="619" y="149"/>
		</contour>
	</outline>
</glyph>
<glyph name="t" format="2">
	<advance width="745" height="2310"/>
	<unicode hex="0074"/>
	<anchor x="393" y="1277" name="Anchor-0"/>
	<anchor x="557" y="1153" name="Anchor-1"/>
	<anchor x="235" y="0" name="Anchor-2"/>
	<outline>
		<contour>
			<point x="73" y="1040" type="curve" smooth="yes"/>
			<point x="233" y="1040" type="line" smooth="yes"/>
			<point x="256" y="1040"/>
			<point x="253" y="1045"/>
			<point x="257" y="1063" type="curve" smooth="yes"/>
			<point x="288" y="1196" type="line" smooth="yes"/>
			<point x="294" y="1223"/>
			<point x="296" y="1219"/>
			<point x="324" y="1225" type="curve" smooth="yes"/>
			<point x="364" y="1232"/>
			<point x="404" y="1250"/>
			<point x="428" y="1263" type="curve" smooth="yes"/>
			<point x="447" y="1273"/>
			<point x="451" y="1276"/>
			<point x="468" y="1276" type="curve" smooth="yes"/>
			<point x="485" y="1276"/>
			<point x="486" y="1273"/>
			<point x="482" y="1257" type="curve" smooth="yes"/>
			<point x="437" y="1060" type="line" smooth="yes"/>
			<point x="433" y="1042"/>
			<point x="430" y="1040"/>
			<point x="452" y="1040" type="curve" smooth="yes"/>
			<point x="639" y="1040" type="line" smooth="yes"/>
			<point x="667" y="1040"/>
			<point x="667" y="1037"/>
			<point x="667" y="1007" type="curve" smooth="yes"/>
			<point x="666" y="958" type="line" smooth="yes"/>
			<point x="666" y="930"/>
			<point x="667" y="930"/>
			<point x="640" y="930" type="curve" smooth="yes"/>
			<point x="425" y="930" type="line" smooth="yes"/>
			<point x="406" y="930"/>
			<point x="408" y="927"/>
			<point x="404" y="911" type="curve" smooth="yes"/>
			<point x="236" y="214" type="line" smooth="yes"/>
			<point x="220" y="147"/>
			<point x="238" y="100"/>
			<point x="299" y="100" type="curve" smooth="yes"/>
			<point x="406" y="100"/>
			<point x="496" y="261"/>
			<point x="536" y="328" type="curve" smooth="yes"/>
			<point x="547" y="346"/>
			<point x="554" y="372"/>
			<point x="576" y="356" type="curve" smooth="yes"/>
			<point x="611" y="333" type="line" smooth="yes"/>
			<point x="627" y="321"/>
			<point x="627" y="321"/>
			<point x="615" y="295" type="curve" smooth="yes"/>
			<point x="561" y="180"/>
			<point x="425" y="-24"/>
			<point x="235" y="-24" type="curve" smooth="yes"/>
			<point x="78" y="-24"/>
			<point x="36" y="108"/>
			<point x="86" y="322" type="curve" smooth="yes"/>
			<point x="222" y="907" type="line" smooth="yes"/>
			<point x="227" y="927"/>
			<point x="224" y="930"/>
			<point x="200" y="930" type="curve" smooth="yes"/>
			<point x="69" y="930" type="line" smooth="yes"/>
			<point x="51" y="930"/>
			<point x="50" y="939"/>
			<point x="50" y="958" type="curve" smooth="yes"/>
			<point x="50" y="1010" type="line" smooth="yes"/>
			<point x="50" y="1032"/>
			<point x="52" y="1040"/>
		</contour>
	</outline>
</glyph>
<glyph name="u" format="2">
	<advance width="1442" height="2310"/>
	<unicode hex="0075"/>
	<anchor x="711" y="1040" name="Anchor-0"/>
	<anchor x="502" y="0" name="Anchor-1"/>
	<anchor x="502" y="0" name="Anchor-2"/>
	<anchor x="1032" y="30" name="Anchor-3"/>
	<outline>
		<contour>
			<point x="5" y="748" type="curve" smooth="yes"/>
			<point x="133" y="951"/>
			<point x="221" y="1060"/>
			<point x="365" y="1060" type="curve" smooth="yes"/>
			<point x="497" y="1060"/>
			<point x="577" y="983"/>
			<point x="531" y="816" type="curve" smooth="yes"/>
			<point x="421" y="380" type="line" smooth="yes"/>
			<point x="379" y="213"/>
			<point x="375" y="98"/>
			<point x="478" y="98" type="curve" smooth="yes"/>
			<point x="613" y="98"/>
			<point x="859" y="420"/>
			<point x="921" y="687" type="curve" smooth="yes"/>
			<point x="998" y="1025" type="line" smooth="yes"/>
			<point x="1001" y="1037"/>
			<point x="1006" y="1040"/>
			<point x="1022" y="1040" type="curve" smooth="yes"/>
			<point x="1163" y="1040" type="line" smooth="yes"/>
			<point x="1183" y="1040"/>
			<point x="1184" y="1039"/>
			<point x="1180" y="1023" type="curve" smooth="yes"/>
			<point x="974" y="168" type="line" smooth="yes"/>
			<point x="966" y="133"/>
			<point x="976" y="94"/>
			<point x="1026" y="94" type="curve" smooth="yes"/>
			<point x="1098" y="94"/>
			<point x="1176" y="200"/>
			<point x="1256" y="316" type="curve" smooth="yes"/>
			<point x="1275" y="343"/>
			<point x="1279" y="346"/>
			<point x="1295" y="336" type="curve" smooth="yes"/>
			<point x="1320" y="321" type="line" smooth="yes"/>
			<point x="1340" y="309"/>
			<point x="1344" y="309"/>
			<point x="1327" y="281" type="curve" smooth="yes"/>
			<point x="1218" y="104"/>
			<point x="1121" y="-20"/>
			<point x="960" y="-20" type="curve" smooth="yes"/>
			<point x="841" y="-20"/>
			<point x="782" y="72"/>
			<point x="812" y="190" type="curve" smooth="yes"/>
			<point x="840" y="300" type="line" smooth="yes"/>
			<point x="848" y="330"/>
			<point x="840" y="331"/>
			<point x="829" y="313" type="curve" smooth="yes"/>
			<point x="709" y="119"/>
			<point x="550" y="-18"/>
			<point x="409" y="-18" type="curve" smooth="yes"/>
			<point x="255" y="-18"/>
			<point x="171" y="77"/>
			<point x="241" y="358" type="curve" smooth="yes"/>
			<point x="363" y="848" type="line" smooth="yes"/>
			<point x="373" y="887"/>
			<point x="398" y="960"/>
			<point x="331" y="960" type="curve" smooth="yes"/>
			<point x="249" y="960"/>
			<point x="170" y="856"/>
			<point x="80" y="720" type="curve" smooth="yes"/>
			<point x="66" y="698"/>
			<point x="56" y="681"/>
			<point x="39" y="692" type="curve" smooth="yes"/>
			<point x="14" y="708" type="line" smooth="yes"/>
			<point x="-9" y="723"/>
			<point x="-9" y="726"/>
		</contour>
	</outline>
</glyph>
<glyph name="v" format="2">
	<advance width="1090" height="2310"/>
	<unicode hex="0076"/>
	<anchor x="595" y="1040" name="Anchor-0"/>
	<anchor x="387" y="0" name="Anchor-1"/>
	<anchor x="387" y="0" name="Anchor-2"/>
	<outline>
		<contour>
			<point x="754" y="806" type="curve" smooth="yes"/>
			<point x="697" y="806"/>
			<point x="651" y="854"/>
			<point x="652" y="930" type="curve" smooth="yes"/>
			<point x="653" y="990"/>
			<point x="699" y="1058"/>
			<point x="792" y="1058" type="curve" smooth="yes"/>
			<point x="887" y="1058"/>
			<point x="965" y="990"/>
			<point x="965" y="868" type="curve" smooth="yes"/>
			<point x="965" y="575"/>
			<point x="724" y="212"/>
			<point x="389" y="-52" type="curve" smooth="yes"/>
			<point x="370" y="-68"/>
			<point x="363" y="-63"/>
			<point x="342" y="-51" type="curve" smooth="yes"/>
			<point x="285" y="-23" type="line" smooth="yes"/>
			<point x="271" y="-15"/>
			<point x="275" y="-9"/>
			<point x="278" y="12" type="curve" smooth="yes"/>
			<point x="285" y="64"/>
			<point x="284" y="138"/>
			<point x="275" y="210" type="curve" smooth="yes"/>
			<point x="232" y="564"/>
			<point x="37" y="608"/>
			<point x="37" y="786" type="curve" smooth="yes"/>
			<point x="37" y="922"/>
			<point x="209" y="994"/>
			<point x="310" y="1056" type="curve" smooth="yes"/>
			<point x="336" y="1072"/>
			<point x="337" y="1071"/>
			<point x="351" y="1046" type="curve" smooth="yes"/>
			<point x="360" y="1030" type="line" smooth="yes"/>
			<point x="371" y="1010"/>
			<point x="379" y="1006"/>
			<point x="359" y="992" type="curve" smooth="yes"/>
			<point x="319" y="964"/>
			<point x="228" y="911"/>
			<point x="228" y="826" type="curve" smooth="yes"/>
			<point x="228" y="700"/>
			<point x="405" y="585"/>
			<point x="433" y="299" type="curve" smooth="yes"/>
			<point x="437" y="255"/>
			<point x="443" y="201"/>
			<point x="445" y="167" type="curve" smooth="yes"/>
			<point x="446" y="144"/>
			<point x="446" y="135"/>
			<point x="466" y="155" type="curve" smooth="yes"/>
			<point x="679" y="366"/>
			<point x="847" y="632"/>
			<point x="847" y="798" type="curve" smooth="yes"/>
			<point x="847" y="822"/>
			<point x="840" y="835"/>
			<point x="830" y="835" type="curve" smooth="yes"/>
			<point x="818" y="835"/>
			<point x="798" y="806"/>
		</contour>
	</outline>
</glyph>
<glyph name="w" format="2">
	<advance width="1859" height="2310"/>
	<unicode hex="0077"/>
	<anchor x="1068" y="1040" name="Anchor-0"/>
	<anchor x="697" y="0" name="Anchor-1"/>
	<anchor x="697" y="0" name="Anchor-2"/>
	<outline>
		<contour>
			<point x="2" y="768" type="curve" smooth="yes"/>
			<point x="101" y="945"/>
			<point x="243" y="1060"/>
			<point x="409" y="1060" type="curve" smooth="yes"/>
			<point x="514" y="1060"/>
			<point x="571" y="1014"/>
			<point x="571" y="914" type="curve" smooth="yes"/>
			<point x="571" y="904"/>
			<point x="568" y="873"/>
			<point x="563" y="856" type="curve" smooth="yes"/>
			<point x="412" y="380" type="line" smooth="yes"/>
			<point x="366" y="211"/>
			<point x="379" y="84"/>
			<point x="501" y="84" type="curve" smooth="yes"/>
			<point x="661" y="84"/>
			<point x="788" y="304"/>
			<point x="850" y="520" type="curve" smooth="yes"/>
			<point x="962" y="1007" type="line" smooth="yes"/>
			<point x="969" y="1038"/>
			<point x="979" y="1040"/>
			<point x="1018" y="1040" type="curve" smooth="yes"/>
			<point x="1105" y="1040" type="line" smooth="yes"/>
			<point x="1154" y="1040"/>
			<point x="1155" y="1036"/>
			<point x="1146" y="995" type="curve" smooth="yes"/>
			<point x="991" y="378" type="line" smooth="yes"/>
			<point x="951" y="210"/>
			<point x="987" y="86"/>
			<point x="1115" y="86" type="curve" smooth="yes"/>
			<point x="1399" y="86"/>
			<point x="1575" y="590"/>
			<point x="1575" y="766" type="curve" smooth="yes"/>
			<point x="1575" y="810"/>
			<point x="1573" y="838"/>
			<point x="1553" y="838" type="curve" smooth="yes"/>
			<point x="1539" y="838"/>
			<point x="1535" y="826"/>
			<point x="1497" y="826" type="curve" smooth="yes"/>
			<point x="1443" y="826"/>
			<point x="1399" y="880"/>
			<point x="1399" y="940" type="curve" smooth="yes"/>
			<point x="1399" y="1002"/>
			<point x="1456" y="1058"/>
			<point x="1528" y="1058" type="curve" smooth="yes"/>
			<point x="1624" y="1058"/>
			<point x="1689" y="988"/>
			<point x="1689" y="806" type="curve" smooth="yes"/>
			<point x="1689" y="586"/>
			<point x="1507" y="-20"/>
			<point x="1097" y="-20" type="curve" smooth="yes"/>
			<point x="969" y="-20"/>
			<point x="868" y="30"/>
			<point x="827" y="163" type="curve" smooth="yes"/>
			<point x="812" y="213"/>
			<point x="800" y="212"/>
			<point x="767" y="165" type="curve" smooth="yes"/>
			<point x="688" y="49"/>
			<point x="586" y="-18"/>
			<point x="475" y="-18" type="curve" smooth="yes"/>
			<point x="305" y="-18"/>
			<point x="157" y="79"/>
			<point x="232" y="358" type="curve" smooth="yes"/>
			<point x="388" y="848" type="line" smooth="yes"/>
			<point x="393" y="867"/>
			<point x="396" y="888"/>
			<point x="396" y="898" type="curve" smooth="yes"/>
			<point x="396" y="920"/>
			<point x="382" y="946"/>
			<point x="335" y="946" type="curve" smooth="yes"/>
			<point x="234" y="946"/>
			<point x="159" y="851"/>
			<point x="74" y="735" type="curve" smooth="yes"/>
			<point x="55" y="708"/>
			<point x="48" y="690"/>
			<point x="24" y="706" type="curve" smooth="yes"/>
			<point x="1" y="721" type="line" smooth="yes"/>
			<point x="-22" y="734"/>
			<point x="-9" y="749"/>
		</contour>
	</outline>
</glyph>
<glyph name="x" format="2">
	<advance width="1101" height="2310"/>
	<unicode hex="0078"/>
	<anchor x="586" y="1040" name="Anchor-0"/>
	<anchor x="407" y="0" name="Anchor-1"/>
	<anchor x="407" y="0" name="Anchor-2"/>
	<outline>
		<contour>
			<point x="-72" y="142" type="curve" smooth="yes"/>
			<point x="-72" y="210"/>
			<point x="-26" y="272"/>
			<point x="51" y="272" type="curve" smooth="yes"/>
			<point x="123" y="272"/>
			<point x="151" y="224"/>
			<point x="151" y="174" type="curve" smooth="yes"/>
			<point x="151" y="120"/>
			<point x="123" y="120"/>
			<point x="123" y="98" type="curve" smooth="yes"/>
			<point x="123" y="87"/>
			<point x="128" y="80"/>
			<point x="140" y="80" type="curve" smooth="yes"/>
			<point x="205" y="80"/>
			<point x="269" y="208"/>
			<point x="379" y="438" type="curve" smooth="yes"/>
			<point x="403" y="489"/>
			<point x="398" y="513"/>
			<point x="384" y="574" type="curve" smooth="yes"/>
			<point x="358" y="684"/>
			<point x="323" y="803"/>
			<point x="305" y="859" type="curve" smooth="yes"/>
			<point x="298" y="880"/>
			<point x="286" y="906"/>
			<point x="251" y="906" type="curve" smooth="yes"/>
			<point x="195" y="906"/>
			<point x="148" y="818"/>
			<point x="93" y="724" type="curve" smooth="yes"/>
			<point x="80" y="703"/>
			<point x="80" y="695"/>
			<point x="60" y="710" type="curve" smooth="yes"/>
			<point x="32" y="731" type="line" smooth="yes"/>
			<point x="12" y="746"/>
			<point x="12" y="748"/>
			<point x="23" y="768" type="curve" smooth="yes"/>
			<point x="106" y="925"/>
			<point x="202" y="1064"/>
			<point x="313" y="1064" type="curve" smooth="yes"/>
			<point x="413" y="1064"/>
			<point x="452" y="993"/>
			<point x="476" y="897" type="curve" smooth="yes"/>
			<point x="483" y="869"/>
			<point x="500" y="786"/>
			<point x="508" y="750" type="curve" smooth="yes"/>
			<point x="524" y="675"/>
			<point x="529" y="690"/>
			<point x="556" y="746" type="curve" smooth="yes"/>
			<point x="641" y="918"/>
			<point x="710" y="1060"/>
			<point x="842" y="1060" type="curve" smooth="yes"/>
			<point x="939" y="1060"/>
			<point x="1006" y="1012"/>
			<point x="1006" y="908" type="curve" smooth="yes"/>
			<point x="1006" y="830"/>
			<point x="960" y="778"/>
			<point x="880" y="778" type="curve" smooth="yes"/>
			<point x="826" y="778"/>
			<point x="789" y="816"/>
			<point x="789" y="856" type="curve" smooth="yes"/>
			<point x="790" y="900"/>
			<point x="817" y="914"/>
			<point x="817" y="936" type="curve" smooth="yes"/>
			<point x="817" y="946"/>
			<point x="813" y="956"/>
			<point x="800" y="956" type="curve" smooth="yes"/>
			<point x="736" y="956"/>
			<point x="669" y="804"/>
			<point x="575" y="610" type="curve" smooth="yes"/>
			<point x="556" y="571"/>
			<point x="549" y="561"/>
			<point x="560" y="512" type="curve" smooth="yes"/>
			<point x="594" y="359"/>
			<point x="631" y="251"/>
			<point x="667" y="145" type="curve" smooth="yes"/>
			<point x="674" y="124"/>
			<point x="687" y="108"/>
			<point x="723" y="108" type="curve" smooth="yes"/>
			<point x="787" y="108"/>
			<point x="854" y="202"/>
			<point x="902" y="288" type="curve" smooth="yes"/>
			<point x="915" y="311"/>
			<point x="915" y="327"/>
			<point x="942" y="314" type="curve" smooth="yes"/>
			<point x="965" y="302" type="line" smooth="yes"/>
			<point x="994" y="287"/>
			<point x="996" y="285"/>
			<point x="981" y="255" type="curve" smooth="yes"/>
			<point x="906" y="101"/>
			<point x="783" y="-20"/>
			<point x="667" y="-20" type="curve" smooth="yes"/>
			<point x="558" y="-20"/>
			<point x="501" y="51"/>
			<point x="477" y="147" type="curve" smooth="yes"/>
			<point x="464" y="200"/>
			<point x="466" y="218"/>
			<point x="446" y="304" type="curve" smooth="yes"/>
			<point x="431" y="371"/>
			<point x="427" y="362"/>
			<point x="402" y="310" type="curve" smooth="yes"/>
			<point x="296" y="85"/>
			<point x="232" y="-20"/>
			<point x="88" y="-20" type="curve" smooth="yes"/>
			<point x="-9" y="-20"/>
			<point x="-72" y="58"/>
		</contour>
	</outline>
</glyph>
<glyph name="y" format="2">
	<advance width="1089" height="2310"/>
	<unicode hex="0079"/>
	<anchor x="645" y="1040" name="Anchor-0"/>
	<anchor x="-24" y="-565" name="Anchor-1"/>
	<anchor x="-24" y="-565" name="Anchor-2"/>
	<outline>
		<contour>
			<point x="807" y="828" type="curve" smooth="yes"/>
			<point x="747" y="828"/>
			<point x="706" y="873"/>
			<point x="707" y="949" type="curve" smooth="yes"/>
			<point x="708" y="1019"/>
			<point x="769" y="1078"/>
			<point x="846" y="1078" type="curve" smooth="yes"/>
			<point x="922" y="1078"/>
			<point x="986" y="1022"/>
			<point x="986" y="930" type="curve" smooth="yes"/>
			<point x="986" y="590"/>
			<point x="476" y="-520"/>
			<point x="8" y="-520" type="curve" smooth="yes"/>
			<point x="-157" y="-520"/>
			<point x="-250" y="-426"/>
			<point x="-250" y="-292" type="curve" smooth="yes"/>
			<point x="-250" y="-200"/>
			<point x="-181" y="-116"/>
			<point x="-105" y="-116" type="curve" smooth="yes"/>
			<point x="-48" y="-116"/>
			<point x="-11" y="-152"/>
			<point x="-11" y="-214" type="curve" smooth="yes"/>
			<point x="-11" y="-320"/>
			<point x="-103" y="-310"/>
			<point x="-103" y="-342" type="curve" smooth="yes"/>
			<point x="-103" y="-386"/>
			<point x="-46" y="-410"/>
			<point x="17" y="-410" type="curve" smooth="yes"/>
			<point x="144" y="-410"/>
			<point x="307" y="-267"/>
			<point x="424" y="-89" type="curve" smooth="yes"/>
			<point x="455" y="-42"/>
			<point x="460" y="-44"/>
			<point x="443" y="18" type="curve" smooth="yes"/>
			<point x="364" y="301"/>
			<point x="256" y="727"/>
			<point x="214" y="849" type="curve" smooth="yes"/>
			<point x="207" y="870"/>
			<point x="195" y="894"/>
			<point x="171" y="894" type="curve" smooth="yes"/>
			<point x="128" y="894"/>
			<point x="90" y="789"/>
			<point x="53" y="702" type="curve" smooth="yes"/>
			<point x="43" y="678"/>
			<point x="46" y="666"/>
			<point x="19" y="676" type="curve" smooth="yes"/>
			<point x="-9" y="687" type="line" smooth="yes"/>
			<point x="-42" y="700"/>
			<point x="-36" y="705"/>
			<point x="-23" y="736" type="curve" smooth="yes"/>
			<point x="40" y="887"/>
			<point x="117" y="1064"/>
			<point x="237" y="1064" type="curve" smooth="yes"/>
			<point x="308" y="1064"/>
			<point x="367" y="1010"/>
			<point x="393" y="915" type="curve" smooth="yes"/>
			<point x="433" y="768"/>
			<point x="512" y="472"/>
			<point x="565" y="210" type="curve" smooth="yes"/>
			<point x="581" y="131"/>
			<point x="591" y="145"/>
			<point x="623" y="202" type="curve" smooth="yes"/>
			<point x="781" y="487"/>
			<point x="863" y="783"/>
			<point x="863" y="828" type="curve" smooth="yes"/>
			<point x="863" y="835"/>
			<point x="862" y="840"/>
			<point x="856" y="840" type="curve" smooth="yes"/>
			<point x="849" y="840"/>
			<point x="835" y="828"/>
		</contour>
	</outline>
</glyph>
<glyph name="z" format="2">
	<advance width="1018" height="2310"/>
	<unicode hex="007A"/>
	<anchor x="519" y="1040" name="Anchor-0"/>
	<anchor x="389" y="0" name="Anchor-1"/>
	<anchor x="389" y="0" name="Anchor-2"/>
	<outline>
		<contour>
			<point x="35" y="832" type="curve" smooth="yes"/>
			<point x="108" y="941"/>
			<point x="231" y="1060"/>
			<point x="370" y="1060" type="curve" smooth="yes"/>
			<point x="549" y="1060"/>
			<point x="559" y="942"/>
			<point x="665" y="942" type="curve" smooth="yes"/>
			<point x="745" y="942"/>
			<point x="810" y="999"/>
			<point x="880" y="1043" type="curve" smooth="yes"/>
			<point x="901" y="1056"/>
			<point x="903" y="1064"/>
			<point x="919" y="1044" type="curve" smooth="yes"/>
			<point x="939" y="1019" type="line" smooth="yes"/>
			<point x="954" y="1001"/>
			<point x="954" y="1000"/>
			<point x="937" y="984" type="curve" smooth="yes"/>
			<point x="239" y="237" type="line" smooth="yes"/>
			<point x="212" y="211"/>
			<point x="188" y="189"/>
			<point x="195" y="182" type="curve" smooth="yes"/>
			<point x="203" y="175"/>
			<point x="212" y="192"/>
			<point x="258" y="205" type="curve" smooth="yes"/>
			<point x="316" y="222"/>
			<point x="354" y="230"/>
			<point x="390" y="230" type="curve" smooth="yes"/>
			<point x="493" y="230"/>
			<point x="521" y="164"/>
			<point x="600" y="164" type="curve" smooth="yes"/>
			<point x="674" y="164"/>
			<point x="736" y="254"/>
			<point x="764" y="319" type="curve" smooth="yes"/>
			<point x="772" y="338"/>
			<point x="775" y="343"/>
			<point x="795" y="337" type="curve" smooth="yes"/>
			<point x="839" y="322" type="line" smooth="yes"/>
			<point x="854" y="317"/>
			<point x="855" y="312"/>
			<point x="844" y="284" type="curve" smooth="yes"/>
			<point x="800" y="170"/>
			<point x="700" y="-20"/>
			<point x="550" y="-20" type="curve" smooth="yes"/>
			<point x="409" y="-20"/>
			<point x="360" y="78"/>
			<point x="235" y="78" type="curve" smooth="yes"/>
			<point x="132" y="78"/>
			<point x="48" y="33"/>
			<point x="-24" y="-8" type="curve" smooth="yes"/>
			<point x="-45" y="-20"/>
			<point x="-44" y="-18"/>
			<point x="-59" y="0" type="curve" smooth="yes"/>
			<point x="-79" y="25" type="line" smooth="yes"/>
			<point x="-94" y="44"/>
			<point x="-85" y="46"/>
			<point x="-68" y="62" type="curve" smooth="yes"/>
			<point x="619" y="798" type="line" smooth="yes"/>
			<point x="639" y="818"/>
			<point x="657" y="829"/>
			<point x="653" y="836" type="curve" smooth="yes"/>
			<point x="649" y="842"/>
			<point x="636" y="826"/>
			<point x="604" y="815" type="curve" smooth="yes"/>
			<point x="576" y="805"/>
			<point x="549" y="800"/>
			<point x="521" y="800" type="curve" smooth="yes"/>
			<point x="399" y="800"/>
			<point x="381" y="886"/>
			<point x="275" y="886" type="curve" smooth="yes"/>
			<point x="212" y="886"/>
			<point x="154" y="843"/>
			<point x="111" y="784" type="curve" smooth="yes"/>
			<point x="88" y="753"/>
			<point x="91" y="746"/>
			<point x="55" y="765" type="curve" smooth="yes"/>
			<point x="27" y="780" type="line" smooth="yes"/>
			<point x="0" y="794"/>
			<point x="20" y="809"/>
		</contour>
	</outline>
</glyph>
<glyph name="braceright" format="2">
	<advance width="544" height="2310"/>
	<unicode hex="007D"/>
	<outline>
		<contour>
			<point x="252" y="1560" type="curve" smooth="yes"/>
			<point x="516" y="1554"/>
			<point x="594" y="1471"/>
			<point x="594" y="1280" type="curve" smooth="yes"/>
			<point x="594" y="1046"/>
			<point x="354" y="916"/>
			<point x="354" y="790" type="curve" smooth="yes"/>
			<point x="354" y="717"/>
			<point x="370" y="702"/>
			<point x="416" y="686" type="curve" smooth="yes"/>
			<point x="434" y="680"/>
			<point x="434" y="667"/>
			<point x="434" y="643" type="curve" smooth="yes"/>
			<point x="434" y="599" type="line" smooth="yes"/>
			<point x="434" y="574"/>
			<point x="426" y="577"/>
			<point x="408" y="571" type="curve" smooth="yes"/>
			<point x="346" y="551"/>
			<point x="262" y="519"/>
			<point x="262" y="448" type="curve" smooth="yes"/>
			<point x="262" y="322"/>
			<point x="314" y="272"/>
			<point x="314" y="58" type="curve" smooth="yes"/>
			<point x="314" y="-115"/>
			<point x="215" y="-291"/>
			<point x="-94" y="-300" type="curve" smooth="yes"/>
			<point x="-113" y="-301"/>
			<point x="-120" y="-294"/>
			<point x="-120" y="-273" type="curve" smooth="yes"/>
			<point x="-120" y="-236" type="line" smooth="yes"/>
			<point x="-120" y="-210"/>
			<point x="-123" y="-207"/>
			<point x="-98" y="-205" type="curve" smooth="yes"/>
			<point x="18" y="-198"/>
			<point x="128" y="-134"/>
			<point x="128" y="-34" type="curve" smooth="yes"/>
			<point x="128" y="98"/>
			<point x="80" y="118"/>
			<point x="80" y="318" type="curve" smooth="yes"/>
			<point x="80" y="467"/>
			<point x="135" y="560"/>
			<point x="238" y="617" type="curve" smooth="yes"/>
			<point x="288" y="645"/>
			<point x="268" y="651"/>
			<point x="253" y="675" type="curve" smooth="yes"/>
			<point x="232" y="709"/>
			<point x="220" y="753"/>
			<point x="220" y="820" type="curve" smooth="yes"/>
			<point x="220" y="1020"/>
			<point x="408" y="1160"/>
			<point x="408" y="1292" type="curve" smooth="yes"/>
			<point x="408" y="1410"/>
			<point x="352" y="1459"/>
			<point x="244" y="1465" type="curve" smooth="yes"/>
			<point x="222" y="1466"/>
			<point x="220" y="1467"/>
			<point x="220" y="1491" type="curve" smooth="yes"/>
			<point x="220" y="1532" type="line" smooth="yes"/>
			<point x="220" y="1559"/>
			<point x="227" y="1561"/>
		</contour>
	</outline>
</glyph>
<glyph name="degree" format="2">
	<advance width="639" height="0"/>
	<unicode hex="00B0"/>
	<outline>
		<contour>
			<point x="318" y="1359" type="curve" smooth="yes"/>
			<point x="302" y="1286"/>
			<point x="348" y="1230"/>
			<point x="421" y="1230" type="curve" smooth="yes"/>
			<point x="495" y="1230"/>
			<point x="563" y="1286"/>
			<point x="579" y="1359" type="curve" smooth="yes"/>
			<point x="595" y="1433"/>
			<point x="551" y="1490"/>
			<point x="477" y="1490" type="curve" smooth="yes"/>
			<point x="404" y="1490"/>
			<point x="334" y="1433"/>
		</contour>
		<contour>
			<point x="209" y="1359" type="curve" smooth="yes"/>
			<point x="238" y="1495"/>
			<point x="364" y="1600"/>
			<point x="500" y="1600" type="curve" smooth="yes"/>
			<point x="637" y="1600"/>
			<point x="719" y="1496"/>
			<point x="690" y="1359" type="curve" smooth="yes"/>
			<point x="661" y="1223"/>
			<point x="534" y="1120"/>
			<point x="398" y="1120" type="curve" smooth="yes"/>
			<point x="262" y="1120"/>
			<point x="180" y="1223"/>
		</contour>
	</outline>
</glyph>
<glyph name="plusminus" format="2">
	<advance width="1059" height="0"/>
	<unicode hex="00B1"/>
	<outline>
		<contour>
			<point x="390" y="361" type="line"/>
			<point x="465" y="716" type="line"/>
			<point x="112" y="716" type="line"/>
			<point x="136" y="828" type="line"/>
			<point x="489" y="828" type="line"/>
			<point x="564" y="1180" type="line"/>
			<point x="677" y="1180" type="line"/>
			<point x="602" y="828" type="line"/>
			<point x="955" y="828" type="line"/>
			<point x="931" y="716" type="line"/>
			<point x="578" y="716" type="line"/>
			<point x="503" y="361" type="line"/>
		</contour>
		<contour>
			<point x="-42" y="-15" type="line"/>
			<point x="-18" y="97" type="line"/>
			<point x="801" y="97" type="line"/>
			<point x="777" y="-15" type="line"/>
		</contour>
	</outline>
</glyph>
<glyph name="threesuperior" format="2">
	<advance width="638" height="2310"/>
	<unicode hex="00B3"/>
	<outline>
		<contour>
			<point x="98" y="1093" type="curve" smooth="yes"/>
			<point x="98" y="1151"/>
			<point x="140" y="1172"/>
			<point x="175" y="1172" type="curve" smooth="yes"/>
			<point x="207" y="1172"/>
			<point x="243" y="1146"/>
			<point x="243" y="1102" type="curve" smooth="yes"/>
			<point x="243" y="1059"/>
			<point x="205" y="1054"/>
			<point x="205" y="1026" type="curve" smooth="yes"/>
			<point x="205" y="994"/>
			<point x="256" y="952"/>
			<point x="357" y="952" type="curve" smooth="yes"/>
			<point x="488" y="952"/>
			<point x="571" y="1077"/>
			<point x="571" y="1184" type="curve" smooth="yes"/>
			<point x="571" y="1264"/>
			<point x="543" y="1325"/>
			<point x="424" y="1344" type="curve" smooth="yes"/>
			<point x="396" y="1348"/>
			<point x="370" y="1336"/>
			<point x="370" y="1371" type="curve" smooth="yes"/>
			<point x="370" y="1382" type="line" smooth="yes"/>
			<point x="370" y="1417"/>
			<point x="397" y="1406"/>
			<point x="424" y="1410" type="curve" smooth="yes"/>
			<point x="575" y="1433"/>
			<point x="643" y="1547"/>
			<point x="643" y="1659" type="curve" smooth="yes"/>
			<point x="643" y="1730"/>
			<point x="578" y="1776"/>
			<point x="489" y="1776" type="curve" smooth="yes"/>
			<point x="412" y="1776"/>
			<point x="373" y="1736"/>
			<point x="373" y="1704" type="curve" smooth="yes"/>
			<point x="373" y="1676"/>
			<point x="411" y="1670"/>
			<point x="411" y="1627" type="curve" smooth="yes"/>
			<point x="411" y="1583"/>
			<point x="375" y="1557"/>
			<point x="343" y="1557" type="curve" smooth="yes"/>
			<point x="308" y="1557"/>
			<point x="266" y="1578"/>
			<point x="266" y="1636" type="curve" smooth="yes"/>
			<point x="266" y="1734"/>
			<point x="343" y="1826"/>
			<point x="513" y="1826" type="curve" smooth="yes"/>
			<point x="652" y="1826"/>
			<point x="764" y="1767"/>
			<point x="764" y="1641" type="curve" smooth="yes"/>
			<point x="764" y="1505"/>
			<point x="683" y="1451"/>
			<point x="579" y="1402" type="curve" smooth="yes"/>
			<point x="534" y="1381"/>
			<point x="528" y="1389"/>
			<point x="528" y="1376" type="curve" smooth="yes"/>
			<point x="528" y="1366"/>
			<point x="551" y="1370"/>
			<point x="576" y="1360" type="curve" smooth="yes"/>
			<point x="653" y="1330"/>
			<point x="692" y="1276"/>
			<point x="692" y="1184" type="curve" smooth="yes"/>
			<point x="692" y="1022"/>
			<point x="562" y="902"/>
			<point x="369" y="902" type="curve" smooth="yes"/>
			<point x="187" y="902"/>
			<point x="98" y="995"/>
		</contour>
	</outline>
</glyph>
<glyph name="acute" format="2">
	<advance width="790" height="0"/>
	<unicode hex="00B4"/>
	<outline>
		<contour>
			<point x="795" y="1440" type="curve" smooth="yes"/>
			<point x="334" y="1421" type="line" smooth="yes"/>
			<point x="309" y="1420"/>
			<point x="302" y="1421"/>
			<point x="300" y="1440" type="curve" smooth="yes"/>
			<point x="297" y="1460"/>
			<point x="313" y="1464"/>
			<point x="338" y="1470" type="curve" smooth="yes"/>
			<point x="775" y="1576" type="line" smooth="yes"/>
			<point x="831" y="1589"/>
			<point x="865" y="1548"/>
			<point x="865" y="1510" type="curve" smooth="yes"/>
			<point x="865" y="1472"/>
			<point x="833" y="1441"/>
		</contour>
	</outline>
</glyph>
<glyph name="micro" format="2">
	<advance width="1233" height="0"/>
	<unicode hex="00B5"/>
	<outline>
		<contour>
			<point x="475" y="847" type="line"/>
			<point x="173" y="-242" type="line" smooth="yes"/>
			<point x="137" y="-413"/>
			<point x="228" y="-423"/>
			<point x="238" y="-415" type="curve" smooth="yes"/>
			<point x="247" y="-407"/>
			<point x="238" y="-407"/>
			<point x="238" y="-352" type="curve" smooth="yes"/>
			<point x="238" y="-287"/>
			<point x="289" y="-246"/>
			<point x="364" y="-246" type="curve" smooth="yes"/>
			<point x="434" y="-246"/>
			<point x="478" y="-288"/>
			<point x="478" y="-360" type="curve" smooth="yes"/>
			<point x="478" y="-453"/>
			<point x="381" y="-520"/>
			<point x="281" y="-520" type="curve" smooth="yes"/>
			<point x="119" y="-520"/>
			<point x="26" y="-409"/>
			<point x="61" y="-242" type="curve" smooth="yes"/>
			<point x="363" y="847" type="line"/>
		</contour>
		<component base="u"/>
	</outline>
</glyph>
<glyph name="paragraph" format="2">
	<advance width="1332" height="0"/>
	<unicode hex="00B6"/>
	<outline>
		<contour>
			<point x="763" y="-144" type="curve" smooth="yes"/>
			<point x="1083" y="1358" type="line" smooth="yes"/>
			<point x="1089" y="1385"/>
			<point x="1074" y="1387"/>
			<point x="1045" y="1387" type="curve" smooth="yes"/>
			<point x="1001" y="1387" type="line" smooth="yes"/>
			<point x="963" y="1387"/>
			<point x="961" y="1379"/>
			<point x="953" y="1342" type="curve" smooth="yes"/>
			<point x="638" y="-136" type="line" smooth="yes"/>
			<point x="631" y="-168"/>
			<point x="638" y="-187"/>
			<point x="675" y="-187" type="curve" smooth="yes"/>
			<point x="711" y="-187" type="line" smooth="yes"/>
			<point x="753" y="-187"/>
			<point x="754" y="-184"/>
		</contour>
		<contour>
			<point x="206" y="1059" type="curve" smooth="yes"/>
			<point x="206" y="1326"/>
			<point x="438" y="1500"/>
			<point x="726" y="1500" type="curve" smooth="yes"/>
			<point x="1339" y="1500" type="line" smooth="yes"/>
			<point x="1367" y="1500"/>
			<point x="1376" y="1496"/>
			<point x="1376" y="1466" type="curve" smooth="yes"/>
			<point x="1376" y="1428" type="line" smooth="yes"/>
			<point x="1376" y="1390"/>
			<point x="1368" y="1387"/>
			<point x="1329" y="1387" type="curve" smooth="yes"/>
			<point x="1239" y="1387" type="line" smooth="yes"/>
			<point x="1197" y="1387"/>
			<point x="1199" y="1376"/>
			<point x="1190" y="1336" type="curve" smooth="yes"/>
			<point x="876" y="-132" type="line" smooth="yes"/>
			<point x="869" y="-165"/>
			<point x="879" y="-187"/>
			<point x="917" y="-187" type="curve" smooth="yes"/>
			<point x="1001" y="-187" type="line" smooth="yes"/>
			<point x="1027" y="-187"/>
			<point x="1036" y="-188"/>
			<point x="1036" y="-214" type="curve" smooth="yes"/>
			<point x="1036" y="-259" type="line" smooth="yes"/>
			<point x="1036" y="-293"/>
			<point x="1030" y="-300"/>
			<point x="997" y="-300" type="curve" smooth="yes"/>
			<point x="371" y="-300" type="line" smooth="yes"/>
			<point x="345" y="-300"/>
			<point x="325" y="-299"/>
			<point x="325" y="-270" type="curve" smooth="yes"/>
			<point x="325" y="-246" type="line" smooth="yes"/>
			<point x="325" y="-197"/>
			<point x="326" y="-187"/>
			<point x="375" y="-187" type="curve" smooth="yes"/>
			<point x="483" y="-187" type="line" smooth="yes"/>
			<point x="515" y="-187"/>
			<point x="518" y="-185"/>
			<point x="525" y="-154" type="curve" smooth="yes"/>
			<point x="715" y="740" type="line" smooth="yes"/>
			<point x="715" y="775"/>
			<point x="706" y="779"/>
			<point x="673" y="779" type="curve" smooth="yes"/>
			<point x="596" y="779" type="line" smooth="yes"/>
			<point x="339" y="779"/>
			<point x="206" y="882"/>
		</contour>
	</outline>
</glyph>
<glyph name="threequarters" format="2">
	<advance width="2000" height="0"/>
	<unicode hex="00BE"/>
	<outline>
		<contour>
			<point x="1502" y="1400" type="line"/>
			<point x="1630" y="1400" type="line"/>
			<point x="508" y="-100" type="line"/>
			<point x="370" y="-100" type="line"/>
		</contour>
		<component base="three" xScale="0.6" yScale="0.6" xOffset="130" yOffset="614"/>
		<component base="four" xScale="0.6" yScale="0.6" xOffset="1070" yOffset="-36"/>
	</outline>
</glyph>
<glyph name="questiondown" format="2">
	<advance width="1100" height="0"/>
	<unicode hex="00BF"/>
	<outline>
		<contour>
			<point x="407" y="602" type="curve" smooth="yes"/>
			<point x="462" y="643"/>
			<point x="522" y="648"/>
			<point x="558" y="648" type="curve" smooth="yes"/>
			<point x="679" y="648"/>
			<point x="750" y="574"/>
			<point x="750" y="470" type="curve" smooth="yes"/>
			<point x="750" y="214"/>
			<point x="102" y="175"/>
			<point x="102" y="-160" type="curve" smooth="yes"/>
			<point x="102" y="-308"/>
			<point x="200" y="-386"/>
			<point x="358" y="-386" type="curve" smooth="yes"/>
			<point x="486" y="-386"/>
			<point x="602" y="-328"/>
			<point x="602" y="-284" type="curve" smooth="yes"/>
			<point x="602" y="-224"/>
			<point x="540" y="-222"/>
			<point x="540" y="-120" type="curve" smooth="yes"/>
			<point x="540" y="-36"/>
			<point x="606" y="0"/>
			<point x="676" y="0" type="curve" smooth="yes"/>
			<point x="746" y="0"/>
			<point x="810" y="-46"/>
			<point x="810" y="-142" type="curve" smooth="yes"/>
			<point x="810" y="-326"/>
			<point x="622" y="-480"/>
			<point x="318" y="-480" type="curve" smooth="yes"/>
			<point x="56" y="-480"/>
			<point x="-80" y="-360"/>
			<point x="-80" y="-140" type="curve" smooth="yes"/>
			<point x="-80" y="314"/>
			<point x="609" y="311"/>
			<point x="609" y="473" type="curve" smooth="yes"/>
			<point x="609" y="506"/>
			<point x="587" y="534"/>
			<point x="540" y="534" type="curve" smooth="yes"/>
			<point x="516" y="534"/>
			<point x="471" y="529"/>
			<point x="430" y="494" type="curve" smooth="yes"/>
			<point x="414" y="480"/>
			<point x="412" y="481"/>
			<point x="406" y="513" type="curve" smooth="yes"/>
			<point x="394" y="564" type="line" smooth="yes"/>
			<point x="390" y="587"/>
			<point x="392" y="591"/>
		</contour>
		<contour>
			<point x="722" y="940" type="curve" smooth="yes"/>
			<point x="722" y="874"/>
			<point x="668" y="820"/>
			<point x="602" y="820" type="curve" smooth="yes"/>
			<point x="536" y="820"/>
			<point x="482" y="874"/>
			<point x="482" y="940" type="curve" smooth="yes"/>
			<point x="482" y="1006"/>
			<point x="536" y="1060"/>
			<point x="602" y="1060" type="curve" smooth="yes"/>
			<point x="668" y="1060"/>
			<point x="722" y="1006"/>
		</contour>
	</outline>
</glyph>
<glyph name="multiply" format="2">
	<advance width="1003" height="0"/>
	<unicode hex="00D7"/>
	<outline>
		<contour>
			<point x="548" y="881" type="curve" smooth="yes"/>
			<point x="799" y="1088" type="line" smooth="yes"/>
			<point x="819" y="1104"/>
			<point x="830" y="1109"/>
			<point x="843" y="1092" type="curve" smooth="yes"/>
			<point x="880" y="1047" type="line" smooth="yes"/>
			<point x="889" y="1035"/>
			<point x="894" y="1028"/>
			<point x="879" y="1016" type="curve" smooth="yes"/>
			<point x="618" y="801" type="line" smooth="yes"/>
			<point x="591" y="778"/>
			<point x="586" y="770"/>
			<point x="603" y="748" type="curve" smooth="yes"/>
			<point x="767" y="539" type="line" smooth="yes"/>
			<point x="776" y="527"/>
			<point x="771" y="521"/>
			<point x="756" y="508" type="curve" smooth="yes"/>
			<point x="716" y="477" type="line" smooth="yes"/>
			<point x="699" y="463"/>
			<point x="694" y="459"/>
			<point x="683" y="473" type="curve" smooth="yes"/>
			<point x="524" y="677" type="line" smooth="yes"/>
			<point x="505" y="702"/>
			<point x="495" y="700"/>
			<point x="465" y="675" type="curve" smooth="yes"/>
			<point x="216" y="470" type="line" smooth="yes"/>
			<point x="195" y="452"/>
			<point x="188" y="453"/>
			<point x="175" y="470" type="curve" smooth="yes"/>
			<point x="140" y="513" type="line" smooth="yes"/>
			<point x="128" y="529"/>
			<point x="133" y="538"/>
			<point x="151" y="553" type="curve" smooth="yes"/>
			<point x="406" y="765" type="line" smooth="yes"/>
			<point x="429" y="784"/>
			<point x="432" y="792"/>
			<point x="416" y="813" type="curve" smooth="yes"/>
			<point x="255" y="1018" type="line" smooth="yes"/>
			<point x="242" y="1034"/>
			<point x="242" y="1042"/>
			<point x="263" y="1060" type="curve" smooth="yes"/>
			<point x="302" y="1090" type="line" smooth="yes"/>
			<point x="319" y="1104"/>
			<point x="325" y="1100"/>
			<point x="337" y="1085" type="curve" smooth="yes"/>
			<point x="496" y="882" type="line" smooth="yes"/>
			<point x="514" y="859"/>
			<point x="521" y="859"/>
		</contour>
	</outline>
</glyph>
<glyph name="Oslash" format="2">
	<advance width="1660" height="0"/>
	<unicode hex="00D8"/>
	<outline>
		<contour>
			<point x="1366" y="1660" type="curve" smooth="yes"/>
			<point x="1411" y="1660" type="line" smooth="yes"/>
			<point x="1449" y="1660"/>
			<point x="1454" y="1653"/>
			<point x="1440" y="1630" type="curve" smooth="yes"/>
			<point x="353" y="-168" type="line" smooth="yes"/>
			<point x="337" y="-194"/>
			<point x="332" y="-200"/>
			<point x="291" y="-200" type="curve" smooth="yes"/>
			<point x="259" y="-200" type="line" smooth="yes"/>
			<point x="210" y="-200"/>
			<point x="202" y="-186"/>
			<point x="219" y="-158" type="curve" smooth="yes"/>
			<point x="1310" y="1626" type="line" smooth="yes"/>
			<point x="1325" y="1651"/>
			<point x="1326" y="1660"/>
		</contour>
		<component base="O"/>
	</outline>
</glyph>
<glyph name="Thorn" format="2">
	<advance width="1374" height="0"/>
	<unicode hex="00DE"/>
	<outline>
		<contour>
			<point x="548" y="1049" type="curve" smooth="yes"/>
			<point x="423" y="470" type="line" smooth="yes"/>
			<point x="419" y="453"/>
			<point x="433" y="450"/>
			<point x="466" y="450" type="curve" smooth="yes"/>
			<point x="684" y="450" type="line" smooth="yes"/>
			<point x="876" y="450"/>
			<point x="1084" y="582"/>
			<point x="1084" y="840" type="curve" smooth="yes"/>
			<point x="1084" y="938"/>
			<point x="1056" y="1070"/>
			<point x="864" y="1070" type="curve" smooth="yes"/>
			<point x="586" y="1070" type="line" smooth="yes"/>
			<point x="562" y="1070"/>
			<point x="552" y="1069"/>
		</contour>
		<contour>
			<point x="-80" y="34" type="curve" smooth="yes"/>
			<point x="-80" y="82" type="line" smooth="yes"/>
			<point x="-80" y="105"/>
			<point x="-72" y="110"/>
			<point x="-50" y="110" type="curve" smooth="yes"/>
			<point x="94" y="110" type="line" smooth="yes"/>
			<point x="140" y="110"/>
			<point x="146" y="112"/>
			<point x="155" y="151" type="curve" smooth="yes"/>
			<point x="410" y="1348" type="line" smooth="yes"/>
			<point x="419" y="1387"/>
			<point x="414" y="1390"/>
			<point x="364" y="1390" type="curve" smooth="yes"/>
			<point x="244" y="1390" type="line" smooth="yes"/>
			<point x="218" y="1390"/>
			<point x="218" y="1395"/>
			<point x="218" y="1421" type="curve" smooth="yes"/>
			<point x="218" y="1464" type="line" smooth="yes"/>
			<point x="218" y="1494"/>
			<point x="223" y="1500"/>
			<point x="252" y="1500" type="curve" smooth="yes"/>
			<point x="810" y="1500" type="line" smooth="yes"/>
			<point x="838" y="1500"/>
			<point x="846" y="1496"/>
			<point x="846" y="1466" type="curve" smooth="yes"/>
			<point x="846" y="1422" type="line" smooth="yes"/>
			<point x="846" y="1393"/>
			<point x="838" y="1390"/>
			<point x="808" y="1390" type="curve" smooth="yes"/>
			<point x="654" y="1390" type="line" smooth="yes"/>
			<point x="612" y="1390"/>
			<point x="617" y="1379"/>
			<point x="610" y="1346" type="curve" smooth="yes"/>
			<point x="579" y="1198" type="line" smooth="yes"/>
			<point x="575" y="1180"/>
			<point x="574" y="1180"/>
			<point x="596" y="1180" type="curve" smooth="yes"/>
			<point x="864" y="1180" type="line" smooth="yes"/>
			<point x="1226" y="1180"/>
			<point x="1304" y="1020"/>
			<point x="1304" y="840" type="curve" smooth="yes"/>
			<point x="1304" y="500"/>
			<point x="1046" y="340"/>
			<point x="684" y="340" type="curve" smooth="yes"/>
			<point x="426" y="340" type="line" smooth="yes"/>
			<point x="396" y="340"/>
			<point x="395" y="336"/>
			<point x="392" y="321" type="curve" smooth="yes"/>
			<point x="357" y="150" type="line" smooth="yes"/>
			<point x="348" y="111"/>
			<point x="356" y="110"/>
			<point x="404" y="110" type="curve" smooth="yes"/>
			<point x="536" y="110" type="line" smooth="yes"/>
			<point x="578" y="110"/>
			<point x="580" y="102"/>
			<point x="580" y="60" type="curve" smooth="yes"/>
			<point x="580" y="38" type="line" smooth="yes"/>
			<point x="580" y="8"/>
			<point x="577" y="0"/>
			<point x="548" y="0" type="curve" smooth="yes"/>
			<point x="-42" y="0" type="line" smooth="yes"/>
			<point x="-73" y="0"/>
			<point x="-80" y="4"/>
		</contour>
	</outline>
</glyph>
<glyph name="germandbls" format="2">
	<advance width="1561" height="2309"/>
	<unicode hex="00DF"/>
	<outline>
		<contour>
			<point x="1310" y="320" type="curve" smooth="yes"/>
			<point x="1310" y="95"/>
			<point x="1080" y="-20"/>
			<point x="838" y="-20" type="curve" smooth="yes"/>
			<point x="665" y="-20"/>
			<point x="507" y="71"/>
			<point x="507" y="221" type="curve" smooth="yes"/>
			<point x="507" y="305"/>
			<point x="569" y="372"/>
			<point x="649" y="372" type="curve" smooth="yes"/>
			<point x="710" y="372"/>
			<point x="753" y="333"/>
			<point x="753" y="260" type="curve" smooth="yes"/>
			<point x="753" y="224"/>
			<point x="723" y="196"/>
			<point x="694" y="176" type="curve" smooth="yes"/>
			<point x="668" y="159"/>
			<point x="667" y="152"/>
			<point x="681" y="141" type="curve" smooth="yes"/>
			<point x="724" y="107"/>
			<point x="785" y="93"/>
			<point x="853" y="93" type="curve" smooth="yes"/>
			<point x="991" y="93"/>
			<point x="1102" y="159"/>
			<point x="1102" y="290" type="curve" smooth="yes"/>
			<point x="1102" y="512"/>
			<point x="843" y="572"/>
			<point x="843" y="787" type="curve" smooth="yes"/>
			<point x="843" y="1042"/>
			<point x="1232" y="1041"/>
			<point x="1232" y="1233" type="curve" smooth="yes"/>
			<point x="1232" y="1378"/>
			<point x="1165" y="1463"/>
			<point x="957" y="1463" type="curve" smooth="yes"/>
			<point x="639" y="1463"/>
			<point x="495" y="1246"/>
			<point x="435" y="962" type="curve" smooth="yes"/>
			<point x="239" y="37" type="line" smooth="yes"/>
			<point x="232" y="5"/>
			<point x="225" y="0"/>
			<point x="191" y="0" type="curve" smooth="yes"/>
			<point x="-84" y="0" type="line" smooth="yes"/>
			<point x="-112" y="0"/>
			<point x="-113" y="8"/>
			<point x="-114" y="37" type="curve" smooth="yes"/>
			<point x="-114" y="80" type="line" smooth="yes"/>
			<point x="-114" y="108"/>
			<point x="-99" y="113"/>
			<point x="-73" y="113" type="curve" smooth="yes"/>
			<point x="37" y="113" type="line" smooth="yes"/>
			<point x="73" y="113"/>
			<point x="77" y="128"/>
			<point x="84" y="161" type="curve" smooth="yes"/>
			<point x="259" y="982" type="line" smooth="yes"/>
			<point x="333" y="1328"/>
			<point x="554" y="1570"/>
			<point x="980" y="1570" type="curve" smooth="yes"/>
			<point x="1316" y="1570"/>
			<point x="1441" y="1448"/>
			<point x="1441" y="1262" type="curve" smooth="yes"/>
			<point x="1441" y="1038"/>
			<point x="1013" y="956"/>
			<point x="1013" y="843" type="curve" smooth="yes"/>
			<point x="1013" y="714"/>
			<point x="1310" y="558"/>
		</contour>
	</outline>
</glyph>
<glyph name="eth" format="2">
	<advance width="1240" height="2310"/>
	<unicode hex="00F0"/>
	<outline>
		<contour>
			<point x="248" y="508" type="curve" smooth="yes"/>
			<point x="202" y="290"/>
			<point x="229" y="68"/>
			<point x="447" y="68" type="curve" smooth="yes"/>
			<point x="645" y="68"/>
			<point x="857" y="359"/>
			<point x="918" y="648" type="curve" smooth="yes"/>
			<point x="952" y="808"/>
			<point x="842" y="960"/>
			<point x="676" y="960" type="curve" smooth="yes"/>
			<point x="468" y="960"/>
			<point x="296" y="736"/>
		</contour>
		<contour>
			<point x="48" y="508" type="curve" smooth="yes"/>
			<point x="118" y="838"/>
			<point x="381" y="1058"/>
			<point x="653" y="1058" type="curve" smooth="yes"/>
			<point x="835" y="1058"/>
			<point x="897" y="971"/>
			<point x="940" y="907" type="curve" smooth="yes"/>
			<point x="953" y="888"/>
			<point x="954" y="874"/>
			<point x="963" y="878" type="curve" smooth="yes"/>
			<point x="971" y="882"/>
			<point x="970" y="895"/>
			<point x="975" y="928" type="curve" smooth="yes"/>
			<point x="1030" y="1256"/>
			<point x="788" y="1364"/>
			<point x="634" y="1452" type="curve" smooth="yes"/>
			<point x="620" y="1460"/>
			<point x="611" y="1460"/>
			<point x="623" y="1478" type="curve" smooth="yes"/>
			<point x="661" y="1539" type="line" smooth="yes"/>
			<point x="671" y="1555"/>
			<point x="677" y="1556"/>
			<point x="691" y="1550" type="curve" smooth="yes"/>
			<point x="912" y="1446"/>
			<point x="1233" y="1185"/>
			<point x="1129" y="698" type="curve" smooth="yes"/>
			<point x="1021" y="188"/>
			<point x="770" y="-22"/>
			<point x="448" y="-22" type="curve" smooth="yes"/>
			<point x="126" y="-22"/>
			<point x="-20" y="188"/>
		</contour>
		<component base="hyphen" xScale="0.7495" xyScale="0.662" yScale="0.7495" yxScale="-0.662" xOffset="1178" yOffset="665"/>
	</outline>
</glyph>
<glyph name="oslash" format="2">
	<advance width="1139" height="0"/>
	<unicode hex="00F8"/>
	<outline>
		<contour>
			<point x="1086" y="1215" type="curve" smooth="yes"/>
			<point x="1131" y="1215" type="line" smooth="yes"/>
			<point x="1169" y="1215"/>
			<point x="1174" y="1209"/>
			<point x="1160" y="1192" type="curve" smooth="yes"/>
			<point x="73" y="-165" type="line" smooth="yes"/>
			<point x="57" y="-185"/>
			<point x="52" y="-189"/>
			<point x="11" y="-189" type="curve" smooth="yes"/>
			<point x="-21" y="-189" type="line" smooth="yes"/>
			<point x="-70" y="-189"/>
			<point x="-78" y="-179"/>
			<point x="-61" y="-158" type="curve" smooth="yes"/>
			<point x="1030" y="1189" type="line" smooth="yes"/>
			<point x="1045" y="1208"/>
			<point x="1046" y="1215"/>
		</contour>
		<component base="o"/>
	</outline>
</glyph>
<glyph name="dcroat" format="2">
	<advance width="1303" height="2309"/>
	<unicode hex="0111"/>
	<outline>
		<contour>
			<point x="693" y="1300" type="curve" smooth="yes"/>
			<point x="1361" y="1300" type="line" smooth="yes"/>
			<point x="1386" y="1300"/>
			<point x="1388" y="1296"/>
			<point x="1388" y="1272" type="curve" smooth="yes"/>
			<point x="1388" y="1223" type="line" smooth="yes"/>
			<point x="1388" y="1199"/>
			<point x="1386" y="1190"/>
			<point x="1358" y="1190" type="curve" smooth="yes"/>
			<point x="691" y="1190" type="line" smooth="yes"/>
			<point x="664" y="1190"/>
			<point x="663" y="1194"/>
			<point x="663" y="1220" type="curve" smooth="yes"/>
			<point x="663" y="1272" type="line" smooth="yes"/>
			<point x="663" y="1295"/>
			<point x="671" y="1300"/>
		</contour>
		<component base="d"/>
	</outline>
</glyph>
<glyph name="gcircumflex" format="2">
	<advance width="1078" height="0"/>
	<unicode hex="011D"/>
	<outline>
		<contour>
			<point x="-130" y="-310" type="curve" smooth="yes"/>
			<point x="-130" y="-189"/>
			<point x="-32" y="-80"/>
			<point x="60" y="-22" type="curve" smooth="yes"/>
			<point x="124" y="19"/>
			<point x="98" y="-4"/>
			<point x="60" y="43" type="curve" smooth="yes"/>
			<point x="43" y="64"/>
			<point x="34" y="91"/>
			<point x="34" y="128" type="curve" smooth="yes"/>
			<point x="34" y="218"/>
			<point x="102" y="298"/>
			<point x="206" y="346" type="curve" smooth="yes"/>
			<point x="254" y="368"/>
			<point x="247" y="360"/>
			<point x="209" y="389" type="curve" smooth="yes"/>
			<point x="151" y="434"/>
			<point x="120" y="501"/>
			<point x="120" y="590" type="curve" smooth="yes"/>
			<point x="120" y="830"/>
			<point x="366" y="1060"/>
			<point x="628" y="1060" type="curve" smooth="yes"/>
			<point x="674" y="1060"/>
			<point x="715" y="1056"/>
			<point x="751" y="1048" type="curve" smooth="yes"/>
			<point x="768" y="1044"/>
			<point x="766" y="1046"/>
			<point x="775" y="1059" type="curve" smooth="yes"/>
			<point x="826" y="1133"/>
			<point x="887" y="1204"/>
			<point x="1000" y="1204" type="curve" smooth="yes"/>
			<point x="1082" y="1204"/>
			<point x="1148" y="1146"/>
			<point x="1148" y="1062" type="curve" smooth="yes"/>
			<point x="1148" y="994"/>
			<point x="1102" y="952"/>
			<point x="1042" y="952" type="curve" smooth="yes"/>
			<point x="986" y="952"/>
			<point x="946" y="990"/>
			<point x="946" y="1040" type="curve" smooth="yes"/>
			<point x="946" y="1076"/>
			<point x="954" y="1096"/>
			<point x="940" y="1096" type="curve" smooth="yes"/>
			<point x="906" y="1096"/>
			<point x="869" y="1071"/>
			<point x="836" y="1037" type="curve" smooth="yes"/>
			<point x="823" y="1024"/>
			<point x="833" y="1021"/>
			<point x="847" y="1013" type="curve" smooth="yes"/>
			<point x="920" y="969"/>
			<point x="956" y="894"/>
			<point x="956" y="790" type="curve" smooth="yes"/>
			<point x="956" y="550"/>
			<point x="730" y="320"/>
			<point x="468" y="320" type="curve" smooth="yes"/>
			<point x="437" y="320"/>
			<point x="407" y="321"/>
			<point x="380" y="325" type="curve" smooth="yes"/>
			<point x="339" y="330"/>
			<point x="325" y="330"/>
			<point x="293" y="313" type="curve" smooth="yes"/>
			<point x="237" y="283"/>
			<point x="190" y="239"/>
			<point x="190" y="192" type="curve" smooth="yes"/>
			<point x="190" y="138"/>
			<point x="274" y="138"/>
			<point x="384" y="138" type="curve" smooth="yes"/>
			<point x="434" y="138"/>
			<point x="510" y="140"/>
			<point x="566" y="140" type="curve" smooth="yes"/>
			<point x="756" y="140"/>
			<point x="880" y="88"/>
			<point x="880" y="-124" type="curve" smooth="yes"/>
			<point x="880" y="-346"/>
			<point x="580" y="-520"/>
			<point x="240" y="-520" type="curve" smooth="yes"/>
			<point x="34" y="-520"/>
			<point x="-130" y="-480"/>
		</contour>
		<contour>
			<point x="163" y="-42" type="curve" smooth="yes"/>
			<point x="89" y="-121"/>
			<point x="60" y="-227"/>
			<point x="60" y="-284" type="curve" smooth="yes"/>
			<point x="60" y="-376"/>
			<point x="170" y="-410"/>
			<point x="262" y="-410" type="curve" smooth="yes"/>
			<point x="490" y="-410"/>
			<point x="738" y="-304"/>
			<point x="738" y="-134" type="curve" smooth="yes"/>
			<point x="738" y="-46"/>
			<point x="690" y="-18"/>
			<point x="560" y="-18" type="curve" smooth="yes"/>
			<point x="518" y="-18"/>
			<point x="396" y="-18"/>
			<point x="352" y="-18" type="curve" smooth="yes"/>
			<point x="317" y="-18"/>
			<point x="283" y="-18"/>
			<point x="252" y="-17" type="curve" smooth="yes"/>
			<point x="200" y="-15"/>
			<point x="189" y="-14"/>
		</contour>
		<contour>
			<point x="310" y="570" type="curve" smooth="yes"/>
			<point x="310" y="482"/>
			<point x="330" y="400"/>
			<point x="468" y="400" type="curve" smooth="yes"/>
			<point x="646" y="400"/>
			<point x="766" y="602"/>
			<point x="766" y="810" type="curve" smooth="yes"/>
			<point x="766" y="878"/>
			<point x="766" y="980"/>
			<point x="628" y="980" type="curve" smooth="yes"/>
			<point x="450" y="980"/>
			<point x="310" y="778"/>
		</contour>
		<component base="circumflexcomb" xOffset="50" yOffset="-420"/>
	</outline>
</glyph>
<glyph name="gbreve" format="2">
	<advance width="1109" height="0"/>
	<unicode hex="011F"/>
	<outline>
		<contour>
			<point x="617" y="1250" type="curve" smooth="yes"/>
			<point x="425" y="1250"/>
			<point x="392" y="1345"/>
			<point x="420" y="1489" type="curve" smooth="yes"/>
			<point x="424" y="1506"/>
			<point x="430" y="1508"/>
			<point x="447" y="1508" type="curve" smooth="yes"/>
			<point x="461" y="1508" type="line" smooth="yes"/>
			<point x="475" y="1508"/>
			<point x="478" y="1505"/>
			<point x="476" y="1492" type="curve" smooth="yes"/>
			<point x="464" y="1402"/>
			<point x="518" y="1360"/>
			<point x="615" y="1360" type="curve" smooth="yes"/>
			<point x="707" y="1360"/>
			<point x="781" y="1398"/>
			<point x="810" y="1479" type="curve" smooth="yes"/>
			<point x="817" y="1498"/>
			<point x="812" y="1508"/>
			<point x="836" y="1508" type="curve" smooth="yes"/>
			<point x="863" y="1508" type="line" smooth="yes"/>
			<point x="884" y="1508"/>
			<point x="883" y="1504"/>
			<point x="878" y="1484" type="curve" smooth="yes"/>
			<point x="843" y="1344"/>
			<point x="766" y="1250"/>
		</contour>
		<component base="g"/>
	</outline>
</glyph>
<glyph name="hcircumflex" format="2">
	<advance width="1281" height="0"/>
	<unicode hex="0125"/>
	<outline>
		<contour>
			<point x="658" y="1225" type="curve" smooth="yes"/>
			<point x="643" y="1249" type="line" smooth="yes"/>
			<point x="631" y="1264"/>
			<point x="632" y="1264"/>
			<point x="650" y="1279" type="curve" smooth="yes"/>
			<point x="878" y="1467" type="line" smooth="yes"/>
			<point x="895" y="1481"/>
			<point x="905" y="1484"/>
			<point x="934" y="1484" type="curve" smooth="yes"/>
			<point x="1019" y="1484" type="line" smooth="yes"/>
			<point x="1045" y="1484"/>
			<point x="1053" y="1479"/>
			<point x="1062" y="1467" type="curve" smooth="yes"/>
			<point x="1213" y="1275" type="line" smooth="yes"/>
			<point x="1221" y="1265"/>
			<point x="1222" y="1265"/>
			<point x="1209" y="1254" type="curve" smooth="yes"/>
			<point x="1180" y="1230" type="line" smooth="yes"/>
			<point x="1162" y="1215"/>
			<point x="1162" y="1217"/>
			<point x="1148" y="1229" type="curve" smooth="yes"/>
			<point x="994" y="1365" type="line" smooth="yes"/>
			<point x="979" y="1378"/>
			<point x="965" y="1379"/>
			<point x="944" y="1366" type="curve" smooth="yes"/>
			<point x="693" y="1219" type="line" smooth="yes"/>
			<point x="676" y="1208"/>
			<point x="668" y="1212"/>
		</contour>
		<component base="h"/>
	</outline>
</glyph>
<glyph name="Hbar" format="2">
	<advance width="1794" height="0"/>
	<unicode hex="0126"/>
	<outline>
		<contour>
			<point x="222" y="1190" type="curve" smooth="yes"/>
			<point x="1713" y="1190" type="line" smooth="yes"/>
			<point x="1768" y="1190"/>
			<point x="1775" y="1186"/>
			<point x="1775" y="1162" type="curve" smooth="yes"/>
			<point x="1775" y="1113" type="line" smooth="yes"/>
			<point x="1775" y="1089"/>
			<point x="1770" y="1080"/>
			<point x="1708" y="1080" type="curve" smooth="yes"/>
			<point x="218" y="1080" type="line" smooth="yes"/>
			<point x="158" y="1080"/>
			<point x="156" y="1084"/>
			<point x="156" y="1110" type="curve" smooth="yes"/>
			<point x="156" y="1162" type="line" smooth="yes"/>
			<point x="156" y="1185"/>
			<point x="172" y="1190"/>
		</contour>
		<component base="H"/>
	</outline>
</glyph>
<glyph name="idotless" format="2">
	<advance width="618" height="2310"/>
	<unicode hex="0131"/>
	<anchor x="319" y="1040" name="Anchor-0"/>
	<anchor x="197" y="0" name="Anchor-1"/>
	<anchor x="197" y="0" name="Anchor-2"/>
	<outline>
		<contour>
			<point x="442" y="1024" type="curve" smooth="yes"/>
			<point x="240" y="178" type="line" smooth="yes"/>
			<point x="237" y="167"/>
			<point x="236" y="152"/>
			<point x="236" y="142" type="curve" smooth="yes"/>
			<point x="236" y="120"/>
			<point x="246" y="104"/>
			<point x="272" y="104" type="curve" smooth="yes"/>
			<point x="338" y="104"/>
			<point x="429" y="212"/>
			<point x="477" y="338" type="curve" smooth="yes"/>
			<point x="481" y="350"/>
			<point x="485" y="350"/>
			<point x="498" y="346" type="curve" smooth="yes"/>
			<point x="540" y="332" type="line" smooth="yes"/>
			<point x="555" y="327"/>
			<point x="559" y="328"/>
			<point x="553" y="313" type="curve" smooth="yes"/>
			<point x="476" y="120"/>
			<point x="341" y="-20"/>
			<point x="202" y="-20" type="curve" smooth="yes"/>
			<point x="108" y="-20"/>
			<point x="60" y="26"/>
			<point x="60" y="126" type="curve" smooth="yes"/>
			<point x="60" y="136"/>
			<point x="62" y="158"/>
			<point x="64" y="170" type="curve" smooth="yes"/>
			<point x="234" y="916" type="line" smooth="yes"/>
			<point x="236" y="926"/>
			<point x="235" y="930"/>
			<point x="218" y="930" type="curve" smooth="yes"/>
			<point x="84" y="930" type="line" smooth="yes"/>
			<point x="72" y="930"/>
			<point x="66" y="932"/>
			<point x="66" y="944" type="curve" smooth="yes"/>
			<point x="66" y="1017" type="line" smooth="yes"/>
			<point x="66" y="1031"/>
			<point x="67" y="1040"/>
			<point x="81" y="1040" type="curve" smooth="yes"/>
			<point x="425" y="1040" type="line" smooth="yes"/>
			<point x="443" y="1040"/>
			<point x="445" y="1038"/>
		</contour>
	</outline>
</glyph>
<glyph name="Lslash" format="2">
	<advance width="1455" height="0"/>
	<unicode hex="0141"/>
	<outline>
		<contour>
			<point x="144" y="736" type="curve" smooth="yes"/>
			<point x="778" y="1139" type="line" smooth="yes"/>
			<point x="798" y="1152"/>
			<point x="811" y="1173"/>
			<point x="811" y="1132" type="curve" smooth="yes"/>
			<point x="811" y="1083" type="line" smooth="yes"/>
			<point x="811" y="1048"/>
			<point x="809" y="1044"/>
			<point x="788" y="1031" type="curve" smooth="yes"/>
			<point x="150" y="625" type="line" smooth="yes"/>
			<point x="130" y="613"/>
			<point x="120" y="594"/>
			<point x="120" y="634" type="curve" smooth="yes"/>
			<point x="120" y="695" type="line" smooth="yes"/>
			<point x="120" y="725"/>
			<point x="127" y="725"/>
		</contour>
		<component base="L"/>
	</outline>
</glyph>
<glyph name="OE" format="2">
	<advance width="2258" height="0"/>
	<unicode hex="0152"/>
	<outline>
		<contour>
			<point x="1209" y="1500" type="line"/>
			<point x="1185" y="1390" type="line"/>
			<point x="965" y="1390" type="line" smooth="yes"/>
			<point x="597" y="1390"/>
			<point x="416" y="1114"/>
			<point x="339" y="750" type="curve" smooth="yes"/>
			<point x="262" y="386"/>
			<point x="345" y="110"/>
			<point x="693" y="110" type="curve" smooth="yes"/>
			<point x="913" y="110" type="line"/>
			<point x="890" y="0" type="line"/>
			<point x="670" y="0" type="line" smooth="yes"/>
			<point x="224" y="0"/>
			<point x="18" y="324"/>
			<point x="109" y="750" type="curve" smooth="yes"/>
			<point x="200" y="1176"/>
			<point x="563" y="1500"/>
			<point x="989" y="1500" type="curve" smooth="yes"/>
		</contour>
		<component base="E" xOffset="800"/>
	</outline>
</glyph>
<glyph name="tbar" format="2">
	<advance width="773" height="2309"/>
	<unicode hex="0167"/>
	<outline>
		<contour>
			<point x="86" y="720" type="curve" smooth="yes"/>
			<point x="696" y="720" type="line" smooth="yes"/>
			<point x="718" y="720"/>
			<point x="721" y="716"/>
			<point x="721" y="692" type="curve" smooth="yes"/>
			<point x="721" y="643" type="line" smooth="yes"/>
			<point x="721" y="619"/>
			<point x="719" y="610"/>
			<point x="694" y="610" type="curve" smooth="yes"/>
			<point x="84" y="610" type="line" smooth="yes"/>
			<point x="60" y="610"/>
			<point x="59" y="614"/>
			<point x="59" y="640" type="curve" smooth="yes"/>
			<point x="59" y="692" type="line" smooth="yes"/>
			<point x="59" y="715"/>
			<point x="66" y="720"/>
		</contour>
		<component base="t" xOffset="43"/>
	</outline>
</glyph>
<glyph name="gravecomb" format="2">
	<advance width="0" height="0"/>
	<unicode hex="0300"/>
	<anchor x="730" y="1500" name="_Anchor-0"/>
	<outline>
		<contour>
			<point x="552" y="1920" type="curve" smooth="yes"/>
			<point x="579" y="1966"/>
			<point x="647" y="1973"/>
			<point x="684" y="1936" type="curve" smooth="yes"/>
			<point x="878" y="1747" type="line" smooth="yes"/>
			<point x="891" y="1734"/>
			<point x="892" y="1725"/>
			<point x="879" y="1711" type="curve" smooth="yes"/>
			<point x="845" y="1675" type="line" smooth="yes"/>
			<point x="834" y="1663"/>
			<point x="830" y="1660"/>
			<point x="815" y="1669" type="curve" smooth="yes"/>
			<point x="579" y="1807" type="line" smooth="yes"/>
			<point x="545" y="1827"/>
			<point x="523" y="1870"/>
		</contour>
	</outline>
</glyph>
<glyph name="tildecomb" format="2">
	<advance width="0" height="0"/>
	<unicode hex="0303"/>
	<anchor x="655" y="1500" name="_Anchor-0"/>
	<outline>
		<contour>
			<point x="863" y="1680" type="curve" smooth="yes"/>
			<point x="759" y="1680"/>
			<point x="715" y="1717"/>
			<point x="682" y="1759" type="curve" smooth="yes"/>
			<point x="656" y="1792"/>
			<point x="628" y="1838"/>
			<point x="558" y="1838" type="curve" smooth="yes"/>
			<point x="503" y="1838"/>
			<point x="460" y="1794"/>
			<point x="440" y="1714" type="curve" smooth="yes"/>
			<point x="436" y="1702"/>
			<point x="430" y="1700"/>
			<point x="417" y="1700" type="curve" smooth="yes"/>
			<point x="375" y="1700" type="line" smooth="yes"/>
			<point x="352" y="1700"/>
			<point x="355" y="1710"/>
			<point x="361" y="1730" type="curve" smooth="yes"/>
			<point x="400" y="1857"/>
			<point x="465" y="1954"/>
			<point x="609" y="1954" type="curve" smooth="yes"/>
			<point x="713" y="1954"/>
			<point x="758" y="1918"/>
			<point x="788" y="1875" type="curve" smooth="yes"/>
			<point x="810" y="1843"/>
			<point x="832" y="1796"/>
			<point x="895" y="1796" type="curve" smooth="yes"/>
			<point x="948" y="1796"/>
			<point x="989" y="1837"/>
			<point x="1010" y="1912" type="curve" smooth="yes"/>
			<point x="1014" y="1928"/>
			<point x="1018" y="1934"/>
			<point x="1037" y="1934" type="curve" smooth="yes"/>
			<point x="1080" y="1934" type="line" smooth="yes"/>
			<point x="1098" y="1934"/>
			<point x="1098" y="1928"/>
			<point x="1094" y="1912" type="curve" smooth="yes"/>
			<point x="1058" y="1764"/>
			<point x="990" y="1680"/>
		</contour>
	</outline>
</glyph>
<glyph name="brevecomb" format="2">
	<advance width="0" height="0"/>
	<unicode hex="0306"/>
	<anchor x="658" y="1500" name="_Anchor-0"/>
	<outline>
		<contour>
			<point x="716" y="1680" type="curve" smooth="yes"/>
			<point x="524" y="1680"/>
			<point x="491" y="1775"/>
			<point x="519" y="1919" type="curve" smooth="yes"/>
			<point x="523" y="1936"/>
			<point x="529" y="1938"/>
			<point x="546" y="1938" type="curve" smooth="yes"/>
			<point x="560" y="1938" type="line" smooth="yes"/>
			<point x="574" y="1938"/>
			<point x="577" y="1935"/>
			<point x="575" y="1922" type="curve" smooth="yes"/>
			<point x="563" y="1832"/>
			<point x="617" y="1790"/>
			<point x="714" y="1790" type="curve" smooth="yes"/>
			<point x="806" y="1790"/>
			<point x="880" y="1828"/>
			<point x="909" y="1909" type="curve" smooth="yes"/>
			<point x="916" y="1928"/>
			<point x="911" y="1938"/>
			<point x="935" y="1938" type="curve" smooth="yes"/>
			<point x="962" y="1938" type="line" smooth="yes"/>
			<point x="983" y="1938"/>
			<point x="982" y="1934"/>
			<point x="977" y="1914" type="curve" smooth="yes"/>
			<point x="942" y="1774"/>
			<point x="865" y="1680"/>
		</contour>
	</outline>
</glyph>
<glyph name="commaturnedabovecomb" format="2">
	<advance width="0" height="0"/>
	<unicode hex="0312"/>
	<anchor x="533" y="920" name="_Anchor-0"/>
	<outline>
		<contour>
			<point x="711" y="1198" type="curve" smooth="yes"/>
			<point x="711" y="1145"/>
			<point x="665" y="1103"/>
			<point x="604" y="1103" type="curve" smooth="yes"/>
			<point x="542" y="1103"/>
			<point x="492" y="1153"/>
			<point x="492" y="1254" type="curve" smooth="yes"/>
			<point x="492" y="1393"/>
			<point x="628" y="1513"/>
			<point x="760" y="1525" type="curve" smooth="yes"/>
			<point x="772" y="1526"/>
			<point x="778" y="1527"/>
			<point x="778" y="1513" type="curve" smooth="yes"/>
			<point x="778" y="1478" type="line" smooth="yes"/>
			<point x="778" y="1464"/>
			<point x="770" y="1462"/>
			<point x="758" y="1460" type="curve" smooth="yes"/>
			<point x="685" y="1449"/>
			<point x="567" y="1375"/>
			<point x="576" y="1283" type="curve" smooth="yes"/>
			<point x="578" y="1270"/>
			<point x="584" y="1276"/>
			<point x="593" y="1282" type="curve" smooth="yes"/>
			<point x="603" y="1288"/>
			<point x="617" y="1292"/>
			<point x="634" y="1292" type="curve" smooth="yes"/>
			<point x="687" y="1292"/>
			<point x="711" y="1251"/>
		</contour>
	</outline>
</glyph>
<glyph name="dotbelowcomb" format="2">
	<advance width="0" height="0"/>
	<unicode hex="0323"/>
	<anchor x="340" y="0" name="_Anchor-1"/>
	<anchor x="340" y="0" name="_Anchor-2"/>
	<outline>
		<contour>
			<point x="281" y="-410" type="curve" smooth="yes"/>
			<point x="216" y="-410"/>
			<point x="161" y="-354"/>
			<point x="161" y="-289" type="curve" smooth="yes"/>
			<point x="161" y="-223"/>
			<point x="216" y="-169"/>
			<point x="281" y="-169" type="curve" smooth="yes"/>
			<point x="347" y="-169"/>
			<point x="401" y="-223"/>
			<point x="401" y="-289" type="curve" smooth="yes"/>
			<point x="401" y="-354"/>
			<point x="347" y="-410"/>
		</contour>
	</outline>
</glyph>
<glyph name="Delta" format="2">
	<advance width="1720" height="0"/>
	<unicode hex="0394"/>
	<outline>
		<contour>
			<point x="1111" y="110" type="line" smooth="yes"/>
			<point x="1143" y="110"/>
			<point x="1139" y="127"/>
			<point x="1136" y="146" type="curve" smooth="yes"/>
			<point x="955" y="1256" type="line" smooth="yes"/>
			<point x="949" y="1296"/>
			<point x="946" y="1296"/>
			<point x="924" y="1262" type="curve" smooth="yes"/>
			<point x="220" y="158" type="line" smooth="yes"/>
			<point x="199" y="126"/>
			<point x="196" y="110"/>
			<point x="240" y="110" type="curve" smooth="yes"/>
		</contour>
		<contour>
			<point x="1308" y="0" type="curve" smooth="yes"/>
			<point x="56" y="0" type="line" smooth="yes"/>
			<point x="6" y="0"/>
			<point x="-2" y="12"/>
			<point x="16" y="40" type="curve" smooth="yes"/>
			<point x="971" y="1520" type="line" smooth="yes"/>
			<point x="977" y="1529"/>
			<point x="981" y="1530"/>
			<point x="994" y="1530" type="curve" smooth="yes"/>
			<point x="1074" y="1530" type="line" smooth="yes"/>
			<point x="1090" y="1530"/>
			<point x="1096" y="1529"/>
			<point x="1098" y="1518" type="curve" smooth="yes"/>
			<point x="1371" y="44" type="line" smooth="yes"/>
			<point x="1377" y="12"/>
			<point x="1368" y="0"/>
		</contour>
	</outline>
</glyph>
<glyph name="Dje-cy" format="2">
	<advance width="1920" height="0"/>
	<unicode hex="0402"/>
	<anchor x="915" y="1500" name="Anchor-0"/>
	<anchor x="616" y="0" name="Anchor-1"/>
	<anchor x="616" y="0" name="Anchor-2"/>
	<outline>
		<contour>
			<point x="280" y="41" type="curve" smooth="yes"/>
			<point x="280" y="75" type="line" smooth="yes"/>
			<point x="280" y="107"/>
			<point x="292" y="110"/>
			<point x="322" y="110" type="curve" smooth="yes"/>
			<point x="486" y="110" type="line" smooth="yes"/>
			<point x="534" y="110"/>
			<point x="545" y="117"/>
			<point x="555" y="165" type="curve" smooth="yes"/>
			<point x="810" y="1355" type="line" smooth="yes"/>
			<point x="818" y="1391"/>
			<point x="803" y="1400"/>
			<point x="766" y="1400" type="curve" smooth="yes"/>
			<point x="690" y="1400" type="line" smooth="yes"/>
			<point x="428" y="1400"/>
			<point x="316" y="1312"/>
			<point x="260" y="1031" type="curve" smooth="yes"/>
			<point x="254" y="1001"/>
			<point x="256" y="990"/>
			<point x="222" y="990" type="curve" smooth="yes"/>
			<point x="194" y="990" type="line" smooth="yes"/>
			<point x="160" y="990"/>
			<point x="160" y="1011"/>
			<point x="160" y="1041" type="curve" smooth="yes"/>
			<point x="250" y="1447" type="line" smooth="yes"/>
			<point x="260" y="1491"/>
			<point x="263" y="1500"/>
			<point x="308" y="1500" type="curve" smooth="yes"/>
			<point x="1558" y="1500" type="line" smooth="yes"/>
			<point x="1597" y="1500"/>
			<point x="1600" y="1493"/>
			<point x="1600" y="1453" type="curve" smooth="yes"/>
			<point x="1510" y="1021" type="line" smooth="yes"/>
			<point x="1504" y="993"/>
			<point x="1497" y="990"/>
			<point x="1467" y="990" type="curve" smooth="yes"/>
			<point x="1443" y="990" type="line" smooth="yes"/>
			<point x="1406" y="990"/>
			<point x="1404" y="1005"/>
			<point x="1409" y="1037" type="curve" smooth="yes"/>
			<point x="1452" y="1314"/>
			<point x="1420" y="1400"/>
			<point x="1160" y="1400" type="curve" smooth="yes"/>
			<point x="1048" y="1400" type="line" smooth="yes"/>
			<point x="1013" y="1400"/>
			<point x="1008" y="1392"/>
			<point x="1000" y="1357" type="curve" smooth="yes"/>
			<point x="880" y="818" type="line" smooth="yes"/>
			<point x="870" y="774"/>
			<point x="882" y="779"/>
			<point x="911" y="794" type="curve" smooth="yes"/>
			<point x="1028" y="852"/>
			<point x="1178" y="891"/>
			<point x="1321" y="891" type="curve" smooth="yes"/>
			<point x="1553" y="891"/>
			<point x="1745" y="798"/>
			<point x="1745" y="498" type="curve" smooth="yes"/>
			<point x="1745" y="198"/>
			<point x="1519" y="-19"/>
			<point x="1247" y="-19" type="curve" smooth="yes"/>
			<point x="1113" y="-19"/>
			<point x="955" y="45"/>
			<point x="955" y="209" type="curve" smooth="yes"/>
			<point x="955" y="305"/>
			<point x="1025" y="341"/>
			<point x="1083" y="341" type="curve" smooth="yes"/>
			<point x="1137" y="341"/>
			<point x="1197" y="299"/>
			<point x="1197" y="225" type="curve" smooth="yes"/>
			<point x="1197" y="153"/>
			<point x="1163" y="153"/>
			<point x="1163" y="127" type="curve" smooth="yes"/>
			<point x="1163" y="103"/>
			<point x="1179" y="75"/>
			<point x="1257" y="75" type="curve" smooth="yes"/>
			<point x="1415" y="75"/>
			<point x="1543" y="313"/>
			<point x="1543" y="501" type="curve" smooth="yes"/>
			<point x="1543" y="699"/>
			<point x="1465" y="785"/>
			<point x="1287" y="785" type="curve" smooth="yes"/>
			<point x="1168" y="785"/>
			<point x="1031" y="761"/>
			<point x="905" y="686" type="curve" smooth="yes"/>
			<point x="879" y="670"/>
			<point x="849" y="657"/>
			<point x="840" y="614" type="curve" smooth="yes"/>
			<point x="720" y="42" type="line" smooth="yes"/>
			<point x="712" y="4"/>
			<point x="698" y="0"/>
			<point x="662" y="0" type="curve" smooth="yes"/>
			<point x="326" y="0" type="line" smooth="yes"/>
			<point x="287" y="0"/>
			<point x="280" y="3"/>
		</contour>
	</outline>
</glyph>
<glyph name="E-cy" format="2">
	<advance width="1620" height="0"/>
	<unicode hex="0404"/>
	<anchor x="1026" y="1500" name="Anchor-0"/>
	<anchor x="717" y="0" name="Anchor-1"/>
	<anchor x="717" y="0" name="Anchor-2"/>
	<outline>
		<contour>
			<point x="90" y="570" type="curve" smooth="yes"/>
			<point x="90" y="1106"/>
			<point x="584" y="1520"/>
			<point x="1030" y="1520" type="curve" smooth="yes"/>
			<point x="1223" y="1520"/>
			<point x="1353" y="1439"/>
			<point x="1434" y="1333" type="curve" smooth="yes"/>
			<point x="1452" y="1310"/>
			<point x="1462" y="1315"/>
			<point x="1480" y="1349" type="curve" smooth="yes"/>
			<point x="1555" y="1492" type="line" smooth="yes"/>
			<point x="1562" y="1504"/>
			<point x="1557" y="1510"/>
			<point x="1576" y="1510" type="curve" smooth="yes"/>
			<point x="1630" y="1510" type="line" smooth="yes"/>
			<point x="1647" y="1510"/>
			<point x="1650" y="1507"/>
			<point x="1650" y="1491" type="curve" smooth="yes"/>
			<point x="1545" y="1016" type="line" smooth="yes"/>
			<point x="1545" y="994"/>
			<point x="1539" y="990"/>
			<point x="1516" y="990" type="curve" smooth="yes"/>
			<point x="1455" y="990" type="line" smooth="yes"/>
			<point x="1429" y="990"/>
			<point x="1433" y="998"/>
			<point x="1431" y="1019" type="curve" smooth="yes"/>
			<point x="1417" y="1213"/>
			<point x="1314" y="1404"/>
			<point x="1040" y="1404" type="curve" smooth="yes"/>
			<point x="727" y="1404"/>
			<point x="441" y="1170"/>
			<point x="366" y="858" type="curve" smooth="yes"/>
			<point x="358" y="824"/>
			<point x="363" y="810"/>
			<point x="404" y="810" type="curve" smooth="yes"/>
			<point x="853" y="810" type="line" smooth="yes"/>
			<point x="881" y="810"/>
			<point x="893" y="803"/>
			<point x="893" y="778" type="curve" smooth="yes"/>
			<point x="893" y="728" type="line" smooth="yes"/>
			<point x="893" y="707"/>
			<point x="885" y="700"/>
			<point x="847" y="700" type="curve" smooth="yes"/>
			<point x="364" y="700" type="line" smooth="yes"/>
			<point x="323" y="700"/>
			<point x="326" y="691"/>
			<point x="323" y="652" type="curve" smooth="yes"/>
			<point x="299" y="331"/>
			<point x="391" y="98"/>
			<point x="710" y="98" type="curve" smooth="yes"/>
			<point x="1031" y="98"/>
			<point x="1281" y="335"/>
			<point x="1358" y="574" type="curve" smooth="yes"/>
			<point x="1362" y="585"/>
			<point x="1364" y="590"/>
			<point x="1378" y="590" type="curve" smooth="yes"/>
			<point x="1448" y="590" type="line" smooth="yes"/>
			<point x="1462" y="590"/>
			<point x="1472" y="589"/>
			<point x="1469" y="576" type="curve" smooth="yes"/>
			<point x="1394" y="236"/>
			<point x="1091" y="-20"/>
			<point x="690" y="-20" type="curve" smooth="yes"/>
			<point x="274" y="-20"/>
			<point x="90" y="224"/>
		</contour>
	</outline>
</glyph>
